<svg width="926" height="269" viewBox="0 0 926 269" fill="none" xmlns="http://www.w3.org/2000/svg">
<g clip-path="url(#clip0)">
<path d="M663.637 211.646C686.506 220.667 734.764 227.985 772.416 227.985C813.644 227.985 830.752 213.831 830.752 196.075C830.752 180.144 814.876 170.779 769.341 154.088C708.477 131.589 663.841 113.889 663.841 73.9115C663.841 32.508 717.545 8.15678 799.463 8.15678C843.442 8.15678 858.54 10.9355 886.485 16.0577L886.679 55.3402C859.253 50.1254 834.939 41.1592 797.166 41.1592C756.698 41.1592 739.46 54.0064 739.46 67.2518C739.46 86.4716 766.007 95.66 812.616 112.268C877.472 135.489 913.559 153.403 913.559 192.546C913.559 232.82 868.376 261.895 766.451 261.895C724.585 261.895 695.732 259.135 663.637 253.975V211.646Z" fill="#332D2B"/>
<path d="M446.672 42.8704H398.173V226.482H446.672C521.133 226.482 568.104 194.646 568.104 135.051C568.104 75.4746 521.133 42.8704 446.672 42.8704ZM576.903 243.59C552.885 254.455 507.517 261.346 467.818 261.346H316.209V8.70094H467.818C507.517 8.70094 552.885 15.6849 576.922 26.5221C635.313 52.8833 654.375 95.0741 654.375 135.051C654.375 175.056 635.489 217.182 576.903 243.59" fill="#332D2B"/>
<path d="M209.931 123.1C209.931 123.1 280.659 111.772 280.659 67.7378C280.659 24.6948 205.346 7.08673 125.215 7.08673C52.8934 7.08673 5.34881 15.9232 5.34881 15.9232V55.0296C38.1752 47.0916 69.566 40.33 112.359 40.33C158.283 40.33 193.332 54.0293 193.332 73.388C193.332 96.7296 158.672 110.058 84.0804 110.058H49.7997V145.247H81.6443C160.218 145.247 204.901 157.066 204.901 185.909C204.901 211.659 164.979 227.304 115.203 227.304C71.7983 227.304 32.0898 218.06 -0.116089 209.121V251.303C15.3524 253.961 56.3947 262.205 132.838 262.205C217.517 262.205 291.2 234.973 291.2 186.974C291.2 146.719 240.154 123.1 209.931 123.1Z" fill="#D12228"/>
</g>
<defs>
<clipPath id="clip0">
<rect width="926" height="269" fill="white"/>
</clipPath>
</defs>
</svg>
