<svg width="598" height="254" viewBox="0 0 598 254" fill="none" xmlns="http://www.w3.org/2000/svg">
<path d="M347.637 203.646C370.506 212.667 418.764 219.985 456.416 219.985C497.644 219.985 514.752 205.831 514.752 188.075C514.752 172.144 498.876 162.779 453.341 146.088C392.477 123.589 347.841 105.889 347.841 65.9115C347.841 24.508 401.545 0.156775 483.463 0.156775C527.442 0.156775 542.54 2.93554 570.485 8.05773L570.679 47.3402C543.253 42.1254 518.939 33.1592 481.166 33.1592C440.698 33.1592 423.46 46.0064 423.46 59.2518C423.46 78.4716 450.007 87.66 496.616 104.268C561.472 127.489 597.559 145.403 597.559 184.546C597.559 224.82 552.376 253.895 450.451 253.895C408.585 253.895 379.732 251.135 347.637 245.975L347.637 203.646Z" fill="#332D2B"/>
<path d="M130.672 34.8704H82.1732V218.482H130.672C205.133 218.482 252.104 186.646 252.104 127.051C252.104 67.4746 205.133 34.8704 130.672 34.8704ZM260.903 235.59C236.885 246.455 191.517 253.346 151.818 253.346H0.208984V0.700945H151.818C191.517 0.700945 236.885 7.6849 260.922 18.5221C319.313 44.8833 338.375 87.0741 338.375 127.051C338.375 167.056 319.489 209.182 260.903 235.59" fill="#332D2B"/>
</svg>
