<svg width="247" height="93" viewBox="0 0 247 93" fill="none" xmlns="http://www.w3.org/2000/svg">
<path d="M103.829 77.623C110.615 80.3123 124.947 82.4671 136.143 82.4671C148.395 82.4671 153.46 78.266 153.46 73.0004C153.46 68.2736 148.751 65.4844 135.231 60.5404C117.145 53.8628 103.881 48.5886 103.881 36.7281C103.881 24.4374 119.825 17.1864 144.167 17.1864C157.24 17.1864 161.711 18.0206 170.017 19.5368L170.069 31.2149C161.932 29.6596 154.703 26.992 143.485 26.992C131.464 26.992 126.333 30.8065 126.351 34.7513C126.351 40.447 134.227 43.1797 148.073 48.102C167.337 55.0098 178.072 60.3405 178.072 71.9447C178.042 83.9095 164.639 92.5377 134.371 92.5377C121.937 92.5377 113.356 91.7079 103.829 90.196V77.623Z" fill="black"/>
<path d="M39.323 27.5013H24.8775V82.038H39.323C61.493 82.038 75.452 72.5756 75.452 54.8804C75.452 37.1852 61.493 27.5013 39.323 27.5013ZM78.0543 87.1254C70.9163 90.3403 57.4266 92.3866 45.6182 92.3866H0.491699V17.3481H45.6182C57.4222 17.3481 70.9163 19.4335 78.0543 22.6441C95.4107 30.4816 101.072 43.0025 101.072 54.8804C101.072 66.7583 95.4628 79.2662 78.0543 87.1254Z" fill="black"/>
<path d="M220.937 -2.3527e-05C206.565 -2.3527e-05 194.905 11.652 194.905 26.0236C194.905 40.4127 206.565 52.0603 220.937 52.0603C235.309 52.0603 247 40.4127 247 26.0236C247 11.652 235.309 -2.3527e-05 220.937 -2.3527e-05ZM224.843 44.6833H217.053V20.9232H224.843V44.6833ZM220.902 16.47C218.378 16.47 216.332 14.502 216.332 12.069C216.332 9.61873 218.378 7.65501 220.902 7.65501C223.509 7.65501 225.577 9.58832 225.577 12.069C225.577 14.5324 223.509 16.47 220.902 16.47Z" fill="black"/>
</svg>
