<svg width="577" height="576" viewBox="0 0 577 576" fill="none" xmlns="http://www.w3.org/2000/svg">
<g clip-path="url(#clip0)">
<path d="M205.885 349.624C205.885 349.624 196.387 366.195 175.535 364.238C151.052 361.727 148.167 340.223 148.167 340.223C148.167 340.223 144.817 324.399 159.896 310.62C175.164 297.772 191.082 299.726 191.082 299.726C191.082 299.726 201.787 300.751 207.284 318.439C214.356 340.969 205.885 349.624 205.885 349.624V349.624ZM242.842 305.034C239.771 295.726 231.67 286.882 231.67 286.882C231.67 286.882 219.479 271.054 195.552 265.659C175.071 261.374 158.965 270.405 158.965 270.405C158.965 270.405 144.354 276.269 133.365 288.371C115.865 305.219 110.835 329.796 110.835 329.796C110.835 329.796 104.136 351.207 114.747 368.151L126.29 382.113C142.581 395.707 159.991 397.101 159.991 397.101C159.991 397.101 174.049 400.267 190.432 395.986C204.766 393.1 215.196 386.022 215.196 386.022C215.196 386.022 238.934 372.9 245.45 346.089L242.842 305.034" fill="#4E4BA8"/>
<path d="M408.36 354.467C382.015 370.292 365.445 352.975 365.445 352.975C365.445 352.975 358.091 348.136 356.508 333.427C355.391 316.391 372.333 307.549 372.333 307.549C372.333 307.549 381.273 302.055 392.443 302.892C403.616 303.73 407.149 302.985 416.18 309.689C424.741 317.416 424.188 323.092 424.188 323.092C424.188 323.092 427.256 342.272 408.36 354.467V354.467ZM452.948 300.101C436.664 273.479 407.991 269.475 407.991 269.475C407.991 269.475 398.865 266.401 379.318 269.006C342.64 275.989 329.884 304.196 329.884 304.196C329.884 304.196 316.756 324.863 321.971 349.904L337.984 381.555C349.805 392.631 354.644 392.631 355.391 393.287C371.031 400.361 389.183 396.263 389.183 396.263C389.183 396.263 412.084 394.03 433.03 377.738C449.786 365.451 457.051 347.392 457.051 347.392L452.948 300.101Z" fill="#DAAC06"/>
<path d="M492.428 306.058L490.655 281.762C490.655 281.762 507.689 281.388 514.766 282.599C528.734 284.74 527.981 288.652 527.981 288.652C527.981 288.652 527.52 293.583 516.908 298.427C505.363 304.01 492.428 306.058 492.428 306.058ZM457.051 347.394C457.051 347.394 457.605 362.285 455.279 365.917C452.113 372.711 452.579 379.323 452.579 379.323C452.579 379.323 450.438 399.43 473.714 402.782C489.725 402.687 491.68 389.374 491.956 383.698C492.889 379.23 492.515 358.469 492.515 358.469L513.275 375.412C513.275 375.412 528.36 388.073 537.2 395.428C546.426 402.687 548.741 403.991 548.741 403.991C548.741 403.991 550.704 406.317 557.769 405.48C563.458 405.577 568.668 400.453 568.668 400.453C568.668 400.453 575.274 395.615 576.944 387.142C578.995 377.089 571.183 372.155 571.183 372.155C571.183 372.155 542.325 348.881 522.774 332.868C535.894 325.702 542.228 320.766 542.228 320.766C542.228 320.766 560.479 308.666 564.385 290.141C569.791 269.752 554.425 261.747 554.425 261.747C554.425 261.747 544.835 254.857 536.731 251.225C516.346 241.266 497.359 243.312 497.359 243.312C497.359 243.312 470.36 241.452 452.764 263.144C444.669 273.661 449.695 287.441 449.695 287.441C449.695 287.441 450.699 289.65 452.948 300.101C457.479 321.122 457.051 347.394 457.051 347.394" fill="#00938A"/>
<path d="M321.971 349.906C314.126 348.182 301.582 351.394 301.582 351.394C301.582 351.394 284.085 357.816 281.38 357.723C280.36 356.238 278.125 327.655 278.777 316.205C279.151 296.005 277.474 279.526 277.474 279.526C277.474 279.526 276.636 260.07 266.206 248.527C253.919 236.147 245.355 241.452 240.422 244.43C228.596 255.044 234.09 267.98 234.09 267.98L240.235 285.392C240.235 285.392 243.216 292.839 242.842 305.033L245.45 346.089C245.45 351.581 249.917 388.537 249.917 388.537C249.917 388.537 250.381 400.549 261.927 402.687C273.749 404.64 285.384 398.779 290.32 396.455C295.252 394.125 301.772 392.077 301.772 392.077C301.772 392.077 307.169 390.868 312.566 390.4C325.23 389.189 329.791 386.957 329.791 386.957C329.791 386.957 334.695 386.22 337.984 381.555C341.272 376.891 345.257 355.024 321.971 349.906" fill="#6EB122"/>
<path d="M114.747 368.146C106.431 365.661 96.8755 367.308 96.8755 367.308C96.8755 367.308 69.876 369.914 55.8207 366.937C34.0361 363.121 34.7783 339.662 34.7783 339.662C34.7783 339.662 34.0361 324.115 47.1636 303.077C63.3598 277.104 81.2333 272.449 81.2333 272.449C81.2333 272.449 85.7036 270.776 89.8931 273.007C92.498 288.087 107.112 287.995 107.112 287.995C107.112 287.995 128.155 289.394 127.127 263.889C124.707 242.938 104.505 240.052 96.0332 238.1C70.6206 233.537 54.1435 247.128 54.1435 247.128C54.1435 247.128 37.1073 256.347 16.7216 288.461C2.84713 308.383 1.17477 324.022 1.17477 324.022C1.17477 324.022 -0.50003 327.749 0.149383 344.32C-0.219269 357.258 4.61959 366.657 4.61959 366.657C4.61959 366.657 11.9756 388.912 35.2471 398.033C49.395 403.899 70.064 403.805 70.064 403.805C70.064 403.805 90.0786 403.527 105.437 402.687C113.816 403.339 117.82 398.964 117.82 398.964C117.82 398.964 127.22 392.821 126.29 382.113C126.29 382.113 124.468 371.056 114.747 368.146" fill="#B80A41"/>
<path d="M94.5074 201.926L92.2613 190.334L87.0782 201.926H94.5074V201.926ZM175.889 231.394H163.614L161.974 194.424L146.014 231.394H137.828L131.009 197.97L120.367 231.394H99.4952L96.3556 213.525H82.1686L74.1192 231.394H61.2944L87.6251 171.642H102.767L110.816 219.936L126.505 171.642H138.644L144.646 204.384L158.565 171.642H173.299L175.889 231.394" fill="#2E3192"/>
<path d="M211.087 231.394L213.135 218.571H191.715L193.414 207.929H212.041L214.09 195.106H195.261L196.9 184.465H218.314L220.363 171.642H186.395L176.844 231.394H211.087" fill="#2E3192"/>
<path d="M370.565 171.642H356.239L344.097 191.149L336.46 171.642H322.407L336.869 203.154L332.412 231.394H344.692L348.462 206.43L370.565 171.642" fill="#2E3192"/>
<path d="M297.661 220.016C304.156 222.921 312.11 217.221 315.423 207.285C318.731 197.345 316.155 186.93 309.661 184.025C303.165 181.117 295.218 186.819 291.903 196.76C288.59 206.701 291.17 217.109 297.661 220.016V220.016ZM279.08 196.379C282.894 179.857 297.013 169.015 310.616 172.16C324.224 175.305 332.164 191.242 328.353 207.762C324.541 224.281 310.42 235.124 296.818 231.98C283.209 228.835 275.269 212.895 279.08 196.379" fill="#2E3192"/>
<path d="M35.1029 176.965C23.4037 184.204 17.7763 195.241 19.2753 210.249C21.0161 227.656 43.5599 238.625 62.6591 227.575C64.3291 226.609 63.6772 226.762 64.2973 226.21L68.1181 201.926H45.3324L43.5868 213.112H53.1083L52.0146 219.117C46.5604 221.299 37.2832 220.48 33.3281 213.386C30.8232 208.894 28.5014 198.866 39.0604 189.647C47.6493 182.145 62.5224 180.782 71.1186 184.739C71.1186 184.739 72.2099 178.464 73.0253 172.595C56.5189 166.867 43.6943 171.642 35.1029 176.965" fill="#2E3192"/>
<path d="M239.049 171.975L229.574 231.276C229.574 231.276 249.205 231.276 257.19 231.276C268.562 231.276 285.194 214.514 270.054 200.815C285.621 184.704 270.186 172.114 261.929 171.975C255.296 171.865 238.916 171.975 238.916 171.975H239.049V171.975ZM245.819 207.854C245.819 207.854 248.391 207.854 256.106 207.854C265.857 207.854 265.586 219.767 254.754 219.767C247.989 219.767 243.924 219.767 243.924 219.767L245.819 207.854V207.854ZM249.607 184.567C249.607 184.567 249.879 184.567 257.599 184.567C266.262 184.567 264.505 195.669 256.249 195.669C249.476 195.669 247.715 195.669 247.715 195.669L249.607 184.567" fill="#2E3192"/>
<path d="M355.757 236.875H353.44L355.381 228.62H352.034L352.451 226.845H361.462L361.045 228.62H357.699L355.757 236.875Z" fill="#231F20"/>
<path d="M371.111 236.875H368.951L370.921 228.493H370.891L366.856 236.875H364.585L364.531 228.493H364.502L362.532 236.875H360.371L362.727 226.845H366.104L366.255 234.753H366.287L370.117 226.845H373.47L371.111 236.875" fill="#231F20"/>
</g>
<defs>
<clipPath id="clip0">
<rect width="577" height="576" fill="white"/>
</clipPath>
</defs>
</svg>
