<svg width="142" height="119" viewBox="0 0 142 119" fill="none" xmlns="http://www.w3.org/2000/svg">
<g clip-path="url(#clip0)">
<path d="M35.6231 18.6258C33.6156 15.7795 30.3044 13.9233 26.5581 13.9233C20.4269 13.9233 15.4619 18.8908 15.4619 25.0183C15.4619 31.1445 20.4269 36.112 26.5581 36.112C31.0056 36.112 34.8431 33.4908 36.6143 29.7108H26.8206V24.6658H42.4619C42.4669 24.7846 42.4708 24.9008 42.4708 25.0183C42.4708 26.6495 42.2271 28.227 41.7696 29.7108C39.7684 36.2095 33.7159 40.9395 26.5584 40.9395C17.7672 40.9395 10.6396 33.8083 10.6396 25.0183C10.6396 16.2258 17.7672 9.1008 26.5584 9.1008C33.0734 9.1008 38.6709 13.0195 41.1346 18.6258H35.6234H35.6231Z" fill="black"/>
<path d="M59.3567 9.4158V9.41678L39.2441 39.7043H45.4704L49.7667 33.2355H59.3567V39.7168H64.5442V9.41556H59.3567V9.4158ZM53.2104 28.0471L59.3567 18.7946V28.0471H53.2104Z" fill="black"/>
<path d="M105.165 9.4158V9.41678L91.2954 30.2955V9.41556H86.1079V9.41653L65.9941 39.704H72.2267L86.1079 18.794V39.7166H91.2954V39.6804L105.165 18.7941V39.7166H110.352V9.41534H105.165V9.4158Z" fill="black"/>
<path d="M130.305 14.6046V9.4158H114.548V39.7245L119.734 39.7045H130.305V34.5158H119.734V27.4533H130.305V22.267H119.734V14.6046H130.305V14.6046Z" fill="black"/>
<path d="M79.6557 64.6519C81.3182 60.9094 83.8157 55.2832 83.8157 55.2832H78.727L76.0482 61.3219L72.0595 57.6382C73.8858 56.1707 75.4895 54.3144 75.4895 51.2182C75.4895 49.5569 74.832 47.9869 73.6483 46.7969C72.2933 45.4457 70.387 44.6707 68.4107 44.6707C64.987 44.6707 61.442 47.1194 61.442 51.2182C61.442 54.0732 63.0145 55.9182 64.5757 57.2844C61.6845 59.3319 59.167 61.5119 59.167 66.0082C59.167 68.5594 60.0907 70.8807 61.7657 72.5557C63.4545 74.2469 65.8132 75.1782 68.4107 75.1782C73.3282 75.1782 75.7682 72.7982 77.637 69.1182L83.6695 74.6944L86.8295 71.2794L79.6557 64.6519V64.6519ZM66.582 50.0332C67.0207 49.5932 67.7245 49.3232 68.4107 49.3232C69.142 49.3232 69.8857 49.6157 70.357 50.0857C70.6832 50.4107 70.842 50.7794 70.842 51.2182C70.842 52.5244 70.2157 53.2357 68.5045 54.5007C67.0082 53.3032 66.0932 52.4682 66.0932 51.2182C66.0932 50.7532 66.2532 50.3632 66.582 50.0332ZM73.9608 66.0207C72.3558 69.5969 71.2157 70.5232 68.4107 70.5232C67.0332 70.5232 65.8757 70.0869 65.0532 69.2707C64.2445 68.4594 63.8195 67.3319 63.8195 66.0082C63.8195 63.5632 65.0757 62.5944 68.1695 60.4507C68.1858 60.4407 68.2033 60.4269 68.2145 60.4169L74.0532 65.8106L73.9608 66.0206V66.0207Z" fill="black"/>
<path d="M58.5868 78.907L38.4756 109.196H44.7018L48.9981 102.728H58.5868V109.211H63.7768V78.907H58.5868V78.907ZM52.4406 97.542L58.5868 88.2908V97.542H52.4406Z" fill="black"/>
<path d="M16.15 109.211V109.21L30.0137 88.3248V109.211H35.2012V109.21L55.315 78.9213H49.0862L35.2012 99.8275V78.9075H30.0137V78.9475L16.15 99.8275V78.9075H10.96V109.211H16.15V109.211Z" fill="black"/>
<path d="M127.322 78.907V91.107H117.956V78.907H112.77V109.206H117.956V96.2983H127.322V109.206H132.511V78.907H127.322Z" fill="black"/>
<path d="M82.7372 78.907H65.8047V84.0933H71.6784V109.206H76.8672V84.0933H82.7372V78.907Z" fill="black"/>
<path d="M105.438 101.04C103.445 103.253 100.564 104.642 97.3516 104.642C91.3391 104.642 86.4666 99.7708 86.4666 93.7633C86.4666 87.7533 91.3391 82.882 97.3516 82.882C100.513 82.882 103.362 84.3033 105.347 86.487H111.424C108.768 81.4345 103.462 77.8645 97.3516 77.8645C88.5716 77.8645 81.4541 84.9833 81.4541 93.7633C81.4541 102.542 88.5716 109.665 97.3516 109.665C103.505 109.665 108.84 106.155 111.483 101.04H105.438V101.04Z" fill="black"/>
<path d="M0.75 9.21161V110.795C0.75 110.795 0.749998 118.309 9.20035 118.309C17.4457 118.309 133.343 118.309 133.343 118.309C133.343 118.309 140.879 118.309 140.879 110.795C140.879 102.679 140.879 9.21161 140.879 9.21161C140.879 9.21161 140.879 0.75 133.343 0.75C125.81 0.75 9.20035 0.75 9.20035 0.75C9.20035 0.75 0.75 0.749999 0.75 9.21161Z" stroke="black" stroke-width="1.5"/>
</g>
<defs>
<clipPath id="clip0">
<rect width="142" height="119" fill="white"/>
</clipPath>
</defs>
</svg>
