<svg width="104" height="51" viewBox="0 0 104 51" fill="none" xmlns="http://www.w3.org/2000/svg">
<path d="M13.125 50H0.90625V14.5938H13.125V50ZM0.59375 5.78125C0.59375 3.94792 1.10417 2.58333 2.125 1.6875C3.14583 0.791667 4.79167 0.34375 7.0625 0.34375C9.33333 0.34375 10.9896 0.802083 12.0312 1.71875C13.0729 2.63542 13.5938 3.98958 13.5938 5.78125C13.5938 9.36458 11.4167 11.1562 7.0625 11.1562C2.75 11.1562 0.59375 9.36458 0.59375 5.78125ZM65.125 27.0938C65.125 34.7812 63.2396 40.625 59.4688 44.625C55.6979 48.625 50.1771 50.625 42.9062 50.625C35.7396 50.625 30.2396 48.6146 26.4062 44.5938C22.5938 40.5729 20.6875 34.7188 20.6875 27.0312C20.6875 19.4271 22.5833 13.625 26.375 9.625C30.1875 5.60417 35.7188 3.59375 42.9688 3.59375C50.2396 3.59375 55.75 5.58333 59.5 9.5625C63.25 13.5417 65.125 19.3854 65.125 27.0938ZM33.6875 27.0938C33.6875 35.9271 36.7604 40.3438 42.9062 40.3438C46.0312 40.3438 48.3438 39.2708 49.8438 37.125C51.3646 34.9792 52.125 31.6354 52.125 27.0938C52.125 22.5312 51.3542 19.1667 49.8125 17C48.2917 14.8125 46.0104 13.7188 42.9688 13.7188C36.7812 13.7188 33.6875 18.1771 33.6875 27.0938ZM103.25 36.125C103.25 38.9583 102.531 41.4792 101.094 43.6875C99.6562 45.875 97.5833 47.5833 94.875 48.8125C92.1667 50.0208 88.9896 50.625 85.3438 50.625C82.3021 50.625 79.75 50.4167 77.6875 50C75.625 49.5625 73.4792 48.8125 71.25 47.75V36.75C73.6042 37.9583 76.0521 38.9062 78.5938 39.5938C81.1354 40.2604 83.4688 40.5938 85.5938 40.5938C87.4271 40.5938 88.7708 40.2812 89.625 39.6562C90.4792 39.0104 90.9062 38.1875 90.9062 37.1875C90.9062 36.5625 90.7292 36.0208 90.375 35.5625C90.0417 35.0833 89.4896 34.6042 88.7188 34.125C87.9688 33.6458 85.9479 32.6667 82.6562 31.1875C79.6771 29.8333 77.4375 28.5208 75.9375 27.25C74.4583 25.9792 73.3542 24.5208 72.625 22.875C71.9167 21.2292 71.5625 19.2812 71.5625 17.0312C71.5625 12.8229 73.0938 9.54167 76.1562 7.1875C79.2188 4.83333 83.4271 3.65625 88.7812 3.65625C93.5104 3.65625 98.3333 4.75 103.25 6.9375L99.4688 16.4688C95.1979 14.5104 91.5104 13.5312 88.4062 13.5312C86.8021 13.5312 85.6354 13.8125 84.9062 14.375C84.1771 14.9375 83.8125 15.6354 83.8125 16.4688C83.8125 17.3646 84.2708 18.1667 85.1875 18.875C86.125 19.5833 88.6458 20.875 92.75 22.75C96.6875 24.5208 99.4167 26.4271 100.938 28.4688C102.479 30.4896 103.25 33.0417 103.25 36.125Z" fill="black"/>
</svg>
