<svg width="152" height="185" viewBox="0 0 152 185" fill="none" xmlns="http://www.w3.org/2000/svg">
<path d="M146.003 145.113C146.001 145.111 145.999 145.108 145.999 145.106C144.703 143.64 144.086 140.921 143.422 138.024C142.76 135.129 142.02 132.007 139.65 129.984C139.646 129.979 139.639 129.975 139.635 129.971C139.165 129.56 138.683 129.213 138.198 128.924C137.712 128.635 137.218 128.399 136.725 128.213C140.02 118.415 138.728 108.658 135.402 99.8428C131.322 89.0215 124.198 79.5944 118.757 73.1453C112.666 65.4393 106.71 58.1252 106.827 47.3211C107.008 30.8323 108.635 0.254799 79.7039 0.214117C78.5276 0.211976 77.3001 0.261222 76.0213 0.363996C43.6915 2.97403 52.2671 37.2321 51.7867 48.7021C51.1954 57.0911 49.5003 63.7029 43.747 71.9034C36.9902 79.9626 27.4731 93.0085 22.9665 106.59C20.8402 112.998 19.8283 119.53 20.7612 125.714C20.4688 125.977 20.1912 126.254 19.9244 126.536C17.9411 128.663 16.4745 131.236 14.8413 132.968C13.3149 134.497 11.1417 135.077 8.75067 135.936C6.35966 136.797 3.73595 138.064 2.14337 141.13C2.14337 141.13 2.14337 141.133 2.14123 141.133C2.1391 141.137 2.13696 141.143 2.1327 141.147C1.38337 142.55 1.14 144.064 1.14 145.599C1.14 147.018 1.34921 148.457 1.56056 149.842C2.00034 152.724 2.44652 155.45 1.85517 157.296C-0.0362934 162.484 -0.279664 166.07 1.05247 168.674C2.38887 171.282 5.13213 172.432 8.23404 173.082C14.4379 174.38 22.8384 174.059 29.4585 177.579L30.0285 176.502L29.4649 177.581C36.5526 181.298 43.7384 182.617 49.4704 181.304C53.6291 180.354 57.0021 177.87 58.7356 174.05C63.2188 174.029 68.1395 172.123 76.0213 171.689C81.3691 171.256 88.049 173.594 95.7322 173.166C95.9329 174.001 96.2235 174.806 96.6203 175.57C96.6248 175.577 96.6289 175.585 96.6333 175.592C99.6112 181.566 105.145 184.298 111.043 183.831C116.948 183.364 123.227 179.872 128.304 173.815L127.373 173.031L128.31 173.806C133.148 167.922 141.177 165.484 146.503 162.263C149.165 160.653 151.324 158.636 151.492 155.707C151.658 152.78 149.944 149.5 146.003 145.113Z" fill="black"/>
<path d="M149.062 155.568C148.96 157.375 147.656 158.718 145.245 160.174C140.429 163.088 131.892 165.623 126.442 172.245C121.707 177.896 115.934 180.998 110.851 181.401C105.768 181.803 101.383 179.688 98.7957 174.483L98.7912 174.472L98.785 174.459C97.1794 171.397 97.8476 166.569 99.199 161.473C100.55 156.38 102.493 151.147 102.753 146.896V146.883C103.027 141.437 103.332 136.679 104.243 133.007C105.157 129.335 106.594 126.851 109.139 125.453C109.258 125.389 109.376 125.327 109.493 125.269C109.781 129.986 112.11 134.799 116.226 135.839C120.731 137.03 127.223 133.155 129.964 129.992C130.512 129.97 131.046 129.943 131.565 129.93C133.971 129.872 135.986 130.011 138.049 131.818L138.055 131.825L138.061 131.829C139.645 133.176 140.399 135.72 141.052 138.567C141.706 141.417 142.226 144.52 144.186 146.731L144.188 146.734L144.191 146.738C147.957 150.928 149.167 153.759 149.062 155.568Z" fill="#D6A312"/>
<path d="M57.5316 168.924L57.5294 168.937V168.952C57.0939 174.678 53.8746 177.795 48.9303 178.928C43.9903 180.06 37.2891 178.932 30.5985 175.423C30.5964 175.423 30.5943 175.421 30.5921 175.421C23.1885 171.487 14.3824 171.879 8.73146 170.695C5.90708 170.104 4.06258 169.213 3.21719 167.561C2.3718 165.905 2.35258 163.021 4.15011 158.103L4.15865 158.082L4.16506 158.06C5.05528 155.309 4.39562 152.298 3.96438 149.472C3.53315 146.648 3.3218 144.077 4.28461 142.286L4.29315 142.269C5.52494 139.888 7.33101 139.036 9.57259 138.231C11.8163 137.424 14.4742 136.79 16.5727 134.679L16.5855 134.668L16.5962 134.658C18.5367 132.604 19.9948 130.028 21.7006 128.202C23.1394 126.66 24.5804 125.639 26.7516 125.624C26.7772 125.627 26.8007 125.627 26.8263 125.624C27.2063 125.627 27.6098 125.658 28.0367 125.725C30.9188 126.162 33.4315 128.183 35.8524 131.476L42.8418 144.252L42.8439 144.258L42.8482 144.263C44.7076 148.157 48.6357 152.442 51.9639 156.812C55.2921 161.18 57.8667 165.567 57.5316 168.924Z" fill="#D6A312"/>
<path d="M92.3891 49.822C91.8277 48.7193 90.6813 47.6701 88.73 46.8672L88.7257 46.8651L88.7193 46.8629C84.661 45.12 82.8998 44.9958 80.6347 43.5185C76.9479 41.1418 73.9015 40.3089 71.3696 40.3196C70.0438 40.3239 68.859 40.5594 67.798 40.9277C64.7132 41.9918 62.6658 44.2122 61.3828 45.4305L61.3807 45.4326C61.3807 45.4348 61.3785 45.4348 61.3785 45.4369C61.1266 45.6767 60.8021 45.8951 60.0165 46.4732C59.2245 47.0535 58.0375 47.9271 56.3297 49.2117C54.8118 50.353 54.3187 51.8389 54.8438 53.5796C55.3669 55.3204 57.0406 57.3288 60.1019 59.0652L60.1062 59.0695L60.1126 59.0716C62.0126 60.1914 63.3106 61.7009 64.8007 62.9021C65.5457 63.5016 66.3292 64.0369 67.2728 64.4416C68.2164 64.8463 69.318 65.1203 70.6971 65.2017C73.9335 65.3901 76.316 64.4159 78.4188 63.2083C80.5259 62.0028 82.3104 60.5276 84.3579 59.8617L84.3622 59.8596L84.3666 59.8574C88.5635 58.5428 91.5568 55.8942 92.4937 53.3784C92.9634 52.1194 92.9484 50.9246 92.3891 49.822Z" fill="#D6A312"/>
<path d="M81.7406 56.0355C78.4015 57.7811 74.5014 59.8981 70.3512 59.8981C66.2033 59.8981 62.9263 57.9754 60.5694 56.1019C59.391 55.1662 58.4346 54.2348 57.713 53.5582C56.4611 52.5671 56.6111 51.1769 57.1254 51.218C57.9876 51.3259 58.118 52.4644 58.6609 52.9737C59.3953 53.6631 60.3154 54.556 61.4298 55.4424C63.6585 57.2131 66.6302 58.9367 70.3512 58.9367C74.0658 58.9367 78.4021 56.7495 81.0489 55.2604C82.5484 54.4167 84.4565 52.9045 86.0138 51.7581C87.2052 50.881 87.1617 49.8248 88.1454 49.9398C89.1291 50.0548 88.4014 51.1088 87.0238 52.3146C85.6462 53.5204 83.4911 55.1204 81.7406 56.0355V56.0355Z" fill="#202020"/>
<path d="M132.87 127.498C132.407 127.481 131.95 127.483 131.506 127.494C131.465 127.496 131.424 127.496 131.382 127.496C132.528 123.864 129.992 121.186 123.233 118.12C116.224 115.028 110.64 115.334 109.696 121.608C109.636 121.935 109.587 122.271 109.551 122.61C109.026 122.794 108.501 123.025 107.971 123.314C104.681 125.121 102.884 128.397 101.885 132.418C100.888 136.435 100.6 141.289 100.326 146.747C100.326 146.749 100.326 146.749 100.326 146.751C100.158 149.494 99.0306 153.207 97.8906 157.138C86.4094 165.353 70.475 168.912 56.9445 159.649C56.0286 158.195 54.9762 156.754 53.8938 155.333C53.2021 154.425 52.4912 153.523 51.7867 152.633C53.1744 152.635 54.3549 152.406 55.3092 151.974C56.4962 151.432 57.3288 150.567 57.7429 149.453C58.567 147.229 57.7386 144.09 55.0979 140.503C52.4571 136.919 47.9846 132.874 41.4136 128.832C41.4136 128.832 41.4136 128.832 41.4136 128.83C36.5846 125.817 33.8862 122.126 32.6224 118.118C31.3564 114.107 31.5336 109.772 32.5092 105.492C34.3793 97.276 39.1827 89.2853 42.2483 84.2708C43.0724 83.6627 42.5429 85.4013 39.1443 91.7305C36.1 97.516 30.4064 110.868 38.2007 121.291C38.4099 113.874 40.1754 106.309 43.1407 99.233C47.4594 89.4159 56.4919 72.3875 57.2092 58.817C57.5807 59.0868 58.8509 59.9476 59.4166 60.2709C59.4188 60.273 59.4188 60.273 59.4209 60.273C61.0775 61.2515 62.3221 62.6818 63.9339 63.9815C65.55 65.2833 67.5674 66.4073 70.6159 66.5851C70.9084 66.6022 71.1945 66.6108 71.4741 66.6108C74.6166 66.6108 77.0674 65.583 79.1083 64.4118C81.3266 63.14 83.0983 61.7311 84.7786 61.183C84.7808 61.1809 84.7829 61.1809 84.785 61.1809C88.3353 60.0675 91.1554 58.0976 92.7606 55.8023C95.5188 66.705 101.932 82.453 106.054 90.1375C108.247 94.2142 112.606 102.877 114.489 113.315C115.682 113.279 116.997 113.452 118.404 113.814C123.329 101.008 114.229 87.2168 110.066 83.3756C108.386 81.7398 108.304 81.0075 109.139 81.0418C113.652 85.0478 119.58 93.1006 121.737 102.192C122.721 106.337 122.93 110.696 121.875 114.998C122.39 115.212 122.915 115.445 123.447 115.698C131.352 119.559 134.274 122.916 132.87 127.498Z" fill="white"/>
<path d="M92.7605 37.2621C92.7776 39.4225 92.4062 41.2617 91.5885 43.1395C91.1231 44.21 90.5875 45.1093 89.9449 45.8887C89.727 45.7838 89.5009 45.6831 89.2658 45.5868C88.4525 45.2378 87.733 44.9509 87.0885 44.7068C86.4436 44.4627 85.9404 44.2959 85.4214 44.1161C85.7974 43.66 86.538 43.1226 86.8136 42.4481C87.232 41.4311 87.4369 40.4376 87.4754 39.2536C87.4754 39.2065 87.4903 39.1658 87.4903 39.1101C87.5138 37.9753 87.3644 37.0054 87.0335 36.0119C86.6876 34.9692 86.2476 34.2198 85.6117 33.5967C84.9733 32.9736 84.3372 32.691 83.5729 32.6653C83.5366 32.6632 83.5024 32.6632 83.4662 32.6632C82.7488 32.6653 82.1255 32.9137 81.4805 33.4532C80.8038 34.0206 80.3021 34.7465 79.8839 35.7571C79.4676 36.7677 79.2627 37.7698 79.2219 38.9602C79.2157 39.0073 79.2157 39.048 79.2157 39.0951C79.2008 39.7503 79.2435 40.3498 79.3438 40.9322C77.875 40.1978 75.9959 39.6623 74.698 39.3518C74.6232 38.7887 74.5805 38.2085 74.5677 37.6004V37.4355C74.5442 35.2815 74.8965 33.4337 75.7227 31.5581C76.5489 29.6803 77.5714 28.3314 79.0101 27.233C80.4511 26.1368 81.8667 25.6336 83.5423 25.6165H83.6213C85.2609 25.6165 86.6635 26.1004 88.1045 27.1474C89.5668 28.2137 90.6214 29.5454 91.4711 31.4082C92.3037 33.2239 92.705 34.9989 92.7458 37.1036C92.7456 37.1593 92.7456 37.2064 92.7605 37.2621V37.2621Z" fill="white"/>
<path d="M67.9794 39.4139C67.7638 39.476 67.5546 39.5424 67.3475 39.613C66.1734 40.0199 65.2411 40.4688 64.3402 41.0662C64.4278 40.441 64.4406 39.8072 64.3722 39.0985C64.3658 39.06 64.3658 39.0278 64.3658 38.9893C64.2719 38.0493 64.0734 37.2614 63.7425 36.4649C63.3902 35.6363 62.9953 35.0518 62.4765 34.6021C62.0069 34.1953 61.5628 34.0069 61.0718 34.0112C61.0227 34.0112 60.9715 34.0133 60.9202 34.0176C60.3694 34.0647 59.9126 34.3345 59.4792 34.8633C59.048 35.3901 58.764 36.0452 58.5591 36.9145C58.3542 37.7817 58.3008 38.6339 58.3862 39.6124C58.3862 39.6509 58.3947 39.683 58.3947 39.7216C58.4887 40.6701 58.6787 41.458 59.016 42.2545C59.3618 43.0746 59.7631 43.6591 60.2819 44.1087C60.3694 44.1837 60.4548 44.2522 60.5402 44.3121C60.0022 44.7297 59.6408 45.0258 59.1968 45.3513C58.9128 45.559 58.5755 45.8073 58.1827 46.0985C57.3266 45.2935 56.6584 44.2828 56.0735 42.9489C55.3818 41.373 55.0125 39.795 54.9015 37.9323V37.9173C54.799 36.0545 54.9805 34.4529 55.4907 32.7957C56.003 31.1384 56.6862 29.9394 57.6789 28.9545C58.6694 27.9674 59.6685 27.4707 60.8726 27.4086C60.9665 27.4043 61.0583 27.4022 61.1501 27.4022C62.241 27.4043 63.2145 27.7683 64.2221 28.5755C65.3152 29.4512 66.1414 30.571 66.833 32.1491C67.5269 33.7271 67.8962 35.3051 67.9987 37.1679V37.1829C68.0478 37.9644 68.0414 38.7009 67.9794 39.4139V39.4139Z" fill="white"/>
<path d="M73.4567 43.8695C73.5948 44.3141 74.3091 44.2404 74.7219 44.4536C75.084 44.6407 75.3753 45.0508 75.7825 45.0626C76.1711 45.0738 76.776 44.9276 76.8265 44.5409C76.8933 44.0301 76.1496 43.7056 75.671 43.5184C75.0552 43.2776 74.2662 43.1554 73.6885 43.4776C73.5561 43.5514 73.4116 43.7245 73.4567 43.8695V43.8695Z" fill="#202020"/>
<path d="M69.2373 43.8695C69.0992 44.3141 68.3849 44.2404 67.9722 44.4536C67.61 44.6407 67.3187 45.0508 66.9115 45.0626C66.5229 45.0738 65.9181 44.9276 65.8675 44.5409C65.8007 44.0301 66.5444 43.7056 67.023 43.5184C67.6388 43.2776 68.4278 43.1554 69.0055 43.4776C69.1379 43.5514 69.2824 43.7245 69.2373 43.8695V43.8695Z" fill="#202020"/>
</svg>
