<svg width="1885" height="1882" viewBox="0 0 1885 1882" fill="none" xmlns="http://www.w3.org/2000/svg">
<path d="M942.864 207.523L726.65 593.394L942.864 510.541L1149.24 589.564L1204.51 527.537V106.061L942.864 207.523Z" fill="#0222A9"/>
<path d="M1614.57 1593.88L1224.05 1084.22V1758.06L942.864 1877V725.958L1224.05 618.273L1614.57 1176.43V466.783L1880.13 364.371V1482.35L1614.57 1593.88Z" fill="#011DA9"/>
<path d="M271.158 1593.88L520.306 1483.57L271.158 999.852V1593.88Z" fill="#0222A9"/>
<path d="M536.719 364.371L661.702 618.242L726.65 593.394L942.864 207.523L681.206 105.766L536.719 364.371ZM1149.24 589.563L1349.1 364.371L1614.57 466.783V1176.43L1224.05 618.273L1149.24 589.563Z" fill="#069330"/>
<path d="M271.158 466.783L5.60693 364.371V1482.35L271.158 1593.88V999.852L661.702 1758.06L942.864 1877V725.958L661.702 618.242V1202.58L271.158 466.783Z" fill="#069330"/>
<path d="M661.702 618.242V1202.58L271.158 466.783L536.719 364.371L661.702 618.242ZM1614.57 1593.88L1224.05 1084.22V1362.67L1303.8 1474.54L1614.57 1593.88Z" fill="#FE2015"/>
<path d="M1224.05 618.242L942.864 725.958L661.702 618.242L942.864 510.541L1224.05 618.242ZM1349 364.371L1614.57 262.21L1880.13 364.371L1614.57 466.783L1349 364.371ZM5.60693 364.371L271.158 262.21L536.719 364.371L271.158 466.783L5.60693 364.371ZM1204.51 106.061L942.864 5.0166L681.205 105.766L942.864 207.523L1204.51 106.061Z" fill="#FFC001"/>
</svg>
