<svg width="914" height="488" viewBox="0 0 914 488" fill="none" xmlns="http://www.w3.org/2000/svg">
<path d="M663.789 437.354C686.658 446.376 734.916 453.693 772.568 453.693C813.796 453.693 830.904 439.54 830.904 421.784C830.904 405.852 815.028 396.488 769.493 379.797C708.629 357.298 663.993 339.597 663.993 299.62C663.993 258.217 717.697 233.865 799.615 233.865C843.593 233.865 858.691 236.644 886.636 241.766L886.831 281.049C859.405 275.834 835.09 266.868 797.318 266.868C756.85 266.868 739.612 279.715 739.612 292.96C739.612 312.18 766.159 321.369 812.768 337.976C877.624 361.198 913.711 379.111 913.711 418.255C913.711 458.528 868.528 487.603 766.603 487.603C724.737 487.603 695.884 484.843 663.789 479.684V437.354Z" fill="#332D2B"/>
<path d="M446.823 268.579H398.325V452.19H446.823C521.285 452.19 568.255 420.355 568.255 360.76C568.255 301.183 521.285 268.579 446.823 268.579ZM577.055 469.298C553.037 480.163 507.669 487.055 467.97 487.055H316.36V234.41H467.97C507.669 234.41 553.037 241.394 577.073 252.231C635.464 278.592 654.526 320.783 654.526 360.76C654.526 400.765 635.64 442.891 577.055 469.298" fill="#332D2B"/>
<path d="M210.082 348.809C210.082 348.809 280.81 337.481 280.81 293.446C280.81 250.403 205.497 232.795 125.367 232.795C53.0447 232.795 5.50006 241.632 5.50006 241.632V280.738C38.3265 272.8 69.7172 266.039 112.51 266.039C158.434 266.039 193.483 279.738 193.483 299.097C193.483 322.438 158.823 335.767 84.2316 335.767H49.951V370.955H81.7956C160.37 370.955 205.052 382.774 205.052 411.618C205.052 437.368 165.131 453.012 115.354 453.012C71.9495 453.012 32.241 443.768 0.0351562 434.83V477.011C15.5036 479.67 56.5459 487.913 132.99 487.913C217.668 487.913 291.351 460.682 291.351 412.683C291.351 372.428 240.305 348.809 210.082 348.809Z" fill="#D12228"/>
<path d="M98.8775 208.658C92.7616 200.646 85.201 187.771 80.53 177.415C78.7988 173.577 78.5347 172.562 79.0537 171.744C79.4999 171.04 126.397 151.788 127.184 151.985C127.707 152.116 128.452 153.351 130.261 157.082C133.755 164.29 137.267 170.236 141.627 176.326C142.514 177.565 142.756 178.16 142.609 178.745C142.33 179.855 102.662 210.207 101.265 210.378C100.384 210.486 100.138 210.31 98.8775 208.658Z" fill="#05AAE7"/>
<path d="M66.7172 127.031C65.0378 125.176 64.3902 100.996 65.6879 88.5974C66.1795 83.9 66.434 83.0123 67.3744 82.7138C67.9558 82.5293 117.23 88.9331 118.244 89.325C119.262 89.7182 119.415 90.5119 119.038 93.445C118.592 96.9108 118.577 113.245 119.016 116.875C119.375 119.843 119.088 120.813 117.759 121.127C116.773 121.359 68.6917 127.586 67.881 127.586C67.5171 127.586 66.9934 127.336 66.7172 127.031H66.7172Z" fill="#A9C701"/>
<path d="M102.965 48.3943C90.3652 43.139 79.8392 38.6593 79.5743 38.4395C79.3095 38.2197 79.0928 37.7686 79.0928 37.4372C79.0928 36.5142 83.739 26.7453 86.7822 21.2697C89.9547 15.5614 93.0266 10.6265 96.6612 5.39922C99.7126 1.01076 100.596 -0.00262509 101.366 5.10153e-06C101.678 0.000958402 110.438 6.5354 120.835 14.5207C143.554 31.9721 142.416 31.0539 142.409 31.9162C142.405 32.2944 141.292 34.1868 139.935 36.1214C136.449 41.0898 134.201 44.9236 130.734 51.8119C127.906 57.4307 127.659 57.811 126.796 57.878C126.185 57.9254 118.155 54.7297 102.965 48.3943Z" fill="#E5001D"/>
<path d="M816.685 123.875C794.139 120.865 793.129 120.703 792.563 120.004C792.125 119.463 792.017 118.989 792.147 118.175C792.476 116.122 792.926 108.465 792.927 104.907C792.927 101.44 792.472 93.6834 792.155 91.78C792.046 91.1293 792.17 90.6075 792.54 90.1585C793.043 89.5469 794.971 89.2514 817.848 86.278C835.097 84.0362 842.779 83.1493 843.165 83.3554C843.85 83.7224 843.991 84.1593 844.355 87.0483C845.439 95.668 845.519 111.244 844.529 121.216C843.978 126.757 843.805 127.106 841.632 127.051C840.854 127.032 829.627 125.603 816.685 123.875V123.875Z" fill="#F4A901"/>
<path d="M789.081 192.916C772.425 180.109 769.351 177.626 769.269 176.918C769.197 176.298 769.645 175.414 770.994 173.516C775.068 167.784 778.849 161.298 781.936 154.747C783.265 151.926 783.794 151.1 784.364 150.957C784.891 150.825 791.236 153.33 807.377 160.043C819.634 165.141 830.06 169.517 830.545 169.768C831.924 170.481 831.929 171.311 830.568 174.403C826.406 183.862 820.082 194.939 813.792 203.791C811.252 207.365 810.527 208.106 809.586 208.09C809.027 208.08 803.024 203.638 789.081 192.916H789.081Z" fill="#C7007B"/>
<path d="M783.955 58.7945C783.693 58.4884 782.356 55.9506 780.985 53.1551C778.222 47.521 774.594 41.3349 771.53 37.0334C770.275 35.2704 769.52 33.9044 769.52 33.3961C769.519 32.6819 771.927 30.7385 789.158 17.5422C803.477 6.57554 809.056 2.47065 809.756 2.38567C810.66 2.27595 810.851 2.4543 813.033 5.45556C819.458 14.2941 826.521 26.6552 830.815 36.579C831.765 38.7733 831.806 39.0003 831.373 39.6595C831.022 40.1952 825.34 42.6724 808.386 49.6812C796 54.8018 785.543 59.0723 785.149 59.1712C784.671 59.2912 784.274 59.1656 783.955 58.7945V58.7945Z" fill="#008663"/>
<path fill-rule="evenodd" clip-rule="evenodd" d="M611.649 26.571V26.573H611.097V138.731C611.133 144.139 595.005 150.94 591.099 151.169C589.332 151.171 589.565 151.17 587.798 151.169C579.848 150.872 571.623 145.901 567.247 138.731V26.573H528.239V138.731C529.803 162.928 559.237 182.798 587.673 186.413C587.674 186.413 587.676 186.413 587.677 186.413C587.695 186.415 587.713 186.418 587.732 186.421C588.858 186.407 590.025 186.418 591.165 186.421C605.342 184.63 619.771 178.792 630.876 170.393C641.967 178.782 656.371 184.613 670.53 186.413C670.531 186.413 670.535 186.413 670.536 186.413C670.555 186.415 670.573 186.418 670.591 186.421C671.718 186.407 672.884 186.418 674.025 186.421C702.478 182.826 731.952 162.945 733.517 138.731V26.571H694.507V138.731C690.131 145.901 681.906 150.872 673.956 151.169C672.189 151.172 672.422 151.171 670.656 151.169C662.981 150.882 655.06 146.233 650.583 139.462C650.741 101.908 650.657 64.1841 650.657 26.571L611.649 26.571Z" fill="black"/>
<path fill-rule="evenodd" clip-rule="evenodd" d="M281.877 181.463L280.477 90.2112C277.508 68.3853 256.845 62.4281 246.86 62.1521C244.64 62.1491 244.933 62.1501 242.714 62.1521C232.729 62.4281 214.982 67.0247 208.708 90.2112L208.708 181.462H170.714V77.2115C172.678 54.7208 204.998 28.6918 240.713 25.3322C244.92 25.0899 245.822 25.6452 247.574 25.6001C283.311 28.9412 316.306 54.7057 318.271 77.2118L318.271 181.464L281.877 181.463Z" fill="black"/>
<path fill-rule="evenodd" clip-rule="evenodd" d="M424.716 24.5827C378.766 24.5826 341.516 61.3453 341.517 106.694C341.517 152.042 378.767 188.804 424.716 188.803C456.008 188.803 484.654 171.475 498.854 143.956H453.026C444.652 148.989 434.845 151.68 424.813 151.7C396.404 151.7 373.374 130.716 373.374 104.831C373.374 78.9456 396.404 57.9616 424.813 57.9616C436.701 57.9743 448.946 60.3603 456.637 68.0511C464.229 75.6417 465.288 82.7014 465.581 93.9225H402.409V121.964H472.642C490.473 122.133 498.587 116.906 501.73 103.67C501.73 80.9957 498.603 63.4918 483.547 48.6325C468.491 33.7733 447.691 24.5827 424.716 24.5827H424.716Z" fill="black"/>
</svg>
