<svg width="76" height="48" viewBox="0 0 76 48" fill="none" xmlns="http://www.w3.org/2000/svg">
<path d="M34.0938 15.8438C34.0938 20.9479 32.5833 24.8958 29.5625 27.6875C26.5625 30.4583 22.2917 31.8438 16.75 31.8438H13.2812V47H0.9375V1.3125H16.75C22.5208 1.3125 26.8542 2.57292 29.75 5.09375C32.6458 7.61458 34.0938 11.1979 34.0938 15.8438ZM13.2812 21.7812H15.5312C17.3854 21.7812 18.8542 21.2604 19.9375 20.2188C21.0417 19.1771 21.5938 17.7396 21.5938 15.9062C21.5938 12.8229 19.8854 11.2812 16.4688 11.2812H13.2812V21.7812ZM61.7188 10.7812C58.7812 10.7812 56.4896 11.9896 54.8438 14.4062C53.1979 16.8021 52.375 20.1146 52.375 24.3438C52.375 33.1354 55.7188 37.5312 62.4062 37.5312C64.4271 37.5312 66.3854 37.25 68.2812 36.6875C70.1771 36.125 72.0833 35.4479 74 34.6562V45.0938C70.1875 46.7812 65.875 47.625 61.0625 47.625C54.1667 47.625 48.875 45.625 45.1875 41.625C41.5208 37.625 39.6875 31.8438 39.6875 24.2812C39.6875 19.5521 40.5729 15.3958 42.3438 11.8125C44.1354 8.22917 46.6979 5.47917 50.0312 3.5625C53.3854 1.625 57.3229 0.65625 61.8438 0.65625C66.7812 0.65625 71.5 1.72917 76 3.875L72.2188 13.5938C70.5312 12.8021 68.8438 12.1354 67.1562 11.5938C65.4688 11.0521 63.6562 10.7812 61.7188 10.7812Z" fill="black"/>
</svg>
