<svg width="75" height="75" viewBox="0 0 75 75" fill="none" xmlns="http://www.w3.org/2000/svg">
<path fill-rule="evenodd" clip-rule="evenodd" d="M7.15405 32.3491H25.3826V37.7546H7.87505V42.4391H7.15405V37.0336H24.6622V33.0702H7.15405V32.3491Z" fill="#1F1A17"/>
<path fill-rule="evenodd" clip-rule="evenodd" d="M65.6657 41.682V42.4391H47.4373V37.0336H64.9437V33.0702H47.4373V32.3491H65.6657V37.7546H48.1583V41.7181H65.6657V42.4391V41.682Z" fill="#1F1A17"/>
<path fill-rule="evenodd" clip-rule="evenodd" d="M34.6812 32.3491V41.7181H25.3828V42.4391H35.4373V33.0702H44.7357V32.3491H34.6812Z" fill="#1F1A17"/>
<path fill-rule="evenodd" clip-rule="evenodd" d="M7.15405 32.3491H25.3826V32.4279H7.15405V32.3491Z" fill="#33438A"/>
<path fill-rule="evenodd" clip-rule="evenodd" d="M7.15405 32.4279H25.3826V32.5067H7.15405V32.4279Z" fill="#33438A"/>
<path fill-rule="evenodd" clip-rule="evenodd" d="M7.15405 32.5067H25.3826V32.5856H7.15405V32.5067Z" fill="#33448B"/>
<path fill-rule="evenodd" clip-rule="evenodd" d="M7.15405 32.5856H25.3826V32.6644H7.15405V32.5856Z" fill="#32458C"/>
<path fill-rule="evenodd" clip-rule="evenodd" d="M7.15405 32.6644H25.3826V32.7432H7.15405V32.6644Z" fill="#32458C"/>
<path fill-rule="evenodd" clip-rule="evenodd" d="M7.15405 32.7432H25.3826V32.8221H7.15405V32.7432Z" fill="#31468D"/>
<path fill-rule="evenodd" clip-rule="evenodd" d="M7.15405 32.8221H25.3826V32.9009H7.15405V32.8221Z" fill="#31488E"/>
<path fill-rule="evenodd" clip-rule="evenodd" d="M7.15405 32.9009H25.3826V32.9797H7.15405V32.9009Z" fill="#31488E"/>
<path fill-rule="evenodd" clip-rule="evenodd" d="M7.15405 32.9797H25.3826V33.0585H7.15405V32.9797Z" fill="#30498F"/>
<path fill-rule="evenodd" clip-rule="evenodd" d="M7.15405 33.0585H25.3826V33.1374H24.6622V33.0702H7.15405V33.0585Z" fill="#30498F"/>
<path fill-rule="evenodd" clip-rule="evenodd" d="M24.6624 33.1375H25.3828V33.2163H24.6624V33.1375Z" fill="#2F4A90"/>
<path fill-rule="evenodd" clip-rule="evenodd" d="M24.6624 33.2162H25.3828V33.295H24.6624V33.2162Z" fill="#2F4A90"/>
<path fill-rule="evenodd" clip-rule="evenodd" d="M24.6624 33.295H25.3828V33.3739H24.6624V33.295Z" fill="#2E4C91"/>
<path fill-rule="evenodd" clip-rule="evenodd" d="M24.6624 33.3739H25.3828V33.4527H24.6624V33.3739Z" fill="#2B4C92"/>
<path fill-rule="evenodd" clip-rule="evenodd" d="M24.6624 33.4526H25.3828V33.5314H24.6624V33.4526Z" fill="#2B4C92"/>
<path fill-rule="evenodd" clip-rule="evenodd" d="M24.6624 33.5315H25.3828V33.6103H24.6624V33.5315Z" fill="#2A4E93"/>
<path fill-rule="evenodd" clip-rule="evenodd" d="M24.6624 33.6104H25.3828V33.6893H24.6624V33.6104Z" fill="#294F94"/>
<path fill-rule="evenodd" clip-rule="evenodd" d="M24.6624 33.6892H25.3828V33.768H24.6624V33.6892Z" fill="#294F94"/>
<path fill-rule="evenodd" clip-rule="evenodd" d="M24.6624 33.7679H25.3828V33.8467H24.6624V33.7679Z" fill="#285095"/>
<path fill-rule="evenodd" clip-rule="evenodd" d="M24.6624 33.8468H25.3828V33.9257H24.6624V33.8468Z" fill="#285095"/>
<path fill-rule="evenodd" clip-rule="evenodd" d="M24.6624 33.9257H25.3828V34.0045H24.6624V33.9257Z" fill="#275196"/>
<path fill-rule="evenodd" clip-rule="evenodd" d="M24.6624 34.0045H25.3828V34.0833H24.6624V34.0045Z" fill="#275196"/>
<path fill-rule="evenodd" clip-rule="evenodd" d="M24.6624 34.0833H25.3828V34.1621H24.6624V34.0833Z" fill="#265297"/>
<path fill-rule="evenodd" clip-rule="evenodd" d="M24.6624 34.1622H25.3828V34.241H24.6624V34.1622Z" fill="#265297"/>
<path fill-rule="evenodd" clip-rule="evenodd" d="M24.6624 34.241H25.3828V34.3198H24.6624V34.241Z" fill="#255398"/>
<path fill-rule="evenodd" clip-rule="evenodd" d="M24.6624 34.3198H25.3828V34.3986H24.6624V34.3198Z" fill="#245599"/>
<path fill-rule="evenodd" clip-rule="evenodd" d="M24.6624 34.3986H25.3828V34.4775H24.6624V34.3986Z" fill="#245599"/>
<path fill-rule="evenodd" clip-rule="evenodd" d="M24.6624 34.4775H25.3828V34.5563H24.6624V34.4775Z" fill="#23569A"/>
<path fill-rule="evenodd" clip-rule="evenodd" d="M24.6624 34.5563H25.3828V34.6351H24.6624V34.5563Z" fill="#22579B"/>
<path fill-rule="evenodd" clip-rule="evenodd" d="M24.6624 34.6351H25.3828V34.714H24.6624V34.6351Z" fill="#22579B"/>
<path fill-rule="evenodd" clip-rule="evenodd" d="M24.6624 34.714H25.3828V34.7928H24.6624V34.714Z" fill="#20599C"/>
<path fill-rule="evenodd" clip-rule="evenodd" d="M24.6624 34.7928H25.3828V34.8716H24.6624V34.7928Z" fill="#20599C"/>
<path fill-rule="evenodd" clip-rule="evenodd" d="M24.6624 34.8716H25.3828V34.9504H24.6624V34.8716Z" fill="#1E599D"/>
<path fill-rule="evenodd" clip-rule="evenodd" d="M24.6624 34.9504H25.3828V35.0293H24.6624V34.9504Z" fill="#1E599D"/>
<path fill-rule="evenodd" clip-rule="evenodd" d="M24.6624 35.0293H25.3828V35.1081H24.6624V35.0293Z" fill="#1C5B9E"/>
<path fill-rule="evenodd" clip-rule="evenodd" d="M24.6624 35.108H25.3828V35.1868H24.6624V35.108Z" fill="#1C5B9E"/>
<path fill-rule="evenodd" clip-rule="evenodd" d="M24.6624 35.1869H25.3828V35.2658H24.6624V35.1869Z" fill="#1B5C9F"/>
<path fill-rule="evenodd" clip-rule="evenodd" d="M24.6624 35.2657H25.3828V35.3445H24.6624V35.2657Z" fill="#185DA0"/>
<path fill-rule="evenodd" clip-rule="evenodd" d="M24.6624 35.3446H25.3828V35.4234H24.6624V35.3446Z" fill="#185DA0"/>
<path fill-rule="evenodd" clip-rule="evenodd" d="M24.6624 35.4233H25.3828V35.5022H24.6624V35.4233Z" fill="#165EA1"/>
<path fill-rule="evenodd" clip-rule="evenodd" d="M24.6624 35.5023H25.3828V35.5811H24.6624V35.5023Z" fill="#135FA2"/>
<path fill-rule="evenodd" clip-rule="evenodd" d="M24.6624 35.5811H25.3828V35.6599H24.6624V35.5811Z" fill="#135FA2"/>
<path fill-rule="evenodd" clip-rule="evenodd" d="M24.6624 35.6599H25.3828V35.7387H24.6624V35.6599Z" fill="#1160A3"/>
<path fill-rule="evenodd" clip-rule="evenodd" d="M24.6624 35.7386H25.3828V35.8175H24.6624V35.7386Z" fill="#0D62A4"/>
<path fill-rule="evenodd" clip-rule="evenodd" d="M24.6624 35.8176H25.3828V35.8964H24.6624V35.8176Z" fill="#0D62A4"/>
<path fill-rule="evenodd" clip-rule="evenodd" d="M24.6624 35.8964H25.3828V35.9752H24.6624V35.8964Z" fill="#0863A5"/>
<path fill-rule="evenodd" clip-rule="evenodd" d="M24.6624 35.9752H25.3828V36.0541H24.6624V35.9752Z" fill="#0863A5"/>
<path fill-rule="evenodd" clip-rule="evenodd" d="M24.6624 36.0541H25.3828V36.1329H24.6624V36.0541Z" fill="#0464A6"/>
<path fill-rule="evenodd" clip-rule="evenodd" d="M24.6624 36.1329H25.3828V36.2117H24.6624V36.1329Z" fill="#0464A6"/>
<path fill-rule="evenodd" clip-rule="evenodd" d="M24.6624 36.2117H25.3828V36.2905H24.6624V36.2117Z" fill="#0065A7"/>
<path fill-rule="evenodd" clip-rule="evenodd" d="M24.6624 36.2905H25.3828V36.3694H24.6624V36.2905Z" fill="#0065A8"/>
<path fill-rule="evenodd" clip-rule="evenodd" d="M24.6624 36.3694H25.3828V36.4482H24.6624V36.3694Z" fill="#0065A8"/>
<path fill-rule="evenodd" clip-rule="evenodd" d="M24.6624 36.4482H25.3828V36.527H24.6624V36.4482Z" fill="#0067A9"/>
<path fill-rule="evenodd" clip-rule="evenodd" d="M24.6624 36.527H25.3828V36.6059H24.6624V36.527Z" fill="#0067A9"/>
<path fill-rule="evenodd" clip-rule="evenodd" d="M24.6624 36.6058H25.3828V36.6846H24.6624V36.6058Z" fill="#0068AA"/>
<path fill-rule="evenodd" clip-rule="evenodd" d="M24.6624 36.6847H25.3828V36.7635H24.6624V36.6847Z" fill="#0069AB"/>
<path fill-rule="evenodd" clip-rule="evenodd" d="M24.6624 36.7634H25.3828V36.8422H24.6624V36.7634Z" fill="#0069AB"/>
<path fill-rule="evenodd" clip-rule="evenodd" d="M24.6624 36.8423H25.3828V36.9212H24.6624V36.8423Z" fill="#006AAC"/>
<path fill-rule="evenodd" clip-rule="evenodd" d="M24.6624 36.9211H25.3828V36.9999H24.6624V36.9211Z" fill="#006AAC"/>
<path fill-rule="evenodd" clip-rule="evenodd" d="M24.6622 37H25.3826V37.0788H7.15405V37.0336H24.6622V37Z" fill="#006BAD"/>
<path fill-rule="evenodd" clip-rule="evenodd" d="M7.15405 37.0787H25.3826V37.1576H7.15405V37.0787Z" fill="#006BAD"/>
<path fill-rule="evenodd" clip-rule="evenodd" d="M7.15405 37.1577H25.3826V37.2365H7.15405V37.1577Z" fill="#006CAF"/>
<path fill-rule="evenodd" clip-rule="evenodd" d="M7.15405 37.2365H25.3826V37.3153H7.15405V37.2365Z" fill="#006DAF"/>
<path fill-rule="evenodd" clip-rule="evenodd" d="M7.15405 37.3153H25.3826V37.3942H7.15405V37.3153Z" fill="#006DAF"/>
<path fill-rule="evenodd" clip-rule="evenodd" d="M7.15405 37.3942H25.3826V37.473H7.15405V37.3942Z" fill="#006FB1"/>
<path fill-rule="evenodd" clip-rule="evenodd" d="M7.15405 37.473H25.3826V37.5518H7.15405V37.473Z" fill="#006FB2"/>
<path fill-rule="evenodd" clip-rule="evenodd" d="M7.15405 37.5518H25.3826V37.6306H7.15405V37.5518Z" fill="#006FB2"/>
<path fill-rule="evenodd" clip-rule="evenodd" d="M7.15405 37.6306H25.3826V37.7095H7.15405V37.6306Z" fill="#0071B3"/>
<path fill-rule="evenodd" clip-rule="evenodd" d="M7.15405 37.7095H25.3826V37.7546H7.87505V37.7883H7.15405V37.7095Z" fill="#0071B3"/>
<path fill-rule="evenodd" clip-rule="evenodd" d="M7.15405 37.7882H7.87505V37.8671H7.15405V37.7882Z" fill="#0072B4"/>
<path fill-rule="evenodd" clip-rule="evenodd" d="M7.15405 37.8671H7.87505V37.9459H7.15405V37.8671Z" fill="#0072B4"/>
<path fill-rule="evenodd" clip-rule="evenodd" d="M7.15405 37.9459H7.87505V38.0247H7.15405V37.9459Z" fill="#0073B5"/>
<path fill-rule="evenodd" clip-rule="evenodd" d="M7.15405 38.0248H7.87505V38.1036H7.15405V38.0248Z" fill="#0073B5"/>
<path fill-rule="evenodd" clip-rule="evenodd" d="M7.15405 38.1036H7.87505V38.1824H7.15405V38.1036Z" fill="#0074B6"/>
<path fill-rule="evenodd" clip-rule="evenodd" d="M7.15405 38.1824H7.87505V38.2612H7.15405V38.1824Z" fill="#0075B7"/>
<path fill-rule="evenodd" clip-rule="evenodd" d="M7.15405 38.2612H7.87505V38.34H7.15405V38.2612Z" fill="#0075B7"/>
<path fill-rule="evenodd" clip-rule="evenodd" d="M7.15405 38.3401H7.87505V38.419H7.15405V38.3401Z" fill="#0075B8"/>
<path fill-rule="evenodd" clip-rule="evenodd" d="M7.15405 38.4189H7.87505V38.4978H7.15405V38.4189Z" fill="#0077B9"/>
<path fill-rule="evenodd" clip-rule="evenodd" d="M7.15405 38.4978H7.87505V38.5766H7.15405V38.4978Z" fill="#0077B9"/>
<path fill-rule="evenodd" clip-rule="evenodd" d="M7.15405 38.5765H7.87505V38.6553H7.15405V38.5765Z" fill="#0078BB"/>
<path fill-rule="evenodd" clip-rule="evenodd" d="M7.15405 38.6554H7.87505V38.7343H7.15405V38.6554Z" fill="#0078BB"/>
<path fill-rule="evenodd" clip-rule="evenodd" d="M7.15405 38.7343H7.87505V38.813H7.15405V38.7343Z" fill="#0079BB"/>
<path fill-rule="evenodd" clip-rule="evenodd" d="M7.15405 38.8131H7.87505V38.8919H7.15405V38.8131Z" fill="#0079BB"/>
<path fill-rule="evenodd" clip-rule="evenodd" d="M7.15405 38.8918H7.87505V38.9707H7.15405V38.8918Z" fill="#007ABD"/>
<path fill-rule="evenodd" clip-rule="evenodd" d="M7.15405 38.9707H7.87505V39.0496H7.15405V38.9707Z" fill="#007BBE"/>
<path fill-rule="evenodd" clip-rule="evenodd" d="M7.15405 39.0496H7.87505V39.1283H7.15405V39.0496Z" fill="#007BBE"/>
<path fill-rule="evenodd" clip-rule="evenodd" d="M7.15405 39.1284H7.87505V39.2072H7.15405V39.1284Z" fill="#007CBF"/>
<path fill-rule="evenodd" clip-rule="evenodd" d="M7.15405 39.2072H7.87505V39.2861H7.15405V39.2072Z" fill="#007CBF"/>
<path fill-rule="evenodd" clip-rule="evenodd" d="M7.15405 39.2861H7.87505V39.3649H7.15405V39.2861Z" fill="#007DC0"/>
<path fill-rule="evenodd" clip-rule="evenodd" d="M7.15405 39.3649H7.87505V39.4436H7.15405V39.3649Z" fill="#007FC2"/>
<path fill-rule="evenodd" clip-rule="evenodd" d="M7.15405 39.4436H7.87505V39.5224H7.15405V39.4436Z" fill="#007FC2"/>
<path fill-rule="evenodd" clip-rule="evenodd" d="M7.15405 39.5225H7.87505V39.6014H7.15405V39.5225Z" fill="#0080C3"/>
<path fill-rule="evenodd" clip-rule="evenodd" d="M7.15405 39.6014H7.87505V39.6802H7.15405V39.6014Z" fill="#0080C3"/>
<path fill-rule="evenodd" clip-rule="evenodd" d="M7.15405 39.6802H7.87505V39.759H7.15405V39.6802Z" fill="#0081C4"/>
<path fill-rule="evenodd" clip-rule="evenodd" d="M7.15405 39.7589H7.87505V39.8379H7.15405V39.7589Z" fill="#0081C4"/>
<path fill-rule="evenodd" clip-rule="evenodd" d="M7.15405 39.8379H7.87505V39.9167H7.15405V39.8379Z" fill="#0082C6"/>
<path fill-rule="evenodd" clip-rule="evenodd" d="M7.15405 39.9167H7.87505V39.9955H7.15405V39.9167Z" fill="#0083C7"/>
<path fill-rule="evenodd" clip-rule="evenodd" d="M7.15405 39.9955H7.87505V40.0744H7.15405V39.9955Z" fill="#0083C7"/>
<path fill-rule="evenodd" clip-rule="evenodd" d="M7.15405 40.0745H7.87505V40.1532H7.15405V40.0745Z" fill="#0085C8"/>
<path fill-rule="evenodd" clip-rule="evenodd" d="M7.15405 40.1532H7.87505V40.232H7.15405V40.1532Z" fill="#0085C9"/>
<path fill-rule="evenodd" clip-rule="evenodd" d="M7.15405 40.2319H7.87505V40.3107H7.15405V40.2319Z" fill="#0085C9"/>
<path fill-rule="evenodd" clip-rule="evenodd" d="M7.15405 40.3108H7.87505V40.3897H7.15405V40.3108Z" fill="#0087CB"/>
<path fill-rule="evenodd" clip-rule="evenodd" d="M7.15405 40.3898H7.87505V40.4685H7.15405V40.3898Z" fill="#0087CB"/>
<path fill-rule="evenodd" clip-rule="evenodd" d="M7.15405 40.4685H7.87505V40.5473H7.15405V40.4685Z" fill="#0088CC"/>
<path fill-rule="evenodd" clip-rule="evenodd" d="M7.15405 40.5472H7.87505V40.6261H7.15405V40.5472Z" fill="#0088CC"/>
<path fill-rule="evenodd" clip-rule="evenodd" d="M7.15405 40.6261H7.87505V40.705H7.15405V40.6261Z" fill="#0089CD"/>
<path fill-rule="evenodd" clip-rule="evenodd" d="M7.15405 40.705H7.87505V40.7837H7.15405V40.705Z" fill="#0089CD"/>
<path fill-rule="evenodd" clip-rule="evenodd" d="M7.15405 40.7838H7.87505V40.8626H7.15405V40.7838Z" fill="#008ACE"/>
<path fill-rule="evenodd" clip-rule="evenodd" d="M7.15405 40.8625H7.87505V40.9415H7.15405V40.8625Z" fill="#008BD0"/>
<path fill-rule="evenodd" clip-rule="evenodd" d="M7.15405 40.9415H7.87505V41.0203H7.15405V40.9415Z" fill="#008BD0"/>
<path fill-rule="evenodd" clip-rule="evenodd" d="M7.15405 41.0203H7.87505V41.099H7.15405V41.0203Z" fill="#008CD1"/>
<path fill-rule="evenodd" clip-rule="evenodd" d="M7.15405 41.0991H7.87505V41.178H7.15405V41.0991Z" fill="#008ED3"/>
<path fill-rule="evenodd" clip-rule="evenodd" d="M7.15405 41.178H7.87505V41.2568H7.15405V41.178Z" fill="#008ED3"/>
<path fill-rule="evenodd" clip-rule="evenodd" d="M7.15405 41.2568H7.87505V41.3356H7.15405V41.2568Z" fill="#008ED4"/>
<path fill-rule="evenodd" clip-rule="evenodd" d="M7.15405 41.3356H7.87505V41.4144H7.15405V41.3356Z" fill="#008ED4"/>
<path fill-rule="evenodd" clip-rule="evenodd" d="M7.15405 41.4144H7.87505V41.4933H7.15405V41.4144Z" fill="#008FD5"/>
<path fill-rule="evenodd" clip-rule="evenodd" d="M7.15405 41.4933H7.87505V41.5722H7.15405V41.4933Z" fill="#008FD5"/>
<path fill-rule="evenodd" clip-rule="evenodd" d="M7.15405 41.5721H7.87505V41.6509H7.15405V41.5721Z" fill="#0091D7"/>
<path fill-rule="evenodd" clip-rule="evenodd" d="M7.15405 41.6509H7.87505V41.7297H7.15405V41.6509Z" fill="#0092D8"/>
<path fill-rule="evenodd" clip-rule="evenodd" d="M7.15405 41.7297H7.87505V41.8086H7.15405V41.7297Z" fill="#0092D8"/>
<path fill-rule="evenodd" clip-rule="evenodd" d="M7.15405 41.8086H7.87505V41.8874H7.15405V41.8086Z" fill="#0093DA"/>
<path fill-rule="evenodd" clip-rule="evenodd" d="M7.15405 41.8875H7.87505V41.9663H7.15405V41.8875Z" fill="#0093DA"/>
<path fill-rule="evenodd" clip-rule="evenodd" d="M7.15405 41.9663H7.87505V42.0451H7.15405V41.9663Z" fill="#0094DB"/>
<path fill-rule="evenodd" clip-rule="evenodd" d="M7.15405 42.045H7.87505V42.1239H7.15405V42.045Z" fill="#0095DD"/>
<path fill-rule="evenodd" clip-rule="evenodd" d="M7.15405 42.1239H7.87505V42.2027H7.15405V42.1239Z" fill="#0095DD"/>
<path fill-rule="evenodd" clip-rule="evenodd" d="M7.15405 42.2026H7.87505V42.2815H7.15405V42.2026Z" fill="#0096DE"/>
<path fill-rule="evenodd" clip-rule="evenodd" d="M7.15405 42.2816H7.87505V42.3604H7.15405V42.2816Z" fill="#0096DE"/>
<path fill-rule="evenodd" clip-rule="evenodd" d="M7.15405 42.3604H7.87505V42.4391H7.15405V42.3604Z" fill="#0098DF"/>
<path fill-rule="evenodd" clip-rule="evenodd" d="M47.4373 32.3491H65.6657V32.4279H47.4373V32.3491Z" fill="#33438A"/>
<path fill-rule="evenodd" clip-rule="evenodd" d="M47.4373 32.4279H65.6657V32.5067H47.4373V32.4279Z" fill="#33438A"/>
<path fill-rule="evenodd" clip-rule="evenodd" d="M47.4373 32.5067H65.6657V32.5856H47.4373V32.5067Z" fill="#33448B"/>
<path fill-rule="evenodd" clip-rule="evenodd" d="M47.4373 32.5856H65.6657V32.6644H47.4373V32.5856Z" fill="#32458C"/>
<path fill-rule="evenodd" clip-rule="evenodd" d="M47.4373 32.6644H65.6657V32.7432H47.4373V32.6644Z" fill="#32458C"/>
<path fill-rule="evenodd" clip-rule="evenodd" d="M47.4373 32.7432H65.6657V32.8221H47.4373V32.7432Z" fill="#31468D"/>
<path fill-rule="evenodd" clip-rule="evenodd" d="M47.4373 32.8221H65.6657V32.9009H47.4373V32.8221Z" fill="#31488E"/>
<path fill-rule="evenodd" clip-rule="evenodd" d="M47.4373 32.9009H65.6657V32.9797H47.4373V32.9009Z" fill="#31488E"/>
<path fill-rule="evenodd" clip-rule="evenodd" d="M47.4373 32.9797H65.6657V33.0585H47.4373V32.9797Z" fill="#30498F"/>
<path fill-rule="evenodd" clip-rule="evenodd" d="M47.4373 33.0585H65.6657V33.1374H64.9437V33.0702H47.4373V33.0585Z" fill="#30498F"/>
<path fill-rule="evenodd" clip-rule="evenodd" d="M64.9436 33.1375H65.6655V33.2163H64.9436V33.1375Z" fill="#2F4A90"/>
<path fill-rule="evenodd" clip-rule="evenodd" d="M64.9436 33.2162H65.6655V33.295H64.9436V33.2162Z" fill="#2F4A90"/>
<path fill-rule="evenodd" clip-rule="evenodd" d="M64.9436 33.295H65.6655V33.3739H64.9436V33.295Z" fill="#2E4C91"/>
<path fill-rule="evenodd" clip-rule="evenodd" d="M64.9436 33.3739H65.6655V33.4527H64.9436V33.3739Z" fill="#2B4C92"/>
<path fill-rule="evenodd" clip-rule="evenodd" d="M64.9436 33.4526H65.6655V33.5314H64.9436V33.4526Z" fill="#2B4C92"/>
<path fill-rule="evenodd" clip-rule="evenodd" d="M64.9436 33.5315H65.6655V33.6103H64.9436V33.5315Z" fill="#2A4E93"/>
<path fill-rule="evenodd" clip-rule="evenodd" d="M64.9436 33.6104H65.6655V33.6893H64.9436V33.6104Z" fill="#294F94"/>
<path fill-rule="evenodd" clip-rule="evenodd" d="M64.9436 33.6892H65.6655V33.768H64.9436V33.6892Z" fill="#294F94"/>
<path fill-rule="evenodd" clip-rule="evenodd" d="M64.9436 33.7679H65.6655V33.8467H64.9436V33.7679Z" fill="#285095"/>
<path fill-rule="evenodd" clip-rule="evenodd" d="M64.9436 33.8468H65.6655V33.9257H64.9436V33.8468Z" fill="#285095"/>
<path fill-rule="evenodd" clip-rule="evenodd" d="M64.9436 33.9257H65.6655V34.0045H64.9436V33.9257Z" fill="#275196"/>
<path fill-rule="evenodd" clip-rule="evenodd" d="M64.9436 34.0045H65.6655V34.0833H64.9436V34.0045Z" fill="#275196"/>
<path fill-rule="evenodd" clip-rule="evenodd" d="M64.9436 34.0833H65.6655V34.1621H64.9436V34.0833Z" fill="#265297"/>
<path fill-rule="evenodd" clip-rule="evenodd" d="M64.9436 34.1622H65.6655V34.241H64.9436V34.1622Z" fill="#265297"/>
<path fill-rule="evenodd" clip-rule="evenodd" d="M64.9436 34.241H65.6655V34.3198H64.9436V34.241Z" fill="#255398"/>
<path fill-rule="evenodd" clip-rule="evenodd" d="M64.9436 34.3198H65.6655V34.3986H64.9436V34.3198Z" fill="#245599"/>
<path fill-rule="evenodd" clip-rule="evenodd" d="M64.9436 34.3986H65.6655V34.4775H64.9436V34.3986Z" fill="#245599"/>
<path fill-rule="evenodd" clip-rule="evenodd" d="M64.9436 34.4775H65.6655V34.5563H64.9436V34.4775Z" fill="#23569A"/>
<path fill-rule="evenodd" clip-rule="evenodd" d="M64.9436 34.5563H65.6655V34.6351H64.9436V34.5563Z" fill="#22579B"/>
<path fill-rule="evenodd" clip-rule="evenodd" d="M64.9436 34.6351H65.6655V34.714H64.9436V34.6351Z" fill="#22579B"/>
<path fill-rule="evenodd" clip-rule="evenodd" d="M64.9436 34.714H65.6655V34.7928H64.9436V34.714Z" fill="#20599C"/>
<path fill-rule="evenodd" clip-rule="evenodd" d="M64.9436 34.7928H65.6655V34.8716H64.9436V34.7928Z" fill="#20599C"/>
<path fill-rule="evenodd" clip-rule="evenodd" d="M64.9436 34.8716H65.6655V34.9504H64.9436V34.8716Z" fill="#1E599D"/>
<path fill-rule="evenodd" clip-rule="evenodd" d="M64.9436 34.9504H65.6655V35.0293H64.9436V34.9504Z" fill="#1E599D"/>
<path fill-rule="evenodd" clip-rule="evenodd" d="M64.9436 35.0293H65.6655V35.1081H64.9436V35.0293Z" fill="#1C5B9E"/>
<path fill-rule="evenodd" clip-rule="evenodd" d="M64.9436 35.108H65.6655V35.1868H64.9436V35.108Z" fill="#1C5B9E"/>
<path fill-rule="evenodd" clip-rule="evenodd" d="M64.9436 35.1869H65.6655V35.2658H64.9436V35.1869Z" fill="#1B5C9F"/>
<path fill-rule="evenodd" clip-rule="evenodd" d="M64.9436 35.2657H65.6655V35.3445H64.9436V35.2657Z" fill="#185DA0"/>
<path fill-rule="evenodd" clip-rule="evenodd" d="M64.9436 35.3446H65.6655V35.4234H64.9436V35.3446Z" fill="#185DA0"/>
<path fill-rule="evenodd" clip-rule="evenodd" d="M64.9436 35.4233H65.6655V35.5022H64.9436V35.4233Z" fill="#165EA1"/>
<path fill-rule="evenodd" clip-rule="evenodd" d="M64.9436 35.5023H65.6655V35.5811H64.9436V35.5023Z" fill="#135FA2"/>
<path fill-rule="evenodd" clip-rule="evenodd" d="M64.9436 35.5811H65.6655V35.6599H64.9436V35.5811Z" fill="#135FA2"/>
<path fill-rule="evenodd" clip-rule="evenodd" d="M64.9436 35.6599H65.6655V35.7387H64.9436V35.6599Z" fill="#1160A3"/>
<path fill-rule="evenodd" clip-rule="evenodd" d="M64.9436 35.7386H65.6655V35.8175H64.9436V35.7386Z" fill="#0D62A4"/>
<path fill-rule="evenodd" clip-rule="evenodd" d="M64.9436 35.8176H65.6655V35.8964H64.9436V35.8176Z" fill="#0D62A4"/>
<path fill-rule="evenodd" clip-rule="evenodd" d="M64.9436 35.8964H65.6655V35.9752H64.9436V35.8964Z" fill="#0863A5"/>
<path fill-rule="evenodd" clip-rule="evenodd" d="M64.9436 35.9752H65.6655V36.0541H64.9436V35.9752Z" fill="#0863A5"/>
<path fill-rule="evenodd" clip-rule="evenodd" d="M64.9436 36.0541H65.6655V36.1329H64.9436V36.0541Z" fill="#0464A6"/>
<path fill-rule="evenodd" clip-rule="evenodd" d="M64.9436 36.1329H65.6655V36.2117H64.9436V36.1329Z" fill="#0464A6"/>
<path fill-rule="evenodd" clip-rule="evenodd" d="M64.9436 36.2117H65.6655V36.2905H64.9436V36.2117Z" fill="#0065A7"/>
<path fill-rule="evenodd" clip-rule="evenodd" d="M64.9436 36.2905H65.6655V36.3694H64.9436V36.2905Z" fill="#0065A8"/>
<path fill-rule="evenodd" clip-rule="evenodd" d="M64.9436 36.3694H65.6655V36.4482H64.9436V36.3694Z" fill="#0065A8"/>
<path fill-rule="evenodd" clip-rule="evenodd" d="M64.9436 36.4482H65.6655V36.527H64.9436V36.4482Z" fill="#0067A9"/>
<path fill-rule="evenodd" clip-rule="evenodd" d="M64.9436 36.527H65.6655V36.6059H64.9436V36.527Z" fill="#0067A9"/>
<path fill-rule="evenodd" clip-rule="evenodd" d="M64.9436 36.6058H65.6655V36.6846H64.9436V36.6058Z" fill="#0068AA"/>
<path fill-rule="evenodd" clip-rule="evenodd" d="M64.9436 36.6847H65.6655V36.7635H64.9436V36.6847Z" fill="#0069AB"/>
<path fill-rule="evenodd" clip-rule="evenodd" d="M64.9436 36.7634H65.6655V36.8422H64.9436V36.7634Z" fill="#0069AB"/>
<path fill-rule="evenodd" clip-rule="evenodd" d="M64.9436 36.8423H65.6655V36.9212H64.9436V36.8423Z" fill="#006AAC"/>
<path fill-rule="evenodd" clip-rule="evenodd" d="M64.9436 36.9211H65.6655V36.9999H64.9436V36.9211Z" fill="#006AAC"/>
<path fill-rule="evenodd" clip-rule="evenodd" d="M64.9437 37H65.6657V37.0788H47.4373V37.0336H64.9437V37Z" fill="#006BAD"/>
<path fill-rule="evenodd" clip-rule="evenodd" d="M47.4373 37.0787H65.6657V37.1576H47.4373V37.0787Z" fill="#006BAD"/>
<path fill-rule="evenodd" clip-rule="evenodd" d="M47.4373 37.1577H65.6657V37.2365H47.4373V37.1577Z" fill="#006CAF"/>
<path fill-rule="evenodd" clip-rule="evenodd" d="M47.4373 37.2365H65.6657V37.3153H47.4373V37.2365Z" fill="#006DAF"/>
<path fill-rule="evenodd" clip-rule="evenodd" d="M47.4373 37.3153H65.6657V37.3942H47.4373V37.3153Z" fill="#006DAF"/>
<path fill-rule="evenodd" clip-rule="evenodd" d="M47.4373 37.3942H65.6657V37.473H47.4373V37.3942Z" fill="#006FB1"/>
<path fill-rule="evenodd" clip-rule="evenodd" d="M47.4373 37.473H65.6657V37.5518H47.4373V37.473Z" fill="#006FB2"/>
<path fill-rule="evenodd" clip-rule="evenodd" d="M47.4373 37.5518H65.6657V37.6306H47.4373V37.5518Z" fill="#006FB2"/>
<path fill-rule="evenodd" clip-rule="evenodd" d="M47.4373 37.6306H65.6657V37.7095H47.4373V37.6306Z" fill="#0071B3"/>
<path fill-rule="evenodd" clip-rule="evenodd" d="M47.4373 37.7095H65.6657V37.7546H48.1583V37.7883H47.4373V37.7095Z" fill="#0071B3"/>
<path fill-rule="evenodd" clip-rule="evenodd" d="M47.4373 37.7882H48.1583V37.8671H47.4373V37.7882Z" fill="#0072B4"/>
<path fill-rule="evenodd" clip-rule="evenodd" d="M47.4373 37.8671H48.1583V37.9459H47.4373V37.8671Z" fill="#0072B4"/>
<path fill-rule="evenodd" clip-rule="evenodd" d="M47.4373 37.9459H48.1583V38.0247H47.4373V37.9459Z" fill="#0073B5"/>
<path fill-rule="evenodd" clip-rule="evenodd" d="M47.4373 38.0248H48.1583V38.1036H47.4373V38.0248Z" fill="#0073B5"/>
<path fill-rule="evenodd" clip-rule="evenodd" d="M47.4373 38.1036H48.1583V38.1824H47.4373V38.1036Z" fill="#0074B6"/>
<path fill-rule="evenodd" clip-rule="evenodd" d="M47.4373 38.1824H48.1583V38.2612H47.4373V38.1824Z" fill="#0075B7"/>
<path fill-rule="evenodd" clip-rule="evenodd" d="M47.4373 38.2612H48.1583V38.34H47.4373V38.2612Z" fill="#0075B7"/>
<path fill-rule="evenodd" clip-rule="evenodd" d="M47.4373 38.3401H48.1583V38.419H47.4373V38.3401Z" fill="#0075B8"/>
<path fill-rule="evenodd" clip-rule="evenodd" d="M47.4373 38.4189H48.1583V38.4978H47.4373V38.4189Z" fill="#0077B9"/>
<path fill-rule="evenodd" clip-rule="evenodd" d="M47.4373 38.4978H48.1583V38.5766H47.4373V38.4978Z" fill="#0077B9"/>
<path fill-rule="evenodd" clip-rule="evenodd" d="M47.4373 38.5765H48.1583V38.6553H47.4373V38.5765Z" fill="#0078BB"/>
<path fill-rule="evenodd" clip-rule="evenodd" d="M47.4373 38.6554H48.1583V38.7343H47.4373V38.6554Z" fill="#0078BB"/>
<path fill-rule="evenodd" clip-rule="evenodd" d="M47.4373 38.7343H48.1583V38.813H47.4373V38.7343Z" fill="#0079BB"/>
<path fill-rule="evenodd" clip-rule="evenodd" d="M47.4373 38.8131H48.1583V38.8919H47.4373V38.8131Z" fill="#0079BB"/>
<path fill-rule="evenodd" clip-rule="evenodd" d="M47.4373 38.8918H48.1583V38.9707H47.4373V38.8918Z" fill="#007ABD"/>
<path fill-rule="evenodd" clip-rule="evenodd" d="M47.4373 38.9707H48.1583V39.0496H47.4373V38.9707Z" fill="#007BBE"/>
<path fill-rule="evenodd" clip-rule="evenodd" d="M47.4373 39.0496H48.1583V39.1283H47.4373V39.0496Z" fill="#007BBE"/>
<path fill-rule="evenodd" clip-rule="evenodd" d="M47.4373 39.1284H48.1583V39.2072H47.4373V39.1284Z" fill="#007CBF"/>
<path fill-rule="evenodd" clip-rule="evenodd" d="M47.4373 39.2072H48.1583V39.2861H47.4373V39.2072Z" fill="#007CBF"/>
<path fill-rule="evenodd" clip-rule="evenodd" d="M47.4373 39.2861H48.1583V39.3649H47.4373V39.2861Z" fill="#007DC0"/>
<path fill-rule="evenodd" clip-rule="evenodd" d="M47.4373 39.3649H48.1583V39.4436H47.4373V39.3649Z" fill="#007FC2"/>
<path fill-rule="evenodd" clip-rule="evenodd" d="M47.4373 39.4436H48.1583V39.5224H47.4373V39.4436Z" fill="#007FC2"/>
<path fill-rule="evenodd" clip-rule="evenodd" d="M47.4373 39.5225H48.1583V39.6014H47.4373V39.5225Z" fill="#0080C3"/>
<path fill-rule="evenodd" clip-rule="evenodd" d="M47.4373 39.6014H48.1583V39.6802H47.4373V39.6014Z" fill="#0080C3"/>
<path fill-rule="evenodd" clip-rule="evenodd" d="M47.4373 39.6802H48.1583V39.759H47.4373V39.6802Z" fill="#0081C4"/>
<path fill-rule="evenodd" clip-rule="evenodd" d="M47.4373 39.7589H48.1583V39.8379H47.4373V39.7589Z" fill="#0081C4"/>
<path fill-rule="evenodd" clip-rule="evenodd" d="M47.4373 39.8379H48.1583V39.9167H47.4373V39.8379Z" fill="#0082C6"/>
<path fill-rule="evenodd" clip-rule="evenodd" d="M47.4373 39.9167H48.1583V39.9955H47.4373V39.9167Z" fill="#0083C7"/>
<path fill-rule="evenodd" clip-rule="evenodd" d="M47.4373 39.9955H48.1583V40.0744H47.4373V39.9955Z" fill="#0083C7"/>
<path fill-rule="evenodd" clip-rule="evenodd" d="M47.4373 40.0745H48.1583V40.1532H47.4373V40.0745Z" fill="#0085C8"/>
<path fill-rule="evenodd" clip-rule="evenodd" d="M47.4373 40.1532H48.1583V40.232H47.4373V40.1532Z" fill="#0085C9"/>
<path fill-rule="evenodd" clip-rule="evenodd" d="M47.4373 40.2319H48.1583V40.3107H47.4373V40.2319Z" fill="#0085C9"/>
<path fill-rule="evenodd" clip-rule="evenodd" d="M47.4373 40.3108H48.1583V40.3897H47.4373V40.3108Z" fill="#0087CB"/>
<path fill-rule="evenodd" clip-rule="evenodd" d="M47.4373 40.3898H48.1583V40.4685H47.4373V40.3898Z" fill="#0087CB"/>
<path fill-rule="evenodd" clip-rule="evenodd" d="M47.4373 40.4685H48.1583V40.5473H47.4373V40.4685Z" fill="#0088CC"/>
<path fill-rule="evenodd" clip-rule="evenodd" d="M47.4373 40.5472H48.1583V40.6261H47.4373V40.5472Z" fill="#0088CC"/>
<path fill-rule="evenodd" clip-rule="evenodd" d="M47.4373 40.6261H48.1583V40.705H47.4373V40.6261Z" fill="#0089CD"/>
<path fill-rule="evenodd" clip-rule="evenodd" d="M47.4373 40.705H48.1583V40.7837H47.4373V40.705Z" fill="#0089CD"/>
<path fill-rule="evenodd" clip-rule="evenodd" d="M47.4373 40.7838H48.1583V40.8626H47.4373V40.7838Z" fill="#008ACE"/>
<path fill-rule="evenodd" clip-rule="evenodd" d="M47.4373 40.8625H48.1583V40.9415H47.4373V40.8625Z" fill="#008BD0"/>
<path fill-rule="evenodd" clip-rule="evenodd" d="M47.4373 40.9415H48.1583V41.0203H47.4373V40.9415Z" fill="#008BD0"/>
<path fill-rule="evenodd" clip-rule="evenodd" d="M47.4373 41.0203H48.1583V41.099H47.4373V41.0203Z" fill="#008CD1"/>
<path fill-rule="evenodd" clip-rule="evenodd" d="M47.4373 41.0991H48.1583V41.178H47.4373V41.0991Z" fill="#008ED3"/>
<path fill-rule="evenodd" clip-rule="evenodd" d="M47.4373 41.178H48.1583V41.2568H47.4373V41.178Z" fill="#008ED3"/>
<path fill-rule="evenodd" clip-rule="evenodd" d="M47.4373 41.2568H48.1583V41.3356H47.4373V41.2568Z" fill="#008ED4"/>
<path fill-rule="evenodd" clip-rule="evenodd" d="M47.4373 41.3356H48.1583V41.4144H47.4373V41.3356Z" fill="#008ED4"/>
<path fill-rule="evenodd" clip-rule="evenodd" d="M47.4373 41.4144H48.1583V41.4933H47.4373V41.4144Z" fill="#008FD5"/>
<path fill-rule="evenodd" clip-rule="evenodd" d="M47.4373 41.4933H48.1583V41.5722H47.4373V41.4933Z" fill="#008FD5"/>
<path fill-rule="evenodd" clip-rule="evenodd" d="M47.4373 41.5721H48.1583V41.6509H47.4373V41.5721Z" fill="#0091D7"/>
<path fill-rule="evenodd" clip-rule="evenodd" d="M47.4371 41.6509H48.1582V41.7181H65.6654V41.7298H47.437V41.6509H47.4371ZM65.6655 41.682V41.7181Z" fill="#0092D8"/>
<path fill-rule="evenodd" clip-rule="evenodd" d="M47.4373 41.7297H65.6657V41.8086H47.4373V41.7297Z" fill="#0092D8"/>
<path fill-rule="evenodd" clip-rule="evenodd" d="M47.4373 41.8086H65.6657V41.8874H47.4373V41.8086Z" fill="#0093DA"/>
<path fill-rule="evenodd" clip-rule="evenodd" d="M47.4373 41.8875H65.6657V41.9663H47.4373V41.8875Z" fill="#0093DA"/>
<path fill-rule="evenodd" clip-rule="evenodd" d="M47.4373 41.9663H65.6657V42.0451H47.4373V41.9663Z" fill="#0094DB"/>
<path fill-rule="evenodd" clip-rule="evenodd" d="M47.4373 42.045H65.6657V42.1239H47.4373V42.045Z" fill="#0095DD"/>
<path fill-rule="evenodd" clip-rule="evenodd" d="M47.4373 42.1239H65.6657V42.2027H47.4373V42.1239Z" fill="#0095DD"/>
<path fill-rule="evenodd" clip-rule="evenodd" d="M47.4373 42.2026H65.6657V42.2815H47.4373V42.2026Z" fill="#0096DE"/>
<path fill-rule="evenodd" clip-rule="evenodd" d="M47.4373 42.2816H65.6657V42.3604H47.4373V42.2816Z" fill="#0096DE"/>
<path fill-rule="evenodd" clip-rule="evenodd" d="M47.4373 42.3604H65.6657V42.4391H47.4373V42.3604Z" fill="#0098DF"/>
<path fill-rule="evenodd" clip-rule="evenodd" d="M34.6812 32.3491H44.7357V32.4279H34.6812V32.3491Z" fill="#33438A"/>
<path fill-rule="evenodd" clip-rule="evenodd" d="M34.6812 32.4279H44.7357V32.5067H34.6812V32.4279Z" fill="#33438A"/>
<path fill-rule="evenodd" clip-rule="evenodd" d="M34.6812 32.5067H44.7357V32.5856H34.6812V32.5067Z" fill="#33448B"/>
<path fill-rule="evenodd" clip-rule="evenodd" d="M34.6812 32.5856H44.7357V32.6644H34.6812V32.5856Z" fill="#32458C"/>
<path fill-rule="evenodd" clip-rule="evenodd" d="M34.6812 32.6644H44.7357V32.7432H34.6812V32.6644Z" fill="#32458C"/>
<path fill-rule="evenodd" clip-rule="evenodd" d="M34.6812 32.7432H44.7357V32.8221H34.6812V32.7432Z" fill="#31468D"/>
<path fill-rule="evenodd" clip-rule="evenodd" d="M34.6812 32.8221H44.7357V32.9009H34.6812V32.8221Z" fill="#31488E"/>
<path fill-rule="evenodd" clip-rule="evenodd" d="M34.6812 32.9009H44.7357V32.9797H34.6812V32.9009Z" fill="#31488E"/>
<path fill-rule="evenodd" clip-rule="evenodd" d="M34.6812 32.9797H44.7357V33.0585H34.6812V32.9797Z" fill="#30498F"/>
<path fill-rule="evenodd" clip-rule="evenodd" d="M34.6812 33.0585H44.7357V33.0702H35.4372V33.1374H34.6812V33.0585Z" fill="#30498F"/>
<path fill-rule="evenodd" clip-rule="evenodd" d="M34.6812 33.1375H35.4372V33.2163H34.6812V33.1375Z" fill="#2F4A90"/>
<path fill-rule="evenodd" clip-rule="evenodd" d="M34.6812 33.2162H35.4372V33.295H34.6812V33.2162Z" fill="#2F4A90"/>
<path fill-rule="evenodd" clip-rule="evenodd" d="M34.6812 33.295H35.4372V33.3739H34.6812V33.295Z" fill="#2E4C91"/>
<path fill-rule="evenodd" clip-rule="evenodd" d="M34.6812 33.3739H35.4372V33.4527H34.6812V33.3739Z" fill="#2B4C92"/>
<path fill-rule="evenodd" clip-rule="evenodd" d="M34.6812 33.4526H35.4372V33.5314H34.6812V33.4526Z" fill="#2B4C92"/>
<path fill-rule="evenodd" clip-rule="evenodd" d="M34.6812 33.5315H35.4372V33.6103H34.6812V33.5315Z" fill="#2A4E93"/>
<path fill-rule="evenodd" clip-rule="evenodd" d="M34.6812 33.6104H35.4372V33.6893H34.6812V33.6104Z" fill="#294F94"/>
<path fill-rule="evenodd" clip-rule="evenodd" d="M34.6812 33.6892H35.4372V33.768H34.6812V33.6892Z" fill="#294F94"/>
<path fill-rule="evenodd" clip-rule="evenodd" d="M34.6812 33.7679H35.4372V33.8467H34.6812V33.7679Z" fill="#285095"/>
<path fill-rule="evenodd" clip-rule="evenodd" d="M34.6812 33.8468H35.4372V33.9257H34.6812V33.8468Z" fill="#285095"/>
<path fill-rule="evenodd" clip-rule="evenodd" d="M34.6812 33.9257H35.4372V34.0045H34.6812V33.9257Z" fill="#275196"/>
<path fill-rule="evenodd" clip-rule="evenodd" d="M34.6812 34.0045H35.4372V34.0833H34.6812V34.0045Z" fill="#275196"/>
<path fill-rule="evenodd" clip-rule="evenodd" d="M34.6812 34.0833H35.4372V34.1621H34.6812V34.0833Z" fill="#265297"/>
<path fill-rule="evenodd" clip-rule="evenodd" d="M34.6812 34.1622H35.4372V34.241H34.6812V34.1622Z" fill="#265297"/>
<path fill-rule="evenodd" clip-rule="evenodd" d="M34.6812 34.241H35.4372V34.3198H34.6812V34.241Z" fill="#255398"/>
<path fill-rule="evenodd" clip-rule="evenodd" d="M34.6812 34.3198H35.4372V34.3986H34.6812V34.3198Z" fill="#245599"/>
<path fill-rule="evenodd" clip-rule="evenodd" d="M34.6812 34.3986H35.4372V34.4775H34.6812V34.3986Z" fill="#245599"/>
<path fill-rule="evenodd" clip-rule="evenodd" d="M34.6812 34.4775H35.4372V34.5563H34.6812V34.4775Z" fill="#23569A"/>
<path fill-rule="evenodd" clip-rule="evenodd" d="M34.6812 34.5563H35.4372V34.6351H34.6812V34.5563Z" fill="#22579B"/>
<path fill-rule="evenodd" clip-rule="evenodd" d="M34.6812 34.6351H35.4372V34.714H34.6812V34.6351Z" fill="#22579B"/>
<path fill-rule="evenodd" clip-rule="evenodd" d="M34.6812 34.714H35.4372V34.7928H34.6812V34.714Z" fill="#20599C"/>
<path fill-rule="evenodd" clip-rule="evenodd" d="M34.6812 34.7928H35.4372V34.8716H34.6812V34.7928Z" fill="#20599C"/>
<path fill-rule="evenodd" clip-rule="evenodd" d="M34.6812 34.8716H35.4372V34.9504H34.6812V34.8716Z" fill="#1E599D"/>
<path fill-rule="evenodd" clip-rule="evenodd" d="M34.6812 34.9504H35.4372V35.0293H34.6812V34.9504Z" fill="#1E599D"/>
<path fill-rule="evenodd" clip-rule="evenodd" d="M34.6812 35.0293H35.4372V35.1081H34.6812V35.0293Z" fill="#1C5B9E"/>
<path fill-rule="evenodd" clip-rule="evenodd" d="M34.6812 35.108H35.4372V35.1868H34.6812V35.108Z" fill="#1C5B9E"/>
<path fill-rule="evenodd" clip-rule="evenodd" d="M34.6812 35.1869H35.4372V35.2658H34.6812V35.1869Z" fill="#1B5C9F"/>
<path fill-rule="evenodd" clip-rule="evenodd" d="M34.6812 35.2657H35.4372V35.3445H34.6812V35.2657Z" fill="#185DA0"/>
<path fill-rule="evenodd" clip-rule="evenodd" d="M34.6812 35.3446H35.4372V35.4234H34.6812V35.3446Z" fill="#185DA0"/>
<path fill-rule="evenodd" clip-rule="evenodd" d="M34.6812 35.4233H35.4372V35.5022H34.6812V35.4233Z" fill="#165EA1"/>
<path fill-rule="evenodd" clip-rule="evenodd" d="M34.6812 35.5023H35.4372V35.5811H34.6812V35.5023Z" fill="#135FA2"/>
<path fill-rule="evenodd" clip-rule="evenodd" d="M34.6812 35.5811H35.4372V35.6599H34.6812V35.5811Z" fill="#135FA2"/>
<path fill-rule="evenodd" clip-rule="evenodd" d="M34.6812 35.6599H35.4372V35.7387H34.6812V35.6599Z" fill="#1160A3"/>
<path fill-rule="evenodd" clip-rule="evenodd" d="M34.6812 35.7386H35.4372V35.8175H34.6812V35.7386Z" fill="#0D62A4"/>
<path fill-rule="evenodd" clip-rule="evenodd" d="M34.6812 35.8176H35.4372V35.8964H34.6812V35.8176Z" fill="#0D62A4"/>
<path fill-rule="evenodd" clip-rule="evenodd" d="M34.6812 35.8964H35.4372V35.9752H34.6812V35.8964Z" fill="#0863A5"/>
<path fill-rule="evenodd" clip-rule="evenodd" d="M34.6812 35.9752H35.4372V36.0541H34.6812V35.9752Z" fill="#0863A5"/>
<path fill-rule="evenodd" clip-rule="evenodd" d="M34.6812 36.0541H35.4372V36.1329H34.6812V36.0541Z" fill="#0464A6"/>
<path fill-rule="evenodd" clip-rule="evenodd" d="M34.6812 36.1329H35.4372V36.2117H34.6812V36.1329Z" fill="#0464A6"/>
<path fill-rule="evenodd" clip-rule="evenodd" d="M34.6812 36.2117H35.4372V36.2905H34.6812V36.2117Z" fill="#0065A7"/>
<path fill-rule="evenodd" clip-rule="evenodd" d="M34.6812 36.2905H35.4372V36.3694H34.6812V36.2905Z" fill="#0065A8"/>
<path fill-rule="evenodd" clip-rule="evenodd" d="M34.6812 36.3694H35.4372V36.4482H34.6812V36.3694Z" fill="#0065A8"/>
<path fill-rule="evenodd" clip-rule="evenodd" d="M34.6812 36.4482H35.4372V36.527H34.6812V36.4482Z" fill="#0067A9"/>
<path fill-rule="evenodd" clip-rule="evenodd" d="M34.6812 36.527H35.4372V36.6059H34.6812V36.527Z" fill="#0067A9"/>
<path fill-rule="evenodd" clip-rule="evenodd" d="M34.6812 36.6058H35.4372V36.6846H34.6812V36.6058Z" fill="#0068AA"/>
<path fill-rule="evenodd" clip-rule="evenodd" d="M34.6812 36.6847H35.4372V36.7635H34.6812V36.6847Z" fill="#0069AB"/>
<path fill-rule="evenodd" clip-rule="evenodd" d="M34.6812 36.7634H35.4372V36.8422H34.6812V36.7634Z" fill="#0069AB"/>
<path fill-rule="evenodd" clip-rule="evenodd" d="M34.6812 36.8423H35.4372V36.9212H34.6812V36.8423Z" fill="#006AAC"/>
<path fill-rule="evenodd" clip-rule="evenodd" d="M34.6812 36.9211H35.4372V36.9999H34.6812V36.9211Z" fill="#006AAC"/>
<path fill-rule="evenodd" clip-rule="evenodd" d="M34.6812 37H35.4372V37.0788H34.6812V37Z" fill="#006BAD"/>
<path fill-rule="evenodd" clip-rule="evenodd" d="M34.6812 37.0787H35.4372V37.1576H34.6812V37.0787Z" fill="#006BAD"/>
<path fill-rule="evenodd" clip-rule="evenodd" d="M34.6812 37.1577H35.4372V37.2365H34.6812V37.1577Z" fill="#006CAF"/>
<path fill-rule="evenodd" clip-rule="evenodd" d="M34.6812 37.2365H35.4372V37.3153H34.6812V37.2365Z" fill="#006DAF"/>
<path fill-rule="evenodd" clip-rule="evenodd" d="M34.6812 37.3153H35.4372V37.3942H34.6812V37.3153Z" fill="#006DAF"/>
<path fill-rule="evenodd" clip-rule="evenodd" d="M34.6812 37.3942H35.4372V37.473H34.6812V37.3942Z" fill="#006FB1"/>
<path fill-rule="evenodd" clip-rule="evenodd" d="M34.6812 37.473H35.4372V37.5518H34.6812V37.473Z" fill="#006FB2"/>
<path fill-rule="evenodd" clip-rule="evenodd" d="M34.6812 37.5518H35.4372V37.6306H34.6812V37.5518Z" fill="#006FB2"/>
<path fill-rule="evenodd" clip-rule="evenodd" d="M34.6812 37.6306H35.4372V37.7095H34.6812V37.6306Z" fill="#0071B3"/>
<path fill-rule="evenodd" clip-rule="evenodd" d="M34.6812 37.7095H35.4372V37.7883H34.6812V37.7095Z" fill="#0071B3"/>
<path fill-rule="evenodd" clip-rule="evenodd" d="M34.6812 37.7882H35.4372V37.8671H34.6812V37.7882Z" fill="#0072B4"/>
<path fill-rule="evenodd" clip-rule="evenodd" d="M34.6812 37.8671H35.4372V37.9459H34.6812V37.8671Z" fill="#0072B4"/>
<path fill-rule="evenodd" clip-rule="evenodd" d="M34.6812 37.9459H35.4372V38.0247H34.6812V37.9459Z" fill="#0073B5"/>
<path fill-rule="evenodd" clip-rule="evenodd" d="M34.6812 38.0248H35.4372V38.1036H34.6812V38.0248Z" fill="#0073B5"/>
<path fill-rule="evenodd" clip-rule="evenodd" d="M34.6812 38.1036H35.4372V38.1824H34.6812V38.1036Z" fill="#0074B6"/>
<path fill-rule="evenodd" clip-rule="evenodd" d="M34.6812 38.1824H35.4372V38.2612H34.6812V38.1824Z" fill="#0075B7"/>
<path fill-rule="evenodd" clip-rule="evenodd" d="M34.6812 38.2612H35.4372V38.34H34.6812V38.2612Z" fill="#0075B7"/>
<path fill-rule="evenodd" clip-rule="evenodd" d="M34.6812 38.3401H35.4372V38.419H34.6812V38.3401Z" fill="#0075B8"/>
<path fill-rule="evenodd" clip-rule="evenodd" d="M34.6812 38.4189H35.4372V38.4978H34.6812V38.4189Z" fill="#0077B9"/>
<path fill-rule="evenodd" clip-rule="evenodd" d="M34.6812 38.4978H35.4372V38.5766H34.6812V38.4978Z" fill="#0077B9"/>
<path fill-rule="evenodd" clip-rule="evenodd" d="M34.6812 38.5765H35.4372V38.6553H34.6812V38.5765Z" fill="#0078BB"/>
<path fill-rule="evenodd" clip-rule="evenodd" d="M34.6812 38.6554H35.4372V38.7343H34.6812V38.6554Z" fill="#0078BB"/>
<path fill-rule="evenodd" clip-rule="evenodd" d="M34.6812 38.7343H35.4372V38.813H34.6812V38.7343Z" fill="#0079BB"/>
<path fill-rule="evenodd" clip-rule="evenodd" d="M34.6812 38.8131H35.4372V38.8919H34.6812V38.8131Z" fill="#0079BB"/>
<path fill-rule="evenodd" clip-rule="evenodd" d="M34.6812 38.8918H35.4372V38.9707H34.6812V38.8918Z" fill="#007ABD"/>
<path fill-rule="evenodd" clip-rule="evenodd" d="M34.6812 38.9707H35.4372V39.0496H34.6812V38.9707Z" fill="#007BBE"/>
<path fill-rule="evenodd" clip-rule="evenodd" d="M34.6812 39.0496H35.4372V39.1283H34.6812V39.0496Z" fill="#007BBE"/>
<path fill-rule="evenodd" clip-rule="evenodd" d="M34.6812 39.1284H35.4372V39.2072H34.6812V39.1284Z" fill="#007CBF"/>
<path fill-rule="evenodd" clip-rule="evenodd" d="M34.6812 39.2072H35.4372V39.2861H34.6812V39.2072Z" fill="#007CBF"/>
<path fill-rule="evenodd" clip-rule="evenodd" d="M34.6812 39.2861H35.4372V39.3649H34.6812V39.2861Z" fill="#007DC0"/>
<path fill-rule="evenodd" clip-rule="evenodd" d="M34.6812 39.3649H35.4372V39.4436H34.6812V39.3649Z" fill="#007FC2"/>
<path fill-rule="evenodd" clip-rule="evenodd" d="M34.6812 39.4436H35.4372V39.5224H34.6812V39.4436Z" fill="#007FC2"/>
<path fill-rule="evenodd" clip-rule="evenodd" d="M34.6812 39.5225H35.4372V39.6014H34.6812V39.5225Z" fill="#0080C3"/>
<path fill-rule="evenodd" clip-rule="evenodd" d="M34.6812 39.6014H35.4372V39.6802H34.6812V39.6014Z" fill="#0080C3"/>
<path fill-rule="evenodd" clip-rule="evenodd" d="M34.6812 39.6802H35.4372V39.759H34.6812V39.6802Z" fill="#0081C4"/>
<path fill-rule="evenodd" clip-rule="evenodd" d="M34.6812 39.7589H35.4372V39.8379H34.6812V39.7589Z" fill="#0081C4"/>
<path fill-rule="evenodd" clip-rule="evenodd" d="M34.6812 39.8379H35.4372V39.9167H34.6812V39.8379Z" fill="#0082C6"/>
<path fill-rule="evenodd" clip-rule="evenodd" d="M34.6812 39.9167H35.4372V39.9955H34.6812V39.9167Z" fill="#0083C7"/>
<path fill-rule="evenodd" clip-rule="evenodd" d="M34.6812 39.9955H35.4372V40.0744H34.6812V39.9955Z" fill="#0083C7"/>
<path fill-rule="evenodd" clip-rule="evenodd" d="M34.6812 40.0745H35.4372V40.1532H34.6812V40.0745Z" fill="#0085C8"/>
<path fill-rule="evenodd" clip-rule="evenodd" d="M34.6812 40.1532H35.4372V40.232H34.6812V40.1532Z" fill="#0085C9"/>
<path fill-rule="evenodd" clip-rule="evenodd" d="M34.6812 40.2319H35.4372V40.3107H34.6812V40.2319Z" fill="#0085C9"/>
<path fill-rule="evenodd" clip-rule="evenodd" d="M34.6812 40.3108H35.4372V40.3897H34.6812V40.3108Z" fill="#0087CB"/>
<path fill-rule="evenodd" clip-rule="evenodd" d="M34.6812 40.3898H35.4372V40.4685H34.6812V40.3898Z" fill="#0087CB"/>
<path fill-rule="evenodd" clip-rule="evenodd" d="M34.6812 40.4685H35.4372V40.5473H34.6812V40.4685Z" fill="#0088CC"/>
<path fill-rule="evenodd" clip-rule="evenodd" d="M34.6812 40.5472H35.4372V40.6261H34.6812V40.5472Z" fill="#0088CC"/>
<path fill-rule="evenodd" clip-rule="evenodd" d="M34.6812 40.6261H35.4372V40.705H34.6812V40.6261Z" fill="#0089CD"/>
<path fill-rule="evenodd" clip-rule="evenodd" d="M34.6812 40.705H35.4372V40.7837H34.6812V40.705Z" fill="#0089CD"/>
<path fill-rule="evenodd" clip-rule="evenodd" d="M34.6812 40.7838H35.4372V40.8626H34.6812V40.7838Z" fill="#008ACE"/>
<path fill-rule="evenodd" clip-rule="evenodd" d="M34.6812 40.8625H35.4372V40.9415H34.6812V40.8625Z" fill="#008BD0"/>
<path fill-rule="evenodd" clip-rule="evenodd" d="M34.6812 40.9415H35.4372V41.0203H34.6812V40.9415Z" fill="#008BD0"/>
<path fill-rule="evenodd" clip-rule="evenodd" d="M34.6812 41.0203H35.4372V41.099H34.6812V41.0203Z" fill="#008CD1"/>
<path fill-rule="evenodd" clip-rule="evenodd" d="M34.6812 41.0991H35.4372V41.178H34.6812V41.0991Z" fill="#008ED3"/>
<path fill-rule="evenodd" clip-rule="evenodd" d="M34.6812 41.178H35.4372V41.2568H34.6812V41.178Z" fill="#008ED3"/>
<path fill-rule="evenodd" clip-rule="evenodd" d="M34.6812 41.2568H35.4372V41.3356H34.6812V41.2568Z" fill="#008ED4"/>
<path fill-rule="evenodd" clip-rule="evenodd" d="M34.6812 41.3356H35.4372V41.4144H34.6812V41.3356Z" fill="#008ED4"/>
<path fill-rule="evenodd" clip-rule="evenodd" d="M34.6812 41.4144H35.4372V41.4933H34.6812V41.4144Z" fill="#008FD5"/>
<path fill-rule="evenodd" clip-rule="evenodd" d="M34.6812 41.4933H35.4372V41.5722H34.6812V41.4933Z" fill="#008FD5"/>
<path fill-rule="evenodd" clip-rule="evenodd" d="M34.6812 41.5721H35.4372V41.6509H34.6812V41.5721Z" fill="#0091D7"/>
<path fill-rule="evenodd" clip-rule="evenodd" d="M34.6812 41.6509H35.4373V41.7297H25.3828V41.718H34.6812V41.6509Z" fill="#0092D8"/>
<path fill-rule="evenodd" clip-rule="evenodd" d="M25.3828 41.7297H35.4373V41.8086H25.3828V41.7297Z" fill="#0092D8"/>
<path fill-rule="evenodd" clip-rule="evenodd" d="M25.3828 41.8086H35.4373V41.8874H25.3828V41.8086Z" fill="#0093DA"/>
<path fill-rule="evenodd" clip-rule="evenodd" d="M25.3828 41.8875H35.4373V41.9663H25.3828V41.8875Z" fill="#0093DA"/>
<path fill-rule="evenodd" clip-rule="evenodd" d="M25.3828 41.9663H35.4373V42.0451H25.3828V41.9663Z" fill="#0094DB"/>
<path fill-rule="evenodd" clip-rule="evenodd" d="M25.3828 42.045H35.4373V42.1239H25.3828V42.045Z" fill="#0095DD"/>
<path fill-rule="evenodd" clip-rule="evenodd" d="M25.3828 42.1239H35.4373V42.2027H25.3828V42.1239Z" fill="#0095DD"/>
<path fill-rule="evenodd" clip-rule="evenodd" d="M25.3828 42.2026H35.4373V42.2815H25.3828V42.2026Z" fill="#0096DE"/>
<path fill-rule="evenodd" clip-rule="evenodd" d="M25.3828 42.2816H35.4373V42.3604H25.3828V42.2816Z" fill="#0096DE"/>
<path fill-rule="evenodd" clip-rule="evenodd" d="M25.3828 42.3604H35.4373V42.4391H25.3828V42.3604Z" fill="#0098DF"/>
</svg>
