<svg width="600" height="600" viewBox="0 0 600 600" fill="none" xmlns="http://www.w3.org/2000/svg">
<rect width="600" height="600" fill="#E5E5E5"/>
<rect width="600" height="600" fill="black"/>
<path fill-rule="evenodd" clip-rule="evenodd" d="M36.5714 453V466.043H160.37C170.237 466.043 178.236 474.042 178.236 483.909C178.236 493.776 170.237 501.774 160.37 501.774H67.3608C50.3563 501.775 36.5715 515.559 36.5714 532.564V566.776H61.1763V532.224C61.1764 522.611 68.9694 514.818 78.5823 514.819H171.932C189.003 514.818 202.841 500.98 202.841 483.909C202.841 466.838 189.002 453 171.932 453H36.5714ZM302.194 453C285.19 453 271.405 466.785 271.405 483.789V536.326C271.405 545.939 263.612 553.732 253.999 553.732H194.732V566.776H265.22C282.225 566.775 296.01 552.99 296.01 535.985V483.449C296.01 473.836 303.803 466.043 313.416 466.043L373.785 466.043V453H302.194ZM397.496 495.484V453H559.453V466.043H422.101V494.004C422.102 498.295 425.58 501.774 429.872 501.774H531.412C549.362 501.775 563.913 516.326 563.912 534.275C563.912 552.225 549.362 566.776 531.412 566.776H397.496V553.732H519.85C530.596 553.732 539.307 545.02 539.307 534.275C539.306 523.529 530.595 514.819 519.85 514.819H416.829C406.151 514.819 397.495 506.162 397.496 495.484Z" fill="white"/>
<path fill-rule="evenodd" clip-rule="evenodd" d="M239.052 39V385.632L317.496 410.539V119.781C317.496 106.194 323.569 97.0565 333.364 100.247C346.167 103.787 348.658 116.325 348.658 129.94V246.053C397.577 269.659 436.044 246.038 436.044 183.729C436.044 119.781 413.529 91.4174 347.119 68.567C320.98 59.8074 272.425 45.1569 239.052 39ZM332.355 359.895L458.529 314.908C472.83 309.786 475.041 302.51 463.412 298.718C451.798 294.926 430.753 296.031 416.452 301.139L332.355 330.776V283.648L337.197 282.024C337.197 282.024 361.502 273.405 395.631 269.613C429.802 265.905 471.64 270.102 504.454 282.584C541.479 294.296 545.635 311.493 536.245 323.345C526.814 335.225 503.796 343.705 503.796 343.705L332.355 405.274V359.895ZM68.1328 309.313C50.8376 322.159 57.1764 344.394 95.1531 355.098C135.9 368.531 177.263 371.162 216.108 364.823C216.554 364.751 217.007 364.678 217.464 364.605C219.586 364.264 221.794 363.909 223.832 363.564V322.789L185.015 336.851C170.687 342.001 149.669 343.092 138.013 339.258C126.441 335.494 128.596 328.218 142.911 323.096L223.832 294.117V248.584L111.385 288.534C111.385 288.534 84.1827 297.433 68.1328 309.313Z" fill="white"/>
</svg>
