<svg width="296" height="296" viewBox="0 0 296 296" fill="none" xmlns="http://www.w3.org/2000/svg">
<path d="M14.3656 112.232C11.5902 112.232 8.89241 114.513 8.39681 117.341V117.391V117.442V117.493L8.34623 117.543V117.644V117.695L8.29565 117.796V117.897L8.24506 117.998V118.15L8.19448 118.251V118.403L8.14388 118.555L8.09331 118.707L8.04273 119.01L7.94155 119.364L7.89098 119.718L7.78981 120.072L7.73921 120.477L7.63806 120.882L7.5369 121.337L7.43573 121.742L7.28398 122.601L7.18281 123.057L7.08164 123.461L7.03106 123.866L6.92989 124.271L6.82872 124.675L6.77814 125.08L6.72755 125.434L6.62639 125.738L6.57579 126.092V126.243L6.52523 126.345V126.496V126.598L6.47464 126.749V126.85V126.952L6.42406 127.053V127.103V127.154C6.37188 128.39 6.54384 130.078 6.92989 130.391C7.42027 133.115 16.498 145.72 16.2372 147.64C15.992 149.565 14.922 155.228 14.922 155.228C14.5934 157.137 13.2906 158.667 11.3812 158.667C9.47184 158.667 8.16931 157.142 8.49796 155.228L10.2178 145.819H3.43966L1.16341 158.87C0.699108 161.52 2.49365 163.624 5.15948 163.624H14.8209C17.4971 163.624 20.0464 161.52 20.5368 158.87C20.5368 158.87 23.0258 146.68 23.0153 145.819C23.0049 144.953 22.7624 144.858 22.7624 144.858C22.7624 143.867 14.6841 130.533 13.8598 130.037C13.505 129.829 13.2126 128.509 13.2022 127.71C13.1866 126.917 14.2645 121.59 14.2645 121.59C14.5931 119.68 16.4017 118.15 18.3111 118.15C20.2205 118.15 21.0172 119.68 20.6885 121.59L19.2216 130.037H26.0503L28.4277 117.341C28.9651 114.513 27.1565 112.232 24.3811 112.232H14.3656ZM32.9802 112.232L24.8869 158.87C24.4226 161.52 26.2172 163.624 28.883 163.624H38.5444C41.2206 163.624 43.8153 161.52 44.3109 158.87L52.9606 112.232H46.8906L38.6455 157.554C38.5256 158.212 37.8865 158.768 37.2292 158.768H32.4238C31.7508 158.768 31.3026 158.217 31.4121 157.554L39.4549 112.232H32.9802ZM56.2485 112.232L46.4859 163.624H52.9606L57.4119 140.356H65.657C68.3384 140.356 70.8825 138.236 71.3729 135.601L74.9137 117.341C75.4458 114.508 73.6424 112.232 70.867 112.232H62.7231H56.2485ZM79.365 112.232L69.2484 163.624H83.8163L84.828 157.251H77.6452L80.579 139.901H87.7618L88.7735 134.539H81.5907L84.7774 118.605H91.9602L92.9719 112.232H79.365ZM96.7656 112.232L87.0536 163.624H93.5283L97.929 140.356H102.532C103.137 140.92 103.207 141.959 103.291 142.481C103.411 143.237 103.536 144.203 103.443 144.959C103.359 145.71 99.9018 163.624 99.9018 163.624H106.376C106.376 163.624 110.018 144.109 110.018 143.796C110.029 143.478 110.019 142.477 109.664 141.924C109.43 141.569 109.021 140.755 108.551 140.457C107.649 139.878 106.629 139.496 106.629 139.496H106.174C108.026 138.766 111.52 137.563 111.89 135.601L115.431 117.341C115.968 114.508 114.16 112.232 111.384 112.232H96.7656ZM131.415 112.232L121.653 163.624H129.088L135.108 133.831L137.485 163.624H143.96L153.722 112.232H146.287L141.228 139.092L137.89 112.232H131.415ZM157.111 112.232L147.349 163.624H153.823L163.586 112.232H157.111ZM166.975 112.232L157.212 163.624H164.699L170.718 133.831L173.096 163.624H179.57L189.333 112.232H181.847L176.839 139.092L173.5 112.232H166.975ZM192.064 112.232L190.85 118.605H194.897L186.905 163.624H194.29L202.434 118.605H206.329L207.34 112.232H192.064ZM209.87 112.232L199.753 163.624H214.321L215.333 157.251H208.15L211.134 139.901H218.317L219.329 134.539H212.146L215.282 118.605H222.465L223.476 112.232H209.87ZM226.309 112.232L216.547 163.624H224.033L230.052 133.831L232.43 163.624H238.904L248.667 112.232H241.181L236.173 139.092L232.834 112.232H226.309ZM252.056 112.232L242.293 163.624H257.064C259.745 163.624 262.335 161.52 262.83 158.87L270.671 117.341C271.203 114.508 269.399 112.232 266.624 112.232H252.056ZM279.826 112.232C277.051 112.232 274.403 114.513 273.908 117.341L266.674 158.87C266.205 161.52 267.959 163.624 270.62 163.624H281.293C283.969 163.624 286.564 161.52 287.059 158.87L294.9 117.341C295.437 114.513 293.623 112.232 290.853 112.232H279.826ZM257.57 118.15H260.554C262.463 118.15 263.766 119.68 263.437 121.59L257.064 155.228C256.73 157.137 254.876 158.718 252.966 158.718H250.033L257.57 118.15ZM283.62 118.15H283.822C285.732 118.15 286.983 119.68 286.655 121.59L280.585 155.228C280.256 157.132 278.498 158.718 276.589 158.718C274.679 158.718 273.883 157.137 274.211 155.228L280.231 121.59L280.281 121.438L280.332 121.286L280.383 121.084L280.433 120.932L280.484 120.73L280.534 120.578L280.585 120.426L280.686 120.275L280.737 120.123L280.838 119.971L280.888 119.819L280.99 119.668L281.091 119.566L281.192 119.415L281.293 119.263L281.445 119.162L281.546 119.061L281.647 118.959L281.799 118.858L281.951 118.757L282.052 118.656L282.204 118.555L282.355 118.504L282.507 118.403L282.608 118.353L282.811 118.302L282.962 118.251H283.114L283.266 118.201H283.468L283.62 118.15ZM62.4702 118.353H65.6064C66.295 118.352 67.7549 119.93 67.6297 120.629L64.9488 133.325C64.8236 133.982 63.9369 135.5 63.2796 135.5H59.4858H59.4352H59.3846L59.3341 135.45H59.2835H59.2329H59.1823H59.1317V135.399H59.0811H59.0306L58.98 135.348H58.9294L58.8788 135.298L58.8282 135.247H58.7776V135.197L58.7271 135.146L58.6765 135.096V135.045L58.6259 134.994L58.5753 134.944V134.893V134.843L58.5247 134.792V134.741V134.691L58.4742 134.64V134.59C58.4741 134.506 58.4637 134.38 58.4742 134.286L61.5091 118.757C61.7856 118.528 62.1259 118.353 62.4702 118.353ZM102.785 118.353H102.836H102.886H102.937H102.987H105.921C106.61 118.352 108.08 119.93 107.944 120.629L105.264 133.275C105.144 133.937 103.498 135.5 102.836 135.5H100.054C99.4797 135.5 99.0836 135.122 99.0419 134.59C99.0419 134.506 99.0314 134.385 99.0419 134.286L102.026 118.757L102.077 118.707L102.127 118.656L102.229 118.605H102.279L102.33 118.555L102.38 118.504H102.431L102.482 118.454H102.532L102.633 118.403H102.684H102.734H102.785V118.353ZM0 168.076V184.92H288.729V168.076H0ZM212.247 169.846H212.298H212.348H212.399H212.449H212.5H214.726C215.326 169.846 215.756 170.327 215.636 170.959L215.08 173.792H213.714L214.017 171.92C214.085 171.497 213.838 171.161 213.41 171.161C212.988 171.161 212.573 171.494 212.5 171.92L212.247 173.286C212.205 173.367 212.331 173.751 212.399 173.792C212.587 173.9 214.371 176.859 214.371 177.08C214.413 177.19 214.438 177.241 214.422 177.282C214.37 177.653 213.866 180.165 213.866 180.165C213.756 180.742 213.196 181.227 212.601 181.227H210.477C209.887 181.227 209.507 180.742 209.617 180.165L210.122 177.282H211.589L211.235 179.356C211.167 179.779 211.415 180.165 211.842 180.165C212.249 180.165 212.685 179.781 212.753 179.356L213.056 177.687C212.785 176.988 210.996 174.447 210.881 173.842C210.803 173.775 210.77 173.41 210.78 173.134C210.796 172.833 211.185 170.959 211.185 170.959H211.235V170.908V170.858V170.807L211.286 170.706V170.656L211.336 170.605V170.554L211.387 170.504V170.453L211.438 170.403L211.488 170.352V170.301H211.539L211.589 170.251L211.64 170.2L211.691 170.15V170.099H211.741L211.792 170.048L211.842 169.998H211.893L211.943 169.947H211.994L212.045 169.897H212.095H212.196L212.247 169.846ZM223.881 169.846H225.702L225.955 174.146L228.282 169.846H230.103L226.36 176.422L225.449 181.227H223.831L224.64 176.068L223.881 169.846ZM240.422 169.846H240.472H240.523H240.574H240.624H240.675H242.9C243.5 169.846 243.92 170.327 243.811 170.959L243.254 173.792H241.889L242.192 171.92C242.26 171.497 242.013 171.161 241.585 171.161C241.163 171.161 240.743 171.494 240.675 171.92L240.422 173.286C240.37 173.367 240.49 173.751 240.574 173.792C240.751 173.9 242.546 176.859 242.546 177.08C242.598 177.19 242.597 177.241 242.597 177.282C242.529 177.653 242.091 180.165 242.091 180.165C241.981 180.742 241.416 181.227 240.826 181.227H238.651C238.062 181.227 237.682 180.742 237.791 180.165L238.297 177.282H239.764L239.41 179.356C239.342 179.779 239.605 180.165 240.017 180.165C240.44 180.165 240.844 179.781 240.928 179.356L241.231 177.687C240.955 176.988 239.171 174.447 239.056 173.842C238.978 173.775 238.944 173.41 238.955 173.134C238.971 172.833 239.36 170.959 239.36 170.959L239.41 170.908V170.858V170.807L239.461 170.706V170.656L239.511 170.605V170.554L239.562 170.504V170.453L239.612 170.403L239.663 170.352V170.301H239.714L239.764 170.251L239.815 170.2L239.865 170.15L239.916 170.099L239.967 170.048L240.017 169.998H240.068L240.118 169.947H240.169L240.219 169.897H240.27H240.371L240.422 169.846ZM252.208 169.846H255.597L255.344 171.212H254.484L252.714 181.227H251.044L252.815 171.212H251.955L252.208 169.846ZM265.46 169.846H268.495L268.243 171.212H266.674L265.966 174.803H267.585L267.332 175.967H265.764L265.106 179.811H266.674L266.472 181.227H263.235L265.46 169.846ZM277.955 169.846H279.826L280.13 176.422L283.013 169.897L284.834 169.846L282.912 181.227H281.495L282.406 175.208L279.877 181.227H278.865L278.562 175.056L277.449 181.227H275.779L277.955 169.846ZM6.27231 170.251H9.25672L9.05438 171.667H7.43573L6.77814 175.208H8.34623L8.14388 176.422H6.52523L5.91823 180.266H7.48631L7.2334 181.683H3.99608L6.27231 170.251ZM20.2333 170.251H21.6496L22.4083 176.22L23.5212 170.251H25.1904L23.0153 181.683H21.599L21.0426 175.056L19.7274 181.683H18.0582L20.2333 170.251ZM35.4082 170.251H38.7467L38.5444 171.667H37.6845L35.8635 181.683H34.2448L36.0152 171.667H35.1047L35.4082 170.251ZM50.1279 170.251H53.1629L52.91 171.667H51.3419L50.6338 175.208H52.2018L51.9995 176.422H50.4314L49.7738 180.266H51.3419L51.1396 181.683H47.9023L50.1279 170.251ZM64.3924 170.251H67.6297C68.2296 170.251 68.6096 170.783 68.4896 171.414L67.7309 175.461C67.6474 175.899 66.8784 176.257 66.4663 176.422H66.5675H66.618H66.6686V176.473H66.7192H66.7698H66.8204H66.871L66.9215 176.523H66.9721H67.0227H67.0733V176.574H67.1239H67.1745V176.624H67.225C67.2929 176.747 67.3262 177.111 67.3262 177.181C67.3262 177.248 66.5169 181.683 66.5169 181.683H65.05C65.05 181.683 65.8332 177.7 65.8593 177.535C65.8749 177.357 65.84 177.144 65.8087 176.978C65.7983 176.856 65.7926 176.647 65.657 176.523H64.6453L63.6842 181.683H62.2173L64.3924 170.251ZM78.8592 170.251H82.2482L82.0459 171.667H81.186L79.365 181.683H77.7463L79.5167 171.667H78.6063L78.8592 170.251ZM95.7034 170.251H97.6255L97.0185 181.683H95.0964L95.3493 179.052H94.1859L93.2248 181.683H91.505L95.7034 170.251ZM109.158 170.251H110.625L108.45 181.683H107.034L109.158 170.251ZM122.209 170.251H123.625L124.384 176.22L125.497 170.251H127.116L124.991 181.683H123.524L123.018 175.056L121.703 181.683H120.034L122.209 170.251ZM138.952 170.251H140.824L141.127 176.877L144.01 170.301H145.831L143.909 181.683H142.493L143.403 175.663L140.874 181.683H139.862L139.559 175.511L138.446 181.683H136.827L138.952 170.251ZM157.314 170.251H160.298L160.096 171.667H158.477L157.819 175.208H159.388L159.185 176.422H157.567L156.909 180.266H158.528L158.275 181.683H155.088L157.314 170.251ZM171.983 170.251H173.399L174.158 176.22L175.271 170.251H176.889L174.765 181.683H173.349L172.792 175.056L171.477 181.683H169.808L171.983 170.251ZM187.006 170.251H190.395L190.142 171.667H189.282L187.512 181.683H185.893L187.664 171.667H186.753L187.006 170.251ZM65.7581 171.617C65.6799 171.617 65.6132 171.663 65.5558 171.718L64.8982 175.157C64.8982 175.184 64.8982 175.18 64.8982 175.208C64.8982 175.318 64.9753 175.41 65.1005 175.41H65.7075C65.8588 175.41 66.2379 175.106 66.264 174.955L66.8204 172.122C66.8465 171.96 66.567 171.617 66.4157 171.617H65.7581ZM95.7034 175.056L94.6411 177.939H95.4504L95.7034 175.056Z" fill="#FC0C18"/>
</svg>
