<svg width="600" height="623" viewBox="0 0 600 623" fill="none" xmlns="http://www.w3.org/2000/svg">
<rect width="6000" height="6226.7" transform="matrix(0.1 0 0 -0.1 0 622.67)" fill="#E60012"/>
<rect width="600" height="622.67" fill="#E60012"/>
<path d="M170.128 83.4448C124.471 91.5848 87.7367 125.28 76.1564 169.577C71.9798 185.573 71.6951 194.943 72.1697 319.031C72.4545 432.99 72.5494 435.64 74.4478 444.443C84.984 491.863 118.776 525.653 166.806 536.822C173.071 538.242 181.044 538.526 232.396 538.81C285.552 539.188 291.057 539.094 292.481 537.674C293.905 536.254 294 517.987 294 310.891C294 157.367 293.715 85.0539 293.051 83.7287C292.102 82.025 290.488 81.9304 234.864 82.025C189.682 82.1197 176.108 82.4036 170.128 83.4448ZM256.032 310.607V502.369L217.399 501.896C181.803 501.517 178.007 501.328 170.888 499.53C140.323 491.674 117.637 468.2 111.277 437.628C109.189 428.068 109.189 192.577 111.182 183.207C116.877 156.61 135.387 134.556 160.351 124.618C172.881 119.601 178.671 119.033 219.297 118.939L256.032 118.844V310.607Z" fill="white"/>
<path d="M178.19 176.821C172.204 177.959 163.081 182.512 158.235 186.78C148.257 195.412 143.316 207.648 144.076 222.066C144.456 229.559 144.931 231.551 147.972 237.621C152.438 246.822 159.185 253.557 168.403 258.11C174.769 261.24 176.385 261.619 184.652 261.904C192.159 262.188 194.819 261.904 199.856 260.197C220.476 253.272 232.924 233.258 229.408 212.77C225.322 188.393 202.136 172.078 178.19 176.821Z" fill="white"/>
<path d="M339.662 82.6623C339.284 82.9462 339 185.515 339 310.604C339 516.973 339.095 537.884 340.512 538.452C343.065 539.398 416.418 539.02 425.492 538.073C463.87 533.721 497.711 510.349 516.144 475.624C518.507 471.176 521.626 463.701 523.233 459.065C529.188 441.276 528.999 446.007 528.999 310.037C528.999 201.506 528.81 185.326 527.487 178.419C518.129 129.121 480.601 91.9352 431.258 83.4193C424.641 82.2838 414.433 82 381.537 82C358.851 82 339.945 82.2838 339.662 82.6623ZM440.617 288.747C455.363 292.626 467.462 303.886 472.378 318.269C475.497 327.163 475.403 340.221 472.283 348.358C466.517 363.308 455.174 373.811 440.617 377.691C416.985 383.841 391.841 369.553 384.94 346.087C382.861 338.896 382.955 326.785 385.318 319.404C392.408 296.222 416.985 282.597 440.617 288.747Z" fill="white"/>
</svg>
