<svg width="74" height="35" viewBox="0 0 74 35" fill="none" xmlns="http://www.w3.org/2000/svg">
<g clip-path="url(#clip0)">
<path d="M76.7551 31.364H77.4895L78.2269 33.8116L78.9758 31.364H79.7166V34.4233H79.2309V31.8953L78.4699 34.4233H77.9704L77.2236 31.8953V34.4233H76.7551V31.364ZM73.9935 31.364H76.3885V31.8152H75.448V34.4233H74.9368V31.8152H73.9935L73.9935 31.364ZM39.6035 1.89599L33.4828 25.892C33.4828 25.892 28.8032 7.87999 28.0419 5.32499C27.2802 2.76599 25.7136 1.64479 23.4914 1.64479C21.2686 1.64479 19.699 2.76589 18.9378 5.32499C18.1796 7.87979 13.4987 25.892 13.4987 25.892L7.37407 1.89599H-0.000732422C-0.000732422 1.89599 7.08237 27.498 8.04507 30.464C8.79402 32.7782 10.5682 34.6702 13.1981 34.6702C16.2052 34.6702 17.6113 32.478 18.2626 30.464C18.9067 28.4616 23.4915 11.552 23.4915 11.552C23.4915 11.552 28.0762 28.462 28.719 30.464C29.3695 32.478 30.776 34.6702 33.7821 34.6702C36.4142 34.6702 38.1851 32.7783 38.9387 30.464C39.8993 27.4989 46.9775 1.89599 46.9775 1.89599H39.6035ZM64.8895 34.423H71.8713V11.84H64.8895V34.423ZM64.2128 3.94399C64.2128 6.12059 66.049 7.88739 68.3036 7.88739C70.6496 7.88739 72.4872 6.15699 72.4872 3.94399C72.4872 1.73029 70.6496 -0.00390625 68.3036 -0.00390625C66.049 -0.00390625 64.2128 1.76529 64.2128 3.94399ZM50.7028 34.423H57.6825V11.84H50.7028V34.423ZM50.0241 3.94399C50.0241 6.12059 51.8568 7.88739 54.1128 7.88739C56.4574 7.88739 58.2985 6.15699 58.2985 3.94399C58.2985 1.73029 56.4573 -0.00390625 54.1128 -0.00390625C51.8568 -0.00390625 50.0241 1.76529 50.0241 3.94399Z" fill="#A1A0A4"/>
</g>
<defs>
<clipPath id="clip0">
<rect width="74" height="35" fill="white"/>
</clipPath>
</defs>
</svg>
