<svg width="246" height="234" viewBox="0 0 246 234" fill="none" xmlns="http://www.w3.org/2000/svg">
<path fill-rule="evenodd" clip-rule="evenodd" d="M73.259 150.2H44.7063H44.6585C42.4146 150.2 40.6143 152.022 40.6143 154.266C40.6143 154.266 40.623 154.266 40.623 154.292H40.6143V174.7H40.623L40.6143 174.717C40.6143 176.952 42.4146 178.792 44.6585 178.792H44.7063H47.6634H73.259V192.407H37.5704V192.372C31.7302 192.372 27.0077 187.65 27.0077 181.827V147.125C27.0077 141.333 31.7302 136.611 37.5704 136.611H73.259V150.2Z" fill="#333333"/>
<path fill-rule="evenodd" clip-rule="evenodd" d="M83.5847 112.304C83.5847 118.24 78.7882 123.014 72.8785 123.014H26.9751V109.216H65.6338H65.6773C67.956 109.216 69.7824 107.355 69.7824 105.089V105.063V59.5122V59.4817C69.7824 57.2075 67.956 55.3637 65.6773 55.3637H65.6338H44.9216H44.8781C42.6038 55.3637 40.7731 57.2075 40.7731 59.4817V59.5122V80.2114V80.2374C40.7731 82.5161 42.6038 84.3642 44.8781 84.3642H44.9216H61.494V98.1622H37.6769C31.7542 98.1622 26.9751 93.3788 26.9751 87.4604V52.2631C26.9751 46.3491 31.7542 41.557 37.6769 41.557H72.8785C78.7882 41.557 83.5847 46.3491 83.5847 52.2631V112.304Z" fill="#333333"/>
<path fill-rule="evenodd" clip-rule="evenodd" d="M218.848 192.372H205.246V150.2H195.731H195.688C193.439 150.2 191.639 152.022 191.639 154.266V154.292V192.372H178.037V150.2H168.5H168.474C166.222 150.2 164.421 152.022 164.421 154.266V154.292V192.407H150.823V147.125C150.823 141.333 155.533 136.611 161.373 136.611H218.848V192.372Z" fill="#333333"/>
<path fill-rule="evenodd" clip-rule="evenodd" d="M218.886 112.304C218.886 118.24 214.086 123.014 208.185 123.014H162.277V109.216H200.953H200.979C203.266 109.216 205.102 107.355 205.102 105.089V105.063V59.5122V59.4817C205.102 57.2075 203.266 55.3637 200.979 55.3637H200.953H180.223H180.184C177.932 55.3637 176.092 57.2075 176.092 59.4817V59.5122V80.2114V80.2374C176.092 82.5161 177.932 84.3642 180.184 84.3642H180.223H196.791V98.1622H172.987C167.065 98.1622 162.277 93.3788 162.277 87.4604V52.2631C162.277 46.3491 167.065 41.557 172.987 41.557H208.185C214.086 41.557 218.886 46.3491 218.886 52.2631V112.304Z" fill="#333333"/>
<path fill-rule="evenodd" clip-rule="evenodd" d="M137.403 59.5139V80.2088V80.2348C137.403 82.5135 135.616 84.366 133.333 84.366H133.285H112.573H112.542C110.259 84.366 108.433 82.5135 108.433 80.2348V80.2088V59.5139V59.4791C108.433 57.2049 110.259 55.3654 112.542 55.3654H112.573H133.285H133.333C135.616 55.3654 137.403 57.2049 137.403 59.4791V59.5139ZM140.538 41.5587H105.324C99.4096 41.5587 94.6305 46.3508 94.6305 52.2649V87.4622C94.6305 93.3762 99.4096 98.164 105.324 98.164H140.538C146.435 98.164 151.236 93.3762 151.236 87.4622V52.2649C151.236 46.3508 146.435 41.5587 140.538 41.5587" fill="#333333"/>
<path fill-rule="evenodd" clip-rule="evenodd" d="M126.329 154.29V174.698C126.329 176.942 124.529 178.772 122.294 178.772C122.272 178.772 122.267 178.751 122.246 178.751V178.772H101.842V178.751C101.842 178.751 101.821 178.772 101.799 178.772C99.5549 178.772 97.7546 176.942 97.7546 174.698V154.29V154.264C97.7546 152.02 99.5549 150.198 101.799 150.198H101.842H122.246H122.294C124.529 150.198 126.329 152.02 126.329 154.264V154.29ZM129.386 136.609H94.7019C88.8618 136.609 84.1479 141.331 84.1479 147.124V181.825C84.1479 187.648 88.8618 192.37 94.7019 192.37H129.386C135.204 192.37 139.927 187.648 139.927 181.825V147.124C139.927 141.331 135.204 136.609 129.386 136.609" fill="#333333"/>
<path d="M240.637 216.076C240.637 219.581 239.224 222.729 236.928 225.029C234.632 227.321 231.479 228.73 227.983 228.73H17.8823C14.3817 228.73 11.2333 227.321 8.93728 225.029C6.64123 222.729 5.23666 219.581 5.22797 216.076V17.8769C5.23666 14.3763 6.64123 11.2323 8.93728 8.93187C11.2333 6.64018 14.3817 5.23124 17.8823 5.22689H227.983C231.479 5.23124 234.632 6.64018 236.928 8.93187C239.224 11.2323 240.637 14.3763 240.637 17.8769V216.076ZM240.62 5.23558C237.393 2.00025 232.914 -8.03095e-05 227.983 -8.03095e-05H17.8823C12.951 -8.03095e-05 8.47198 2.00025 5.24535 5.23558C2.01002 8.46222 0.000976562 12.9499 0.000976562 17.8769V216.076C0.000976562 221.007 2.01002 225.495 5.24535 228.721C8.47198 231.952 12.951 233.961 17.8823 233.961H227.983C232.914 233.961 237.393 231.952 240.62 228.721C243.855 225.495 245.864 221.007 245.864 216.076V17.8769C245.864 12.9499 243.855 8.46222 240.62 5.23558" fill="#333333"/>
</svg>
