<svg width="100" height="100" viewBox="0 0 100 100" fill="none" xmlns="http://www.w3.org/2000/svg">
<rect width="100" height="100" rx="10" fill="white"/>
<path d="M64.5199 50.0027L91.7439 22.7788C94.7518 19.7708 94.7518 14.8942 91.7439 11.8909L88.1146 8.26161C85.1057 5.25271 80.229 5.25271 77.2257 8.26161L50.0027 35.4846L22.7788 8.25597C19.7708 5.24801 14.8942 5.24801 11.8909 8.25597L8.25597 11.8853C5.24801 14.8942 5.24801 19.7708 8.25597 22.7741L35.4846 50.0027L8.26161 77.2257C5.25271 80.2346 5.25271 85.1113 8.26161 88.1146L11.8909 91.7439C14.8989 94.7518 19.7755 94.7518 22.7788 91.7439L50.0027 64.5199L77.2257 91.7439C80.2346 94.7518 85.1113 94.7518 88.1146 91.7439L91.7439 88.1146C94.7518 85.1057 94.7518 80.229 91.7439 77.2257L64.5199 50.0027Z" fill="#13004D"/>
</svg>
