<svg width="257" height="250" viewBox="0 0 257 250" fill="none" xmlns="http://www.w3.org/2000/svg">
<path fill-rule="evenodd" clip-rule="evenodd" d="M112.974 182.422C112.974 184.511 112.462 187.48 110.061 189.745L101.076 197.41L19.3656 121.211V91.3133L109.215 175.109C110.622 176.427 112.984 179.141 112.984 182.432L112.974 182.422ZM237.424 93.5005V121.23L135.766 218.559C134.073 220.141 132.39 220.853 130.275 220.853C128.11 220.853 126.19 220.072 124.567 218.539L115.267 210.201L237.424 93.4907V93.5005ZM159.975 142.907L131.8 169.504L42.5414 85.2401C38.0439 81.0024 35.5837 75.349 35.5837 69.2953C35.5837 63.2611 38.0439 57.6077 42.5117 53.3799L70.7065 26.7532L159.965 111.037C169.285 119.824 169.285 134.109 159.965 142.897L159.975 142.907ZM143.343 69.5004L172.719 41.7704C177.226 37.5328 183.219 35.1991 189.596 35.1991C195.993 35.1991 201.977 37.5425 206.474 41.7899L236.784 70.3987L190.551 114.044L173.674 98.1286L143.363 69.5004H143.343ZM256.221 65.087L189.833 1.32755L188.455 -0.000366211L187.077 1.30803L129.093 56.5727L77.2704 7.39105L77.2024 7.32306L77.1539 7.29392L70.6588 2.11896L69.3204 1.04491L68.0608 2.2166L0.59033 64.9703L-0.000244141 65.5171V128.788L0.570903 129.325L127.078 248.691L128.456 250L129.833 248.701L256.222 129.335L256.783 128.798V65.6147L256.232 65.0875L256.221 65.087Z" fill="#08D7D7"/>
</svg>
