<svg width="360" height="298" viewBox="0 0 360 298" fill="none" xmlns="http://www.w3.org/2000/svg">
<rect x="5.50001" y="33.5" width="352" height="250" fill="white" stroke="black" stroke-width="5"/>
<path d="M13.1445 80.5859H53.4688V87.793H36.9102V131H29.7031V87.793H13.1445V80.5859ZM94.5313 131H87.6055V100.484H68.3047V131H61.4141V79.1445H68.3047V100.168C68.3516 99.2539 68.5625 98.3984 68.9375 97.6016C69.3125 96.7812 69.8047 96.0781 70.4141 95.4922C71.0469 94.8828 71.7734 94.4141 72.5938 94.0859C73.4141 93.7344 74.293 93.5586 75.2305 93.5586H87.6055C88.5664 93.5586 89.4688 93.7461 90.3125 94.1211C91.1563 94.4727 91.8828 94.9648 92.4922 95.5977C93.125 96.207 93.6172 96.9336 93.9688 97.7773C94.3438 98.6211 94.5313 99.5234 94.5313 100.484V131ZM137.738 115.812H112.953V124.074H137.738V131H112.953C112.016 131 111.125 130.824 110.281 130.473C109.438 130.098 108.699 129.605 108.066 128.996C107.457 128.363 106.965 127.625 106.59 126.781C106.238 125.938 106.063 125.035 106.063 124.074V100.484C106.063 99.5234 106.238 98.6211 106.59 97.7773C106.965 96.9336 107.457 96.207 108.066 95.5977C108.699 94.9648 109.438 94.4727 110.281 94.1211C111.125 93.7461 112.016 93.5586 112.953 93.5586H130.813C131.773 93.5586 132.676 93.7461 133.52 94.1211C134.363 94.4727 135.09 94.9648 135.699 95.5977C136.332 96.207 136.824 96.9336 137.176 97.7773C137.551 98.6211 137.738 99.5234 137.738 100.484V115.812ZM112.953 100.484V108.887H130.813V100.484H112.953ZM17.4688 157.793C17.4688 156.809 17.6563 155.883 18.0313 155.016C18.4063 154.125 18.9219 153.363 19.5781 152.73C20.2344 152.074 20.9961 151.559 21.8633 151.184C22.7539 150.785 23.6914 150.586 24.6758 150.586H52.0274C53.0117 150.586 53.9375 150.785 54.8047 151.184C55.6953 151.559 56.4688 152.074 57.125 152.73C57.7813 153.363 58.2969 154.125 58.6719 155.016C59.0469 155.883 59.2344 156.809 59.2344 157.793V164.297H52.0274V157.793H24.6758V193.793H52.0274V181.559H38.3516V174.352H59.2344V193.793C59.2344 194.777 59.0469 195.715 58.6719 196.605C58.2969 197.473 57.7813 198.234 57.125 198.891C56.4688 199.547 55.6953 200.062 54.8047 200.438C53.9375 200.812 53.0117 201 52.0274 201H24.6758C23.6914 201 22.7539 200.812 21.8633 200.438C20.9961 200.062 20.2344 199.547 19.5781 198.891C18.9219 198.234 18.4063 197.473 18.0313 196.605C17.6563 195.715 17.4688 194.777 17.4688 193.793V157.793ZM71.4688 184.652C71.4688 183.691 71.6445 182.801 71.9961 181.98C72.3711 181.137 72.8633 180.398 73.4727 179.766C74.1055 179.133 74.8438 178.641 75.6875 178.289C76.5313 177.914 77.4219 177.727 78.3594 177.727H96.2188V170.484H73.6133V163.559H96.2188C97.1797 163.559 98.082 163.746 98.9258 164.121C99.7695 164.473 100.496 164.965 101.105 165.598C101.738 166.207 102.23 166.934 102.582 167.777C102.957 168.621 103.145 169.523 103.145 170.484V201H96.2188V194.672C96.1484 195.539 95.9141 196.359 95.5156 197.133C95.1172 197.906 94.6016 198.586 93.9688 199.172C93.3594 199.734 92.6563 200.18 91.8594 200.508C91.0625 200.836 90.2188 201 89.3281 201H78.3594C77.4219 201 76.5313 200.824 75.6875 200.473C74.8438 200.098 74.1055 199.605 73.4727 198.996C72.8633 198.363 72.3711 197.625 71.9961 196.781C71.6445 195.938 71.4688 195.035 71.4688 194.074V184.652ZM78.3594 194.074H96.2188V184.652H78.3594V194.074ZM144.383 170.484V201H137.457V170.484H121.602V201H114.711V163.559H121.602V170.168C121.648 169.254 121.859 168.398 122.234 167.602C122.609 166.781 123.102 166.078 123.711 165.492C124.344 164.883 125.07 164.414 125.891 164.086C126.711 163.734 127.59 163.559 128.527 163.559H137.457C138.371 163.559 139.238 163.734 140.059 164.086C140.879 164.414 141.605 164.883 142.238 165.492C142.871 166.078 143.375 166.781 143.75 167.602C144.148 168.398 144.359 169.254 144.383 170.168C144.43 169.254 144.629 168.398 144.98 167.602C145.355 166.781 145.848 166.078 146.457 165.492C147.09 164.883 147.816 164.414 148.637 164.086C149.457 163.734 150.336 163.559 151.273 163.559H160.203C161.164 163.559 162.066 163.746 162.91 164.121C163.754 164.473 164.48 164.965 165.09 165.598C165.723 166.207 166.215 166.934 166.566 167.777C166.941 168.621 167.129 169.523 167.129 170.484V201H160.203V170.484H144.383ZM210.371 185.812H185.586V194.074H210.371V201H185.586C184.648 201 183.758 200.824 182.914 200.473C182.07 200.098 181.332 199.605 180.699 198.996C180.09 198.363 179.598 197.625 179.223 196.781C178.871 195.938 178.695 195.035 178.695 194.074V170.484C178.695 169.523 178.871 168.621 179.223 167.777C179.598 166.934 180.09 166.207 180.699 165.598C181.332 164.965 182.07 164.473 182.914 164.121C183.758 163.746 184.648 163.559 185.586 163.559H203.445C204.406 163.559 205.309 163.746 206.152 164.121C206.996 164.473 207.723 164.965 208.332 165.598C208.965 166.207 209.457 166.934 209.809 167.777C210.184 168.621 210.371 169.523 210.371 170.484V185.812ZM185.586 170.484V178.887H203.445V170.484H185.586ZM17.4688 227.793C17.4688 226.809 17.6563 225.883 18.0313 225.016C18.4063 224.125 18.9219 223.363 19.5781 222.73C20.2344 222.074 20.9961 221.559 21.8633 221.184C22.7539 220.785 23.6914 220.586 24.6758 220.586H52.0274C53.0117 220.586 53.9375 220.785 54.8047 221.184C55.6953 221.559 56.4688 222.074 57.125 222.73C57.7813 223.363 58.2969 224.125 58.6719 225.016C59.0469 225.883 59.2344 226.809 59.2344 227.793V234.297H52.0274V227.793H24.6758V263.793H52.0274V257.324H59.2344V263.793C59.2344 264.777 59.0469 265.715 58.6719 266.605C58.2969 267.473 57.7813 268.234 57.125 268.891C56.4688 269.547 55.6953 270.062 54.8047 270.438C53.9375 270.812 53.0117 271 52.0274 271H24.6758C23.6914 271 22.7539 270.812 21.8633 270.438C20.9961 270.062 20.2344 269.547 19.5781 268.891C18.9219 268.234 18.4063 267.473 18.0313 266.605C17.6563 265.715 17.4688 264.777 17.4688 263.793V227.793ZM70.0625 254.652C70.0625 253.691 70.2383 252.801 70.5899 251.98C70.9649 251.137 71.457 250.398 72.0664 249.766C72.6992 249.133 73.4375 248.641 74.2813 248.289C75.125 247.914 76.0156 247.727 76.9531 247.727H94.8125V240.484H72.207V233.559H94.8125C95.7734 233.559 96.6758 233.746 97.5195 234.121C98.3633 234.473 99.0899 234.965 99.6992 235.598C100.332 236.207 100.824 236.934 101.176 237.777C101.551 238.621 101.738 239.523 101.738 240.484V271H94.8125V264.672C94.7422 265.539 94.5078 266.359 94.1094 267.133C93.7109 267.906 93.1953 268.586 92.5625 269.172C91.9531 269.734 91.25 270.18 90.4531 270.508C89.6563 270.836 88.8125 271 87.9219 271H76.9531C76.0156 271 75.125 270.824 74.2813 270.473C73.4375 270.098 72.6992 269.605 72.0664 268.996C71.457 268.363 70.9649 267.625 70.5899 266.781C70.2383 265.938 70.0625 265.035 70.0625 264.074V254.652ZM76.9531 264.074H94.8125V254.652H76.9531V264.074ZM120.195 219.145V271H113.305V219.145H120.195ZM163.402 255.812H138.617V264.074H163.402V271H138.617C137.68 271 136.789 270.824 135.945 270.473C135.102 270.098 134.363 269.605 133.73 268.996C133.121 268.363 132.629 267.625 132.254 266.781C131.902 265.938 131.727 265.035 131.727 264.074V240.484C131.727 239.523 131.902 238.621 132.254 237.777C132.629 236.934 133.121 236.207 133.73 235.598C134.363 234.965 135.102 234.473 135.945 234.121C136.789 233.746 137.68 233.559 138.617 233.559H156.477C157.438 233.559 158.34 233.746 159.184 234.121C160.027 234.473 160.754 234.965 161.363 235.598C161.996 236.207 162.488 236.934 162.84 237.777C163.215 238.621 163.402 239.523 163.402 240.484V255.812ZM138.617 240.484V248.887H156.477V240.484H138.617ZM208.086 271H201.16V240.484H181.859V271H174.969V233.559H181.859V240.168C181.906 239.254 182.117 238.398 182.492 237.602C182.867 236.781 183.359 236.078 183.969 235.492C184.602 234.883 185.328 234.414 186.148 234.086C186.969 233.734 187.848 233.559 188.785 233.559H201.16C202.121 233.559 203.023 233.746 203.867 234.121C204.711 234.473 205.438 234.965 206.047 235.598C206.68 236.207 207.172 236.934 207.523 237.777C207.898 238.621 208.086 239.523 208.086 240.484V271ZM219.617 240.484C219.617 239.523 219.793 238.621 220.145 237.777C220.52 236.934 221.012 236.207 221.621 235.598C222.254 234.965 222.992 234.473 223.836 234.121C224.68 233.746 225.57 233.559 226.508 233.559H245.809V219.145H252.734V271H245.809V264.672C245.738 265.539 245.504 266.359 245.105 267.133C244.707 267.906 244.191 268.586 243.559 269.172C242.949 269.734 242.246 270.18 241.449 270.508C240.652 270.836 239.809 271 238.918 271H226.508C225.57 271 224.68 270.824 223.836 270.473C222.992 270.098 222.254 269.605 221.621 268.996C221.012 268.363 220.52 267.625 220.145 266.781C219.793 265.938 219.617 265.035 219.617 264.074V240.484ZM226.508 264.074H245.809V240.484H226.508V264.074ZM264.266 254.652C264.266 253.691 264.441 252.801 264.793 251.98C265.168 251.137 265.66 250.398 266.27 249.766C266.902 249.133 267.641 248.641 268.484 248.289C269.328 247.914 270.219 247.727 271.156 247.727H289.016V240.484H266.41V233.559H289.016C289.977 233.559 290.879 233.746 291.723 234.121C292.566 234.473 293.293 234.965 293.902 235.598C294.535 236.207 295.027 236.934 295.379 237.777C295.754 238.621 295.941 239.523 295.941 240.484V271H289.016V264.672C288.945 265.539 288.711 266.359 288.313 267.133C287.914 267.906 287.398 268.586 286.766 269.172C286.156 269.734 285.453 270.18 284.656 270.508C283.859 270.836 283.016 271 282.125 271H271.156C270.219 271 269.328 270.824 268.484 270.473C267.641 270.098 266.902 269.605 266.27 268.996C265.66 268.363 265.168 267.625 264.793 266.781C264.441 265.938 264.266 265.035 264.266 264.074V254.652ZM271.156 264.074H289.016V254.652H271.156V264.074ZM314.398 240.484V271H307.508V233.559H314.398V240.168C314.445 239.254 314.656 238.398 315.031 237.602C315.406 236.781 315.898 236.078 316.508 235.492C317.141 234.883 317.867 234.414 318.688 234.086C319.508 233.734 320.387 233.559 321.324 233.559H328.672C329.633 233.559 330.523 233.746 331.344 234.121C332.188 234.473 332.926 234.965 333.559 235.598C334.191 236.207 334.684 236.934 335.035 237.777C335.41 238.621 335.598 239.523 335.598 240.484V246.812H328.672V240.484H314.398Z" fill="black"/>
<path d="M287 0L287 62" stroke="black" stroke-width="10"/>
<line x1="76" y1="2.18557e-07" x2="76" y2="62" stroke="black" stroke-width="10"/>
<rect x="281" y="51" width="12" height="12" fill="black"/>
<rect x="70" y="51" width="12" height="12" fill="black"/>
</svg>
