<svg width="131" height="47" viewBox="0 0 131 47" fill="none" xmlns="http://www.w3.org/2000/svg">
<path d="M20.7188 46L11.375 13.0938H11.0938C11.5312 18.6979 11.75 23.0521 11.75 26.1562V46H0.8125V0.3125H17.25L26.7812 32.75H27.0312L36.375 0.3125H52.8438V46H41.5V25.9688C41.5 24.9271 41.5104 23.7708 41.5312 22.5C41.5729 21.2292 41.7188 18.1146 41.9688 13.1562H41.6875L32.4688 46H20.7188ZM85.0625 46L82.7188 41.3125H82.4688C80.8229 43.3542 79.1458 44.75 77.4375 45.5C75.7292 46.25 73.5208 46.625 70.8125 46.625C67.4792 46.625 64.8542 45.625 62.9375 43.625C61.0208 41.625 60.0625 38.8125 60.0625 35.1875C60.0625 31.4167 61.375 28.6146 64 26.7812C66.625 24.9271 70.4271 23.8854 75.4062 23.6562L81.3125 23.4688V22.9688C81.3125 20.0521 79.875 18.5938 77 18.5938C74.4167 18.5938 71.1354 19.4688 67.1562 21.2188L63.625 13.1562C67.75 11.0312 72.9583 9.96875 79.25 9.96875C83.7917 9.96875 87.3021 11.0938 89.7812 13.3438C92.2812 15.5938 93.5312 18.7396 93.5312 22.7812V46H85.0625ZM76 38C77.4792 38 78.7396 37.5312 79.7812 36.5938C80.8438 35.6562 81.375 34.4375 81.375 32.9375V30.1875L78.5625 30.3125C74.5417 30.4583 72.5312 31.9375 72.5312 34.75C72.5312 36.9167 73.6875 38 76 38ZM117.969 46.625C112.177 46.625 107.781 45.0625 104.781 41.9375C101.802 38.8125 100.312 34.3229 100.312 28.4688C100.312 22.5938 101.927 18.0417 105.156 14.8125C108.385 11.5833 112.979 9.96875 118.938 9.96875C123.042 9.96875 126.906 10.8646 130.531 12.6562L126.938 21.6875C125.458 21.0417 124.094 20.5312 122.844 20.1562C121.594 19.7604 120.292 19.5625 118.938 19.5625C116.958 19.5625 115.427 20.3333 114.344 21.875C113.26 23.4167 112.719 25.5938 112.719 28.4062C112.719 34.0729 114.812 36.9062 119 36.9062C122.583 36.9062 126.021 35.8646 129.312 33.7812V43.5C126.167 45.5833 122.385 46.625 117.969 46.625Z" fill="black"/>
</svg>
