<svg width="175" height="212" viewBox="0 0 175 212" fill="none" xmlns="http://www.w3.org/2000/svg">
<path d="M168.096 167.071C168.093 167.068 168.091 167.066 168.091 167.063C166.599 165.375 165.888 162.244 165.124 158.909C164.362 155.576 163.509 151.982 160.781 149.652C160.776 149.647 160.769 149.642 160.764 149.637C160.223 149.164 159.668 148.765 159.11 148.432C158.55 148.099 157.982 147.828 157.414 147.613C161.207 136.333 159.72 125.1 155.89 114.951C151.193 102.492 142.991 91.6382 136.726 84.2133C129.714 75.3413 122.856 66.9205 122.992 54.4815C123.2 35.4977 125.073 0.293344 91.7644 0.246506C90.4101 0.244041 88.9968 0.300739 87.5246 0.419065C50.3027 3.42404 60.1759 42.8659 59.6229 56.0715C58.9421 65.7299 56.9905 73.3421 50.3666 82.7835C42.5874 92.0622 31.6303 107.082 26.4417 122.718C23.9937 130.097 22.8286 137.617 23.9027 144.737C23.566 145.04 23.2465 145.358 22.9393 145.683C20.6559 148.131 18.9673 151.094 17.0871 153.088C15.3297 154.849 12.8276 155.517 10.0748 156.505C7.32198 157.496 4.30126 158.955 2.4677 162.485C2.4677 162.485 2.4677 162.488 2.46524 162.488C2.46278 162.493 2.46032 162.5 2.45541 162.505C1.5927 164.12 1.3125 165.863 1.3125 167.63C1.3125 169.264 1.55337 170.921 1.7967 172.516C2.30302 175.834 2.81671 178.972 2.13589 181.097C-0.0417823 187.07 -0.321979 191.199 1.21173 194.197C2.75035 197.199 5.90871 198.523 9.47999 199.273C16.6225 200.766 26.2942 200.397 33.9161 204.449L34.5723 203.209L33.9235 204.452C42.0836 208.731 50.3567 210.25 56.9561 208.739C61.744 207.644 65.6274 204.785 67.6232 200.387C72.7847 200.362 78.4501 198.168 87.5246 197.668C93.6815 197.17 101.372 199.862 110.218 199.369C110.449 200.33 110.784 201.257 111.24 202.137C111.246 202.144 111.25 202.154 111.255 202.162C114.684 209.039 121.055 212.185 127.846 211.647C134.644 211.11 141.873 207.089 147.718 200.116L146.646 199.213L147.726 200.106C153.295 193.332 162.539 190.524 168.671 186.816C171.736 184.963 174.221 182.641 174.415 179.268C174.607 175.898 172.633 172.122 168.096 167.071Z" fill="black"/>
<path d="M171.618 179.108C171.5 181.188 169.998 182.734 167.223 184.41C161.678 187.765 151.849 190.684 145.574 198.309C140.123 204.814 133.477 208.386 127.625 208.85C121.773 209.313 116.724 206.877 113.745 200.885L113.74 200.872L113.733 200.857C111.884 197.332 112.654 191.773 114.209 185.907C115.765 180.042 118.002 174.017 118.302 169.124V169.109C118.616 162.838 118.968 157.36 120.017 153.133C121.069 148.905 122.723 146.046 125.653 144.436C125.791 144.362 125.926 144.29 126.061 144.224C126.393 149.654 129.075 155.196 133.813 156.394C138.999 157.765 146.474 153.303 149.63 149.662C150.261 149.637 150.876 149.605 151.473 149.59C154.243 149.524 156.563 149.684 158.938 151.765L158.945 151.772L158.952 151.777C160.776 153.328 161.643 156.256 162.396 159.535C163.148 162.816 163.747 166.388 166.004 168.934L166.006 168.937L166.009 168.942C170.345 173.766 171.738 177.025 171.618 179.108Z" fill="#D6A312"/>
<path d="M66.237 194.485L66.2346 194.5V194.517C65.7332 201.109 62.0267 204.698 56.3343 206.002C50.6468 207.306 42.9315 206.008 35.2286 201.967C35.2261 201.967 35.2237 201.964 35.2212 201.964C26.6973 197.436 16.5586 197.887 10.0527 196.524C6.80091 195.844 4.67732 194.818 3.704 192.915C2.73069 191.01 2.70857 187.689 4.77809 182.027L4.78792 182.002L4.7953 181.977C5.82023 178.809 5.06075 175.343 4.56426 172.09C4.06777 168.838 3.82444 165.878 4.93294 163.817L4.94277 163.797C6.36096 161.056 8.44031 160.075 11.0211 159.148C13.6043 158.218 16.6643 157.489 19.0804 155.058L19.0952 155.046L19.1074 155.033C21.3416 152.669 23.0204 149.704 24.9842 147.601C26.6408 145.826 28.2999 144.65 30.7995 144.633C30.829 144.636 30.856 144.636 30.8855 144.633C31.323 144.636 31.7876 144.673 32.2791 144.749C35.5973 145.252 38.4902 147.579 41.2774 151.37L49.3244 166.08L49.3269 166.087L49.3318 166.092C51.4726 170.576 55.9951 175.509 59.8269 180.54C63.6587 185.569 66.6229 190.62 66.237 194.485Z" fill="#D6A312"/>
<path d="M106.369 57.3608C105.723 56.0913 104.403 54.8834 102.156 53.9589L102.151 53.9565L102.144 53.954C97.4716 51.9474 95.4438 51.8044 92.836 50.1035C88.5913 47.3672 85.0839 46.4083 82.1689 46.4206C80.6426 46.4255 79.2784 46.6967 78.0569 47.1207C74.5053 48.3459 72.1482 50.9022 70.671 52.3048L70.6685 52.3073C70.6685 52.3098 70.6661 52.3098 70.6661 52.3122C70.3761 52.5883 70.0025 52.8398 69.098 53.5054C68.1861 54.1734 66.8195 55.1792 64.8532 56.6582C63.1057 57.9722 62.5379 59.6829 63.1426 61.6871C63.7447 63.6912 65.6717 66.0035 69.1963 68.0027L69.2012 68.0076L69.2086 68.0101C71.3961 69.2994 72.8905 71.0373 74.606 72.4202C75.4638 73.1104 76.3659 73.7267 77.4523 74.1926C78.5386 74.6585 79.8069 74.9741 81.3947 75.0677C85.1208 75.2847 87.8638 74.163 90.2848 72.7727C92.7107 71.3848 94.7652 69.6864 97.1226 68.9197L97.1275 68.9173L97.1326 68.9148C101.965 67.4012 105.411 64.3519 106.489 61.4554C107.03 60.0059 107.013 58.6303 106.369 57.3608Z" fill="#D6A312"/>
<path d="M94.1092 64.5146C90.2649 66.5243 85.7746 68.9616 80.9965 68.9616C76.2209 68.9616 72.448 66.748 69.7346 64.591C68.3778 63.5137 67.2767 62.4414 66.4459 61.6624C65.0046 60.5213 65.1772 58.9208 65.7694 58.9681C66.7621 59.0923 66.9121 60.4032 67.5372 60.9894C68.3827 61.7832 69.4421 62.8112 70.7251 63.8317C73.2911 65.8704 76.7124 67.8548 80.9965 67.8548C85.2732 67.8548 90.2655 65.3366 93.3128 63.6222C95.0393 62.6509 97.2362 60.9098 99.029 59.5899C100.401 58.5801 100.351 57.3641 101.483 57.4965C102.616 57.6289 101.778 58.8424 100.192 60.2307C98.6058 61.619 96.1246 63.461 94.1092 64.5146V64.5146Z" fill="#202020"/>
<path d="M152.975 146.79C152.442 146.771 151.916 146.773 151.404 146.785C151.358 146.788 151.311 146.788 151.262 146.788C152.582 142.607 149.662 139.523 141.88 135.993C133.811 132.434 127.381 132.786 126.295 140.009C126.226 140.386 126.17 140.773 126.128 141.162C125.523 141.374 124.919 141.641 124.309 141.973C120.521 144.054 118.452 147.826 117.302 152.455C116.154 157.08 115.822 162.668 115.507 168.952C115.507 168.954 115.507 168.954 115.507 168.957C115.313 172.115 114.015 176.389 112.703 180.915C99.4845 190.374 81.139 194.471 65.5611 183.807C64.5067 182.133 63.2949 180.474 62.0488 178.837C61.2525 177.792 60.434 176.754 59.6229 175.729C61.2205 175.731 62.5797 175.467 63.6784 174.97C65.0449 174.346 66.0035 173.35 66.4803 172.068C67.4291 169.507 66.4754 165.893 63.435 161.764C60.3947 157.637 55.2454 152.98 47.6801 148.326C47.6801 148.326 47.6801 148.326 47.6801 148.324C42.1204 144.855 39.0137 140.605 37.5586 135.991C36.1011 131.374 36.3051 126.382 37.4284 121.454C39.5815 111.995 45.1117 102.796 48.6411 97.0223C49.5899 96.3222 48.9803 98.3239 45.0674 105.611C41.5625 112.272 35.0074 127.644 43.981 139.644C44.2219 131.105 46.2546 122.396 49.6685 114.249C54.6408 102.946 65.04 83.3409 65.8659 67.717C66.2935 68.0276 67.756 69.0186 68.4073 69.3908C68.4098 69.3933 68.4098 69.3933 68.4122 69.3933C70.3195 70.5198 71.7525 72.1665 73.6081 73.6629C75.4687 75.1616 77.7914 76.4558 81.3013 76.6604C81.638 76.6802 81.9673 76.69 82.2893 76.69C85.9073 76.69 88.7289 75.5068 91.0786 74.1583C93.6326 72.6941 95.6724 71.072 97.607 70.4409C97.6094 70.4385 97.6119 70.4385 97.6144 70.4385C101.702 69.1566 104.949 66.8887 106.797 64.2461C109.972 76.7985 117.356 94.9294 122.102 103.777C124.626 108.47 129.645 118.444 131.813 130.462C133.187 130.419 134.701 130.619 136.321 131.036C141.991 116.292 131.513 100.414 126.72 95.9916C124.786 94.1083 124.693 93.2652 125.654 93.3047C130.85 97.9169 137.675 107.188 140.158 117.655C141.29 122.427 141.531 127.447 140.317 132.399C140.909 132.645 141.514 132.914 142.126 133.205C151.228 137.65 154.592 141.515 152.975 146.79Z" fill="white"/>
<path d="M106.797 42.9004C106.816 45.3877 106.389 47.5053 105.447 49.6672C104.911 50.8997 104.295 51.9351 103.555 52.8324C103.304 52.7116 103.044 52.5957 102.773 52.4848C101.837 52.083 101.008 51.7527 100.266 51.4716C99.5239 51.1906 98.9446 50.9986 98.3471 50.7915C98.7799 50.2664 99.6325 49.6477 99.9498 48.8712C100.432 47.7003 100.668 46.5564 100.712 45.1932C100.712 45.139 100.729 45.0922 100.729 45.0281C100.756 43.7216 100.584 42.6049 100.203 41.461C99.8048 40.2605 99.2983 39.3977 98.5661 38.6804C97.8312 37.963 97.0987 37.6377 96.2188 37.6081C96.177 37.6056 96.1377 37.6056 96.0959 37.6056C95.2701 37.6081 94.5524 37.894 93.8098 38.5152C93.0307 39.1685 92.4531 40.0042 91.9716 41.1677C91.4923 42.3312 91.2564 43.4849 91.2094 44.8555C91.2023 44.9097 91.2023 44.9566 91.2023 45.0108C91.1851 45.7651 91.2342 46.4554 91.3498 47.1259C89.6588 46.2804 87.4953 45.6638 86.0009 45.3064C85.9149 44.658 85.8658 43.99 85.851 43.2899V43.1001C85.824 40.6202 86.2295 38.4928 87.1807 36.3333C88.1319 34.1714 89.3092 32.6184 90.9656 31.3538C92.6246 30.0917 94.2544 29.5124 96.1836 29.4926H96.2746C98.1622 29.4926 99.777 30.0498 101.436 31.2552C103.12 32.4828 104.334 34.0161 105.312 36.1608C106.271 38.2512 106.733 40.2948 106.78 42.718C106.779 42.7821 106.779 42.8363 106.797 42.9004V42.9004Z" fill="white"/>
<path d="M78.2658 45.3779C78.0176 45.4493 77.7767 45.5258 77.5383 45.6071C76.1865 46.0755 75.1131 46.5924 74.0759 47.2802C74.1767 46.5603 74.1914 45.8307 74.1128 45.0147C74.1054 44.9703 74.1054 44.9334 74.1054 44.889C73.9973 43.8068 73.7687 42.8996 73.3877 41.9826C72.9822 41.0286 72.5275 40.3556 71.9302 39.838C71.3895 39.3696 70.8782 39.1527 70.3129 39.1576C70.2564 39.1576 70.1974 39.1601 70.1384 39.165C69.5043 39.2192 68.9783 39.5298 68.4794 40.1387C67.9829 40.7451 67.656 41.4995 67.42 42.5003C67.1841 43.4987 67.1226 44.4798 67.2209 45.6063C67.2209 45.6507 67.2308 45.6877 67.2308 45.7321C67.3389 46.8241 67.5577 47.7313 67.946 48.6483C68.3442 49.5924 68.8063 50.2654 69.4035 50.7831C69.5043 50.8694 69.6026 50.9482 69.7009 51.0173C69.0815 51.498 68.6654 51.8389 68.1542 52.2136C67.8273 52.4527 67.4389 52.7387 66.9867 53.074C66.0011 52.1471 65.2317 50.9835 64.5583 49.4478C63.7619 47.6334 63.3367 45.8166 63.2089 43.672V43.6547C63.091 41.5101 63.2999 39.6662 63.8873 37.7582C64.4772 35.8502 65.2637 34.4697 66.4066 33.3358C67.5471 32.1993 68.6973 31.6274 70.0836 31.5559C70.1917 31.551 70.2974 31.5486 70.4031 31.5486C71.6591 31.551 72.7798 31.9701 73.94 32.8994C75.1984 33.9077 76.1496 35.1969 76.9459 37.0137C77.7447 38.8305 78.1699 40.6473 78.2879 42.7919V42.8092C78.3445 43.709 78.3371 44.557 78.2658 45.3779V45.3779Z" fill="white"/>
<path d="M84.5718 50.5077C84.7308 51.0195 85.5533 50.9347 86.0284 51.1802C86.4454 51.3956 86.7808 51.8677 87.2496 51.8812C87.697 51.8942 88.3934 51.7258 88.4516 51.2807C88.5285 50.6926 87.6722 50.3189 87.1212 50.1034C86.4122 49.8262 85.5038 49.6855 84.8387 50.0564C84.6863 50.1414 84.52 50.3407 84.5718 50.5077V50.5077Z" fill="#202020"/>
<path d="M79.714 50.5077C79.5551 51.0195 78.7326 50.9347 78.2574 51.1802C77.8405 51.3956 77.5051 51.8677 77.0363 51.8812C76.5889 51.8942 75.8925 51.7258 75.8343 51.2807C75.7574 50.6926 76.6137 50.3189 77.1646 50.1034C77.8737 49.8262 78.782 49.6855 79.4472 50.0564C79.5996 50.1414 79.7659 50.3407 79.714 50.5077V50.5077Z" fill="#202020"/>
</svg>
