<svg width="518" height="518" viewBox="0 0 518 518" fill="none" xmlns="http://www.w3.org/2000/svg">
<rect width="518" height="518" fill="#003791"/>
<path fill-rule="evenodd" clip-rule="evenodd" d="M202.38 247.309V410.31L203.264 410.532C203.755 410.655 204.047 410.919 203.919 411.126C203.788 411.337 203.858 411.392 204.082 411.254C204.653 410.901 206.32 411.395 206.046 411.835C205.914 412.051 205.988 412.102 206.224 411.955C206.804 411.597 210.931 412.813 210.655 413.262C210.524 413.471 210.602 413.518 210.839 413.373C211.063 413.233 211.447 413.247 211.691 413.401C211.935 413.556 212.374 413.694 212.667 413.708C213.71 413.756 218.697 415.431 218.697 415.734C218.697 415.903 218.857 415.942 219.052 415.822C219.247 415.702 219.407 415.732 219.407 415.889C219.407 416.047 220.077 416.222 220.895 416.278C221.713 416.336 222.59 416.554 222.845 416.766C223.1 416.977 223.308 417.027 223.308 416.874C223.308 416.723 223.617 416.879 223.996 417.221C224.374 417.563 224.853 417.737 225.06 417.609C225.267 417.481 225.437 417.54 225.437 417.74C225.437 417.942 225.647 418.025 225.904 417.926C226.161 417.827 226.839 417.991 227.411 418.29C227.984 418.588 228.741 418.834 229.095 418.835C230.153 418.839 233.241 419.956 233.241 420.335C233.241 420.528 233.49 420.591 233.796 420.473C234.101 420.357 234.798 420.493 235.345 420.775C235.892 421.058 236.719 421.365 237.184 421.457C239.682 421.956 240.336 422.139 240.336 422.34C240.336 422.462 240.771 422.586 241.3 422.617C241.831 422.648 242.323 422.85 242.395 423.064C242.466 423.277 242.671 423.363 242.849 423.252C243.028 423.142 243.174 423.2 243.174 423.379C243.174 423.559 243.572 423.662 244.061 423.608C244.548 423.555 244.948 423.684 244.948 423.894C244.948 424.105 245.04 424.184 245.153 424.07C245.267 423.957 245.906 424.092 246.573 424.37C247.24 424.649 247.786 424.79 247.786 424.682C247.786 424.576 248.144 424.686 248.583 424.927C249.023 425.169 249.541 425.406 249.736 425.457C249.931 425.507 251.448 425.96 253.107 426.464C254.764 426.967 256.281 427.42 256.476 427.47C256.671 427.521 257.151 427.733 257.541 427.942C257.931 428.151 258.889 428.435 259.669 428.572C260.449 428.709 261.447 429.054 261.886 429.336C262.325 429.619 262.684 429.747 262.684 429.621C262.684 429.495 262.923 429.591 263.216 429.834C263.509 430.076 263.748 430.187 263.748 430.08C263.748 429.971 264.267 430.041 264.901 430.233C265.535 430.425 266.294 430.638 266.587 430.707C266.878 430.775 267.996 431.146 269.069 431.529C271.864 432.527 274.747 433.381 275.319 433.381C275.739 433.381 275.798 413.058 275.722 296.099C275.662 204.756 275.75 158.815 275.987 158.812C276.182 158.808 276.153 158.686 275.922 158.539C275.448 158.238 275.822 154.105 276.43 152.929C276.621 152.558 276.711 152.07 276.63 151.843C276.548 151.618 276.643 151.333 276.839 151.212C277.036 151.09 277.118 150.785 277.022 150.535C276.827 150.024 278.993 145.549 279.968 144.451C280.699 143.626 282.549 142.378 282.549 142.707C282.549 142.832 282.841 142.572 283.198 142.132C283.995 141.147 288.173 140.748 290.505 141.433C292.794 142.107 295.98 143.634 296.18 144.153C296.28 144.414 296.563 144.628 296.81 144.628C297.338 144.628 300.995 148.437 300.995 148.986C300.995 149.192 301.209 149.613 301.471 149.92C301.992 150.536 303.402 153.939 303.631 155.137C303.711 155.551 303.943 156.501 304.149 157.245C304.355 157.99 304.454 158.67 304.368 158.756C304.283 158.84 304.375 159.212 304.571 159.58C305.162 160.682 305.197 164.12 305.225 222.758C305.25 273.079 305.31 279.072 305.796 279.072C306.094 279.072 306.43 279.311 306.543 279.602C306.654 279.893 306.871 280.055 307.025 279.96C307.377 279.742 309.739 280.711 310.038 281.195C310.16 281.393 310.721 281.555 311.282 281.555C311.845 281.555 312.392 281.695 312.497 281.867C312.604 282.037 313.41 282.359 314.292 282.581C315.173 282.802 315.894 283.151 315.894 283.356C315.894 283.561 316.174 283.699 316.515 283.665C316.856 283.631 317.215 283.632 317.313 283.67C317.411 283.707 317.73 283.802 318.023 283.881C318.316 283.959 319.992 284.429 321.748 284.926C323.504 285.422 325.653 285.916 326.525 286.024C327.396 286.132 328.238 286.3 328.394 286.396C328.551 286.493 329.424 286.645 330.336 286.734C331.246 286.824 332.88 286.998 333.965 287.121C337.35 287.506 342.618 287.311 345.869 286.681C346.65 286.53 347.794 286.391 348.411 286.375C349.029 286.358 349.457 286.267 349.363 286.173C349.269 286.079 349.961 285.793 350.901 285.537C353.561 284.811 353.597 284.798 356.61 283.455C357.64 282.995 358.606 282.619 358.755 282.619C358.905 282.619 360.137 281.888 361.494 280.996C362.851 280.104 364.113 279.345 364.298 279.311C364.484 279.277 365.242 278.663 365.983 277.947C366.724 277.231 367.331 276.696 367.331 276.76C367.331 276.823 368.409 275.732 369.725 274.338C371.042 272.942 372.319 271.672 372.563 271.517C372.806 271.36 373.007 271.072 373.007 270.876C373.007 270.68 373.485 270.01 374.069 269.387C374.654 268.763 375.132 268.043 375.133 267.788C375.134 267.533 375.295 267.422 375.489 267.544C375.685 267.664 375.845 267.514 375.845 267.21C375.845 266.905 376.004 266.656 376.199 266.656C376.394 266.656 376.535 266.537 376.512 266.39C376.395 265.651 376.609 265.237 377.107 265.237C377.411 265.237 377.575 265.1 377.47 264.931C377.245 264.566 378.605 261.624 379.173 261.251C379.39 261.108 379.434 260.989 379.268 260.986C379.102 260.983 379.276 260.458 379.653 259.817C380.031 259.177 380.448 258.22 380.582 257.689C380.715 257.158 380.991 256.723 381.193 256.723C381.396 256.723 381.471 256.577 381.36 256.397C381.249 256.218 381.392 255.838 381.677 255.553C381.962 255.268 382.1 254.939 381.984 254.823C381.593 254.432 382.978 250.675 383.416 250.938C383.641 251.073 383.607 250.914 383.339 250.584C383.072 250.254 383.004 249.984 383.191 249.984C383.377 249.984 383.53 249.784 383.531 249.54C383.533 248.991 384.338 245.387 384.621 244.663C384.896 243.959 384.878 244.036 385.245 242.002C385.421 241.026 385.595 240.069 385.631 239.874C385.666 239.679 385.734 239.4 385.781 239.253C385.827 239.107 385.905 238.508 385.954 237.923C386.003 237.337 386.084 236.819 386.134 236.77C386.184 236.721 386.276 235.883 386.338 234.907C386.398 233.932 386.557 231.777 386.691 230.118C386.824 228.461 386.946 226.825 386.964 226.483C386.98 226.142 387.096 225.861 387.223 225.861C387.35 225.861 387.304 225.04 387.121 224.037C386.939 223.032 386.921 222.115 387.081 221.997C387.462 221.717 387.482 219.005 387.105 218.739C386.945 218.624 386.951 217.388 387.119 215.988C387.286 214.59 387.308 213.446 387.169 213.446C387.03 213.446 386.939 212.409 386.969 211.14C386.998 209.873 386.896 208.835 386.742 208.835C386.587 208.835 386.632 208.516 386.841 208.126C387.049 207.736 387.094 207.415 386.938 207.415C386.783 207.415 386.636 206.897 386.613 206.263C386.541 204.307 386.174 198.369 386.124 198.369C385.952 198.369 385.317 193.677 385.273 192.074C385.257 191.537 385.135 191.098 385 191.098C384.867 191.098 384.775 190.819 384.798 190.477C384.82 190.136 384.641 189.046 384.4 188.056C384.16 187.065 383.99 186.108 384.025 185.927C384.059 185.748 384.049 185.48 384.001 185.333C383.954 185.187 383.88 184.948 383.839 184.801C383.798 184.655 383.672 184.296 383.56 184.003C383.273 183.251 382.933 181.878 382.727 180.634C382.63 180.048 382.453 179.33 382.333 179.037C382.211 178.744 382.085 178.425 382.052 178.327C382.018 178.23 381.894 177.911 381.775 177.618C381.658 177.325 381.166 175.809 380.683 174.248C380.2 172.687 379.606 170.931 379.364 170.346C379.121 169.761 378.949 169.162 378.979 169.016C379.011 168.87 378.878 168.75 378.682 168.75C378.488 168.75 378.323 168.471 378.316 168.129C378.31 167.788 378.076 167.205 377.795 166.835C377.515 166.465 377.358 166.044 377.448 165.9C377.537 165.756 377.372 165.44 377.081 165.199C376.791 164.958 376.554 164.556 376.554 164.304C376.554 164.052 376.134 163.207 375.623 162.426C375.11 161.643 374.699 160.871 374.705 160.708C374.713 160.546 374.54 160.197 374.32 159.933C374.1 159.667 373.755 159.159 373.552 158.804C372.306 156.614 368.862 151.751 367.331 150.02C365.273 147.693 363.929 146.092 363.453 145.403C363.174 144.998 362.814 144.746 362.654 144.845C362.495 144.944 362.365 144.776 362.365 144.471C362.365 144.167 362.182 143.919 361.958 143.919C361.735 143.919 360.538 142.898 359.298 141.653C358.058 140.407 357.043 139.472 357.043 139.576C357.043 139.68 356.667 139.358 356.205 138.861C355.744 138.363 354.876 137.702 354.276 137.392C353.675 137.082 352.961 136.509 352.688 136.119C352.414 135.729 352.108 135.493 352.006 135.595C351.903 135.697 351.319 135.312 350.707 134.74C350.095 134.17 349.594 133.784 349.594 133.886C349.594 134.053 347.177 132.341 346.756 131.876C346.659 131.768 345.98 131.376 345.248 131.003C344.517 130.631 343.919 130.183 343.919 130.006C343.919 129.831 343.77 129.779 343.588 129.891C343.406 130.003 343.164 129.942 343.048 129.756C342.933 129.568 342.124 129.059 341.25 128.623C340.376 128.186 339.662 127.671 339.662 127.478C339.662 127.286 339.566 127.223 339.45 127.339C339.334 127.455 338.655 127.217 337.942 126.81C336.428 125.944 331.563 123.526 328.086 121.909C326.746 121.287 325.021 120.477 324.253 120.11C323.484 119.742 322.73 119.441 322.576 119.441C322.423 119.441 321.284 118.978 320.047 118.411C318.809 117.844 317.129 117.18 316.314 116.936C315.498 116.691 314.83 116.382 314.83 116.25C314.83 116.116 314.151 115.815 313.322 115.579C312.494 115.345 311.495 115.016 311.105 114.852C310.199 114.467 306.933 113.275 306.583 113.201C306.436 113.17 306.237 113.105 306.139 113.057C305.948 112.961 305.941 112.958 304.366 112.535C303.78 112.378 303.141 112.125 302.947 111.976C302.751 111.825 301.555 111.433 300.286 111.105C299.017 110.777 297.324 110.21 296.522 109.845C295.72 109.48 294.524 109.09 293.862 108.977C293.2 108.865 292.46 108.509 292.216 108.187C291.972 107.864 291.772 107.769 291.772 107.975C291.772 108.3 289.067 107.605 287.161 106.791C286.868 106.666 286.39 106.503 286.097 106.427C285.804 106.352 285.405 106.242 285.21 106.181C285.014 106.122 284.376 105.956 283.79 105.813C283.206 105.669 282.407 105.417 282.017 105.252C281.381 104.983 280.155 104.668 279.179 104.52C278.984 104.491 278.209 104.153 277.457 103.77C276.705 103.385 276.194 103.241 276.322 103.448C276.465 103.679 276.342 103.743 276.005 103.614C275.702 103.497 275.455 103.295 275.455 103.162C275.455 103.029 275.175 102.9 274.834 102.875C274.168 102.825 273.994 102.781 271.553 102.066C270.674 101.809 269.637 101.556 269.246 101.504C268.856 101.452 268.058 101.21 267.473 100.966C266.184 100.429 266.297 100.467 264.99 100.136C264.405 99.9886 263.461 99.6568 262.893 99.4005C262.325 99.1431 261.646 99.015 261.385 99.1157C261.124 99.2164 260.91 99.1111 260.91 98.8846C260.91 98.6569 260.761 98.562 260.581 98.6741C260.399 98.7873 260.16 98.7313 260.047 98.5517C259.936 98.3709 259.506 98.3126 259.091 98.4213C258.604 98.5494 258.222 98.411 258.009 98.0312C257.78 97.6227 257.416 97.5106 256.812 97.6616C256.305 97.7886 255.944 97.7257 255.944 97.5083C255.944 97.3047 255.645 97.1606 255.28 97.188C254.711 97.2303 252.814 96.7567 250.978 96.1138C250.685 96.0108 250.207 95.9101 249.914 95.8896C248.764 95.8083 246.011 94.7902 246.006 94.4447C246.003 94.2433 245.867 94.2891 245.703 94.5476C245.46 94.9309 245.304 94.9171 244.864 94.4755C244.567 94.1781 244.234 94.0225 244.126 94.1301C244.019 94.2387 243.72 94.1953 243.464 94.0351C242.974 93.7296 242.614 93.6393 240.868 93.3899C240.097 93.2801 229.638 90.5893 227.565 89.9681C227.468 89.9384 227.262 89.9361 227.108 89.9613C226.953 89.9876 226.492 89.8297 226.083 89.61C225.674 89.3915 224.843 89.1421 224.235 89.0563C223.628 88.9705 222.892 88.8047 222.599 88.688C222.306 88.5701 221.69 88.5118 221.229 88.5575C220.726 88.6079 220.482 88.4946 220.618 88.2738C220.754 88.0553 220.558 87.9627 220.133 88.045C219.741 88.1194 219.333 88.0382 219.225 87.8643C219.118 87.6892 218.823 87.6263 218.57 87.7224C218.317 87.8197 217.643 87.711 217.074 87.4822C216.503 87.2522 215.485 86.9983 214.811 86.9182C214.136 86.8369 213.417 86.6413 213.214 86.4823C213.01 86.3233 212.485 86.2249 212.046 86.2627C211.606 86.3015 211.248 86.2398 211.248 86.1254C211.248 86.011 210.809 85.8989 210.272 85.8748C209.45 85.8382 206.479 85.2605 203.177 84.4951L202.38 84.3098V247.309ZM186.062 282.283C185.184 282.642 184.265 282.87 184.022 282.789C183.778 282.708 183.578 282.807 183.578 283.01C183.578 283.222 183.262 283.276 182.825 283.138C182.324 282.979 182.151 283.028 182.309 283.284C182.459 283.527 182.015 283.755 181.113 283.9C180.322 284.025 179.677 284.243 179.677 284.382C179.677 284.659 175.406 286.037 174.976 285.898C174.83 285.85 174.711 285.978 174.711 286.182C174.711 286.386 174.51 286.513 174.267 286.464C174.023 286.416 173.323 286.644 172.712 286.969C172.101 287.295 171.069 287.654 170.421 287.769C169.772 287.883 169.074 288.099 168.872 288.249C168.668 288.399 167.784 288.739 166.906 289.004C166.028 289.27 165.146 289.608 164.944 289.757C164.743 289.906 164.142 290.106 163.61 290.202C163.077 290.299 161.569 290.806 160.261 291.33C158.951 291.854 157.715 292.32 157.515 292.363C157.315 292.406 156.702 292.627 156.152 292.852C155.603 293.077 155.003 293.261 154.817 293.261C154.632 293.261 154.203 293.411 153.864 293.594C153.141 293.985 148.826 295.542 147.041 296.057C146.358 296.254 144.731 296.805 143.423 297.281C142.116 297.757 140.959 298.058 140.851 297.95C140.744 297.843 140.656 297.921 140.656 298.122C140.656 298.475 137.569 299.536 137.02 299.371C136.873 299.328 136.753 299.447 136.753 299.636C136.753 299.824 136.53 299.893 136.258 299.789C135.985 299.684 135.654 299.772 135.523 299.983C135.393 300.195 135.127 300.269 134.933 300.149C134.739 300.03 134.311 300.163 133.982 300.447C133.653 300.729 131.388 301.643 128.95 302.477C126.511 303.31 124.322 304.145 124.088 304.333C123.852 304.52 123.493 304.571 123.289 304.445C123.086 304.319 122.919 304.359 122.919 304.533C122.919 304.707 122.72 304.866 122.476 304.888C121.961 304.932 120.655 305.234 120.524 305.34C120.476 305.378 120.316 305.445 120.17 305.486C119.534 305.666 118.419 306.121 117.598 306.537C117.111 306.784 115.513 307.359 114.05 307.814C112.587 308.269 111.286 308.797 111.159 308.986C111.034 309.173 110.685 309.234 110.385 309.118C110.085 309.004 109.79 309.055 109.728 309.234C109.666 309.412 109.297 309.608 108.907 309.667C108.517 309.728 108.037 309.871 107.843 309.987C107.551 310.158 105.122 311.025 104.473 311.19C104.375 311.214 103.817 311.445 103.231 311.703C102.19 312.161 101.733 312.316 100.837 312.516C100.593 312.57 100.234 312.707 100.038 312.821C99.5716 313.094 97.565 313.572 97.5215 313.421C97.5021 313.357 97.2081 313.535 96.866 313.819C96.5239 314.103 95.9462 314.381 95.5824 314.436C94.2805 314.635 94.0185 314.729 93.5484 315.166C93.2852 315.41 92.6835 315.609 92.2087 315.609C91.7351 315.609 91.3473 315.749 91.3473 315.919C91.3473 316.178 89.3304 316.72 87.953 316.832C87.7448 316.85 87.1339 317.152 86.5962 317.503C86.0585 317.855 85.2714 318.221 84.847 318.316C84.4225 318.411 83.9157 318.527 83.7213 318.574C83.5256 318.62 83.0051 318.857 82.5635 319.1C82.1231 319.342 81.2856 319.575 80.7022 319.615C80.1199 319.656 79.6428 319.797 79.6417 319.927C79.6417 320.176 77.849 320.814 76.6261 321C76.236 321.06 75.6937 321.32 75.4203 321.579C75.148 321.837 74.6286 321.972 74.2671 321.879C73.9067 321.784 73.6104 321.86 73.6104 322.049C73.6104 322.237 73.4514 322.293 73.2558 322.173C73.0613 322.051 72.9011 322.103 72.9011 322.286C72.9011 322.728 70.9083 323.539 70.477 323.272C70.2905 323.158 70.0514 323.289 69.945 323.565C69.8398 323.841 69.4771 324.026 69.1396 323.977C68.8021 323.928 68.221 324.192 67.848 324.565C67.4762 324.938 66.9442 325.155 66.6663 325.049C66.3883 324.942 66.1617 325.003 66.1617 325.184C66.1617 325.366 65.4833 325.712 64.6539 325.954C63.8245 326.196 63.066 326.504 62.9688 326.638C62.8178 326.846 60.2975 328.062 59.7758 328.178C59.2198 328.302 51.7357 332.178 51.333 332.551C51.0676 332.797 50.7038 332.907 50.5242 332.796C50.3457 332.685 50.1981 332.747 50.1981 332.933C50.1981 333.12 49.5998 333.579 48.8688 333.953C48.1366 334.328 46.67 335.182 45.6095 335.853C44.5501 336.522 43.5514 337.031 43.3924 336.982C43.2345 336.934 43.0995 337.093 43.0938 337.337C43.0892 337.581 42.484 338.151 41.7496 338.603C39.9672 339.701 35.6542 343.966 35.6542 344.631C35.6542 344.789 35.3751 345.228 35.0342 345.607C34.3386 346.377 33.5767 348.237 33.301 349.842C33.2003 350.426 33.0413 351.305 32.9486 351.792C32.5162 354.05 33.341 358.791 34.4656 360.512C34.7299 360.917 34.8408 361.356 34.7093 361.487C34.5789 361.618 34.6681 361.725 34.9072 361.725C35.1463 361.725 35.2424 361.885 35.1223 362.079C35.0022 362.275 35.0696 362.434 35.2744 362.434C35.4781 362.434 36.0627 363.095 36.5729 363.904C37.0831 364.713 37.8942 365.738 38.3759 366.184C38.8563 366.629 39.1984 367.109 39.1366 367.248C39.0749 367.386 39.33 367.678 39.7041 367.894C40.0782 368.111 41.0357 368.886 41.8308 369.617C42.627 370.35 43.4827 370.948 43.7333 370.948C43.985 370.948 44.2813 371.187 44.3934 371.479C44.5055 371.769 44.7229 371.931 44.8773 371.834C45.0317 371.739 45.2537 371.91 45.3704 372.214C45.4871 372.519 45.7433 372.666 45.9412 372.545C46.1392 372.422 46.3966 372.571 46.5132 372.874C46.6299 373.179 46.8679 373.339 47.0429 373.231C47.218 373.123 47.361 373.172 47.361 373.339C47.361 373.506 47.9192 373.846 48.6022 374.093C49.2852 374.339 49.8435 374.7 49.8435 374.894C49.8435 375.088 49.9762 375.165 50.1398 375.064C50.3022 374.963 51.0012 375.266 51.6922 375.737C52.3843 376.207 53.0456 376.496 53.1623 376.38C53.279 376.263 53.4712 376.42 53.589 376.727C53.708 377.036 54.01 377.209 54.2617 377.113C54.5134 377.017 54.9698 377.188 55.2753 377.495C55.5819 377.802 56.3609 378.155 57.0062 378.282C57.6514 378.408 58.5117 378.726 58.9178 378.988C59.3239 379.25 59.7472 379.372 59.8605 379.259C59.9726 379.147 60.9176 379.448 61.9609 379.928C63.6666 380.715 65.1779 381.182 66.4271 381.309C66.672 381.333 66.871 381.497 66.871 381.672C66.871 381.847 67.1502 381.954 67.4922 381.912C67.8331 381.87 68.3525 381.933 68.6443 382.053C70.3488 382.746 73.5006 383.718 74.0417 383.718C74.3907 383.718 74.6755 383.861 74.6755 384.035C74.6755 384.21 75.2738 384.431 76.0049 384.525C76.737 384.62 77.6545 384.788 78.0446 384.899C78.4359 385.01 79.7927 385.36 81.0603 385.677C82.329 385.995 83.6057 386.333 83.8986 386.429C84.1914 386.524 84.4305 386.581 84.4305 386.555C84.4305 386.528 84.8733 386.675 85.4155 386.881C85.9567 387.086 86.7552 387.327 87.1888 387.413C88.4014 387.655 94.9818 389.066 95.7815 389.254C97.1062 389.568 104.643 390.865 105.938 391.004C106.646 391.079 108.242 391.302 109.486 391.499C118.491 392.924 131.96 393.851 142.785 393.787C149.936 393.745 159.008 393.397 159.409 393.149C159.548 393.063 160.563 392.992 161.663 392.992C162.765 392.992 164.434 392.891 165.374 392.767C166.315 392.643 167.562 392.482 168.147 392.41C168.733 392.336 170.489 392.11 172.05 391.905C173.61 391.7 175.446 391.461 176.129 391.373C176.812 391.286 177.85 391.126 178.434 391.016C179.02 390.907 181.095 390.568 183.046 390.261C184.998 389.953 186.873 389.623 187.215 389.524C188.255 389.226 188.167 351.457 187.126 351.535C186.735 351.565 186.416 351.688 186.416 351.811C186.416 351.933 185.738 352.244 184.908 352.501C184.079 352.758 183.022 353.2 182.56 353.481C181.892 353.888 181.777 353.895 182.006 353.514C182.235 353.135 182.188 353.121 181.784 353.446C181.196 353.918 177.115 355.34 176.348 355.34C176.065 355.34 175.78 355.47 175.715 355.631C175.581 355.961 172.37 357.151 171.428 357.22C171.088 357.245 170.808 357.372 170.808 357.503C170.808 357.739 169.698 358.187 168.679 358.361C168.387 358.412 167.669 358.642 167.083 358.873C166.498 359.103 165.983 359.288 165.939 359.283C165.895 359.279 165.436 359.494 164.919 359.763C164.403 360.03 163.734 360.155 163.434 360.041C163.075 359.902 162.975 359.973 163.143 360.246C163.308 360.512 163.137 360.661 162.665 360.661C162.261 360.661 161.653 360.818 161.314 361.01C160.976 361.202 159.82 361.668 158.747 362.044C155.099 363.324 154.314 363.612 153.263 364.063C152.686 364.31 152.087 364.435 151.933 364.34C151.779 364.244 151.653 364.335 151.653 364.541C151.653 364.748 151.533 364.898 151.386 364.875C151.24 364.852 151.001 364.872 150.854 364.92C150.708 364.967 150.429 365.046 150.233 365.095C150.039 365.144 149.839 365.216 149.791 365.255C149.543 365.454 148.169 365.712 147.307 365.72C146.77 365.724 146.331 365.852 146.331 366.003C146.331 366.301 143.517 367.068 142.074 367.165C141.587 367.197 141.107 367.325 141.01 367.447C140.808 367.703 138.397 368.11 136.044 368.285C135.167 368.35 134.208 368.487 133.916 368.59C133.623 368.692 132.82 368.755 132.131 368.728C131.444 368.702 130.724 368.776 130.534 368.894C130.091 369.169 117.737 368.985 114.937 368.662C113.767 368.527 112.61 368.401 112.365 368.382C112.121 368.362 111.922 368.228 111.922 368.084C111.922 367.94 111.606 367.905 111.218 368.007C110.831 368.107 110.233 368.066 109.888 367.915C109.153 367.591 109.325 367.647 107.311 367.075C106.432 366.826 105.491 366.438 105.216 366.213C104.943 365.989 104.704 365.867 104.684 365.945C104.666 366.023 104.288 365.971 103.847 365.831C103.396 365.688 103.148 365.407 103.281 365.192C103.416 364.974 103.354 364.91 103.139 365.042C102.93 365.172 102.261 364.858 101.651 364.346C97.7332 361.047 99.9983 356.706 107.567 353.008C108.586 352.511 109.861 352.023 110.397 351.926C110.935 351.829 111.465 351.604 111.576 351.425C111.686 351.247 112.088 351.052 112.469 350.993C112.851 350.933 113.334 350.779 113.543 350.647C113.752 350.517 114.365 350.33 114.905 350.232C115.444 350.135 116.072 349.9 116.298 349.713C116.526 349.524 116.791 349.366 116.889 349.363C116.986 349.358 117.305 349.27 117.598 349.167C117.891 349.063 120.924 348.009 124.338 346.824C127.752 345.639 130.865 344.523 131.255 344.346C131.645 344.168 133.241 343.59 134.803 343.06C136.363 342.53 137.805 341.973 138.006 341.822C138.207 341.671 138.766 341.464 139.247 341.364C140.341 341.136 142.425 340.377 144.735 339.37C145.711 338.944 146.988 338.517 147.573 338.421C148.158 338.325 148.801 338.111 149.001 337.948C149.2 337.783 149.84 337.572 150.42 337.477C151 337.384 151.515 337.274 151.564 337.234C151.613 337.192 151.772 337.133 151.918 337.1C152.065 337.065 152.823 336.706 153.604 336.3C154.384 335.894 155.582 335.443 156.265 335.299C156.946 335.155 157.665 334.94 157.86 334.822C158.055 334.703 158.374 334.601 158.57 334.594C158.765 334.588 159.483 334.312 160.166 333.98C161.945 333.117 164.472 332.219 165.375 332.13C165.801 332.087 166.4 331.845 166.706 331.591C167.011 331.339 167.261 331.249 167.261 331.396C167.261 331.541 167.5 331.461 167.793 331.217C168.086 330.975 168.325 330.88 168.325 331.006C168.325 331.131 168.757 330.951 169.287 330.605C169.815 330.26 170.141 330.15 170.01 330.363C169.879 330.575 170.52 330.389 171.434 329.949C172.349 329.507 173.238 329.235 173.411 329.341C173.584 329.447 173.837 329.356 173.972 329.136C174.107 328.918 174.648 328.703 175.174 328.659C175.699 328.616 176.129 328.456 176.129 328.302C176.129 328.15 176.344 328.025 176.606 328.025C176.869 328.025 177.586 327.775 178.199 327.469C178.811 327.164 179.474 327.013 179.672 327.135C179.869 327.258 180.031 327.204 180.031 327.016C180.031 326.594 182.125 325.834 182.555 326.099C182.728 326.206 182.869 326.124 182.869 325.918C182.869 325.711 183.179 325.542 183.557 325.542C183.936 325.542 184.331 325.405 184.435 325.236C184.539 325.068 185.347 324.727 186.23 324.48L187.835 324.031V302.793C187.835 291.113 187.796 281.572 187.747 281.592C187.698 281.612 186.939 281.923 186.062 282.283ZM364.02 300.235C363.987 300.266 361.967 300.4 359.529 300.534C357.092 300.666 355.016 300.826 354.915 300.888C354.814 300.95 353.216 301.101 351.365 301.222C347.399 301.482 346.222 301.612 343.437 302.097C342.295 302.297 341.258 302.438 341.132 302.412C341.006 302.386 340.344 302.473 339.662 302.604C338.979 302.736 337.861 302.909 337.178 302.989C334.703 303.277 332.715 303.611 331.325 303.973C330.545 304.175 329.508 304.396 329.019 304.463C326.903 304.754 325.755 304.966 321.57 305.833C319.131 306.337 315.699 307.147 313.943 307.632C312.187 308.116 310.264 308.563 309.67 308.625C309.077 308.687 308.398 308.856 308.162 309.002C307.928 309.147 307.736 309.186 307.736 309.087C307.736 308.989 306.839 309.217 305.743 309.593C304.647 309.971 303.609 310.191 303.437 310.085C303.265 309.979 303.124 310.042 303.124 310.223C303.124 310.405 302.605 310.676 301.971 310.826C301.337 310.975 300.738 311.127 300.641 311.164C300.543 311.2 299.865 311.356 299.133 311.508C298.402 311.661 297.802 311.894 297.802 312.025C297.802 312.157 297.483 312.299 297.093 312.341C296.703 312.382 296.076 312.451 295.701 312.493C295.324 312.534 295.112 312.722 295.227 312.908C295.345 313.099 295.185 313.151 294.858 313.025C294.538 312.903 294.183 312.958 294.065 313.148C293.948 313.337 293.714 313.407 293.547 313.304C293.378 313.2 293.134 313.288 293.002 313.5C292.872 313.712 292.541 313.798 292.269 313.694C291.995 313.589 291.772 313.671 291.772 313.876C291.772 314.082 291.582 314.186 291.351 314.11C289.661 313.546 289.644 313.778 289.644 336.935V358.615L290.442 358.382C290.881 358.254 291.55 358.079 291.929 357.994C292.306 357.908 293.303 357.515 294.141 357.121C294.98 356.727 295.988 356.404 296.38 356.404C296.773 356.404 297.093 356.244 297.093 356.049C297.093 355.854 297.213 355.728 297.36 355.768C297.506 355.809 298.558 355.486 299.698 355.052C300.837 354.617 302.035 354.209 302.358 354.146C302.682 354.082 303.345 353.865 303.834 353.665C304.321 353.465 306.715 352.634 309.154 351.818C311.593 351.002 313.908 350.182 314.298 349.995C315.114 349.606 323.703 346.568 325.294 346.105C326.715 345.694 333.268 343.355 334.163 342.942C334.553 342.762 335.271 342.51 335.76 342.382C336.873 342.091 341.075 340.518 341.801 340.119C342.101 339.955 342.881 339.704 343.538 339.559C344.193 339.415 345.305 339.048 346.009 338.743C347.506 338.092 348.066 337.942 349.15 337.901C349.59 337.883 349.949 337.72 349.949 337.538C349.949 337.356 350.108 337.305 350.304 337.426C350.498 337.546 350.658 337.501 350.658 337.326C350.658 337.15 351.337 336.803 352.166 336.555C352.995 336.307 353.995 335.955 354.389 335.773C354.782 335.592 355.461 335.416 355.897 335.384C356.332 335.351 356.688 335.181 356.688 335.006C356.688 334.832 356.936 334.784 357.24 334.901C357.554 335.021 357.697 334.962 357.573 334.761C357.454 334.568 357.607 334.41 357.914 334.41C358.221 334.41 358.749 334.266 359.088 334.09C360.081 333.574 362.858 332.811 363.34 332.921C363.583 332.977 363.783 332.855 363.783 332.652C363.783 332.448 364.076 332.282 364.433 332.282C364.791 332.282 365.203 332.162 365.35 332.016C365.496 331.869 365.723 331.737 365.853 331.719C365.982 331.702 366.329 331.584 366.621 331.458C368.241 330.753 371.356 329.833 371.605 329.986C371.763 330.085 371.993 330.003 372.116 329.804C372.239 329.606 372.719 329.444 373.184 329.444C373.648 329.444 374.129 329.282 374.251 329.084C374.374 328.886 374.612 328.808 374.78 328.912C374.948 329.016 375.193 328.928 375.323 328.716C375.455 328.505 375.805 328.425 376.102 328.539C376.4 328.654 376.823 328.599 377.043 328.417C377.261 328.235 378.159 327.988 379.037 327.868C379.915 327.746 381.032 327.578 381.52 327.493C383.142 327.209 385.57 326.896 388.26 326.625C391.087 326.339 403.674 326.411 405.465 326.722C406.05 326.824 406.949 326.975 407.464 327.059C409.985 327.465 412.737 328.204 412.737 328.474C412.737 328.641 412.88 328.688 413.055 328.58C413.613 328.235 417.877 330.466 419.13 331.758C420.591 333.266 420.869 335.872 419.662 336.754C419.29 337.025 419.116 337.249 419.275 337.249C419.433 337.249 419.367 337.486 419.125 337.777C418.884 338.066 418.52 338.201 418.318 338.077C418.114 337.951 418.042 338 418.156 338.185C418.519 338.771 415.567 341.38 415.086 340.899C414.964 340.777 414.865 340.844 414.865 341.048C414.865 341.332 412.069 342.811 410.963 343.113C410.865 343.139 410.336 343.347 409.787 343.575C409.238 343.803 408.568 343.988 408.301 343.988C408.032 343.988 407.714 344.148 407.592 344.343C407.472 344.538 407.016 344.697 406.579 344.697C406.142 344.697 405.629 344.853 405.439 345.043C405.249 345.231 404.779 345.448 404.393 345.521C404.007 345.595 403.451 345.753 403.158 345.873C402.103 346.303 397.652 347.955 397.305 348.045C397.111 348.095 396.49 348.325 395.927 348.555C395.364 348.785 394.565 349.038 394.154 349.115C393.741 349.193 393.324 349.287 393.226 349.325C393.129 349.363 392.93 349.374 392.783 349.351C392.637 349.328 392.517 349.462 392.517 349.647C392.517 349.834 391.958 350.091 391.275 350.219C390.592 350.348 390.034 350.604 390.034 350.79C390.034 350.976 389.754 351.093 389.413 351.051C389.072 351.01 388.392 351.14 387.905 351.343C387.418 351.544 386.898 351.639 386.752 351.552C386.605 351.466 386.486 351.54 386.486 351.716C386.486 352.049 383.703 353.045 383.161 352.907C382.99 352.863 382.591 353.049 382.274 353.32C381.957 353.591 380.899 354.024 379.923 354.283C378.949 354.543 377.792 354.983 377.355 355.263C376.917 355.544 376.31 355.677 376.006 355.56C375.647 355.422 375.541 355.49 375.704 355.754C375.875 356.031 375.71 356.097 375.189 355.961C374.768 355.85 374.514 355.905 374.623 356.082C374.793 356.358 373.758 356.579 372.917 356.446C372.771 356.423 372.652 356.564 372.652 356.759C372.652 356.954 372.532 357.088 372.385 357.056C372.239 357.025 371.641 357.21 371.055 357.468C370.47 357.726 369.855 357.906 369.688 357.868C369.521 357.829 369.202 357.94 368.978 358.113C368.755 358.287 367.814 358.647 366.887 358.913C365.961 359.179 365.202 359.504 365.202 359.635C365.202 359.765 364.604 359.997 363.872 360.151C362.36 360.466 362.081 360.536 361.832 360.661C361.735 360.71 361.508 360.77 361.33 360.794C361.151 360.819 360.885 360.958 360.738 361.105C360.592 361.25 360.18 361.37 359.822 361.37C359.465 361.37 359.172 361.51 359.172 361.68C359.172 361.957 358.403 362.21 356.185 362.664C355.81 362.741 355.33 362.941 355.12 363.11C354.909 363.278 354.179 363.533 353.496 363.676C352.813 363.818 352.062 364.091 351.826 364.279C351.592 364.469 351.232 364.521 351.029 364.395C350.825 364.269 350.658 364.332 350.658 364.536C350.658 364.833 349.797 365.207 348.53 365.458C348.432 365.477 347.723 365.768 346.953 366.103C346.182 366.439 345.344 366.634 345.09 366.536C344.835 366.438 344.628 366.531 344.628 366.74C344.628 366.951 344.38 367.027 344.077 366.911C343.775 366.794 343.616 366.844 343.725 367.022C343.896 367.296 342.394 367.854 341.258 367.939C341.062 367.954 340.544 368.163 340.105 368.405C339.665 368.647 339.304 368.719 339.301 368.566C339.298 368.413 339.17 368.486 339.015 368.73C338.861 368.972 338.317 369.205 337.805 369.248C337.294 369.29 336.953 369.45 337.048 369.605C337.143 369.758 336.912 369.884 336.534 369.884C336.157 369.884 334.92 370.293 333.787 370.795C332.654 371.296 331.436 371.631 331.082 371.537C330.727 371.444 330.511 371.488 330.6 371.633C330.69 371.778 329.374 372.354 327.675 372.912C325.975 373.47 323.905 374.223 323.074 374.585C322.242 374.946 321.404 375.144 321.211 375.025C321.018 374.906 320.86 374.952 320.86 375.127C320.86 375.375 318.691 376.292 317.668 376.476C317.571 376.493 317.223 376.626 316.897 376.771C316.571 376.915 316.093 377.076 315.833 377.129C315.575 377.182 314.912 377.408 314.363 377.633C313.814 377.859 313.234 378.043 313.074 378.043C312.914 378.043 312.326 378.281 311.766 378.573C311.208 378.864 310.48 379.104 310.151 379.105C309.821 379.106 309.444 379.281 309.312 379.492C309.182 379.704 308.773 379.799 308.405 379.703C308.037 379.607 307.736 379.673 307.736 379.849C307.736 380.027 307.493 380.171 307.198 380.171C306.903 380.171 306.385 380.325 306.046 380.513C304.924 381.135 298.555 383.364 297.897 383.364C297.541 383.364 296.936 383.573 296.552 383.831C296.166 384.087 294.455 384.763 292.748 385.333L289.644 386.369V407.393C289.644 422.625 289.753 428.415 290.04 428.415C290.521 428.415 293.658 427.407 295.196 426.758C295.811 426.499 296.491 426.286 296.709 426.286C296.925 426.286 297.38 426.139 297.719 425.958C298.3 425.648 299.541 425.149 299.931 425.07C300.029 425.051 300.308 424.908 300.552 424.752C300.796 424.598 300.995 424.564 300.995 424.679C300.995 424.792 301.479 424.635 302.069 424.33C302.661 424.024 303.299 423.87 303.489 423.987C303.678 424.105 303.834 424.063 303.834 423.895C303.834 423.598 305.975 422.662 307.025 422.501C308.469 422.28 308.882 422.116 309.177 421.65C309.353 421.372 309.501 421.266 309.503 421.418C309.507 421.569 309.98 421.449 310.556 421.152C311.774 420.523 312.121 420.471 311.815 420.965C311.474 421.516 311.877 421.384 312.53 420.732C312.854 420.408 313.513 420.122 313.996 420.096C314.479 420.071 314.988 419.866 315.126 419.642C315.265 419.419 315.826 419.153 316.375 419.054C316.926 418.954 317.601 418.685 317.876 418.457C318.152 418.228 318.377 418.172 318.377 418.333C318.377 418.493 318.556 418.445 318.776 418.227C318.994 418.007 319.393 417.913 319.662 418.016C319.931 418.119 320.151 418.026 320.151 417.811C320.151 417.595 320.446 417.418 320.806 417.418C321.167 417.418 321.963 417.168 322.575 416.862C323.188 416.556 323.852 416.406 324.048 416.529C324.246 416.65 324.408 416.575 324.408 416.36C324.408 416.144 324.608 416.007 324.851 416.055C325.095 416.104 325.806 415.871 326.43 415.539C327.055 415.206 327.857 414.935 328.214 414.935C328.569 414.935 329.216 414.687 329.649 414.383C330.083 414.08 330.439 413.924 330.439 414.037C330.439 414.15 330.916 413.997 331.499 413.695C332.082 413.394 332.638 413.144 332.734 413.139C332.83 413.135 333.465 412.898 334.145 412.614C334.825 412.329 335.563 412.097 335.783 412.097C336.003 412.097 336.687 411.872 337.302 411.596C338.206 411.19 340.593 410.344 341.435 410.132C341.532 410.106 342.021 409.916 342.521 409.707C343.02 409.499 344.137 409.119 345.003 408.864C345.869 408.608 346.966 408.202 347.44 407.96C347.914 407.719 348.433 407.603 348.593 407.702C348.753 407.801 348.887 407.673 348.89 407.418C348.894 407.08 348.989 407.099 349.24 407.485C349.428 407.778 349.585 407.84 349.588 407.623C349.592 407.405 350.353 406.953 351.279 406.619C352.206 406.285 353.284 405.875 353.674 405.708C354.064 405.541 356.059 404.818 358.108 404.1C360.156 403.384 362.55 402.536 363.429 402.218C364.306 401.899 365.105 401.623 365.202 401.605C365.299 401.587 365.62 401.47 365.911 401.347C366.204 401.222 367.641 400.707 369.104 400.201C370.567 399.696 372.004 399.188 372.297 399.072C372.59 398.958 372.988 398.839 373.184 398.809C373.581 398.747 374.423 398.423 376.066 397.697C376.675 397.428 377.473 397.157 377.839 397.097C378.205 397.036 378.864 396.789 379.303 396.547C379.741 396.306 380.101 396.189 380.101 396.287C380.101 396.384 380.859 396.131 381.786 395.725C382.712 395.318 385.706 394.215 388.437 393.272C391.169 392.329 394.76 391.055 396.419 390.441C398.078 389.826 399.833 389.238 400.321 389.134C400.808 389.03 401.378 388.81 401.586 388.648C401.795 388.484 403.071 387.962 404.424 387.487C412.668 384.591 414.738 383.839 415.133 383.595C415.376 383.445 415.721 383.412 415.899 383.523C416.078 383.633 416.277 383.586 416.342 383.419C416.451 383.142 422.041 381.138 422.486 381.217C422.592 381.235 423.134 381.013 423.692 380.725C424.25 380.435 424.785 380.277 424.88 380.371C424.973 380.466 425.253 380.3 425.5 380.003C425.747 379.705 426.328 379.462 426.792 379.462C427.256 379.462 427.636 379.292 427.636 379.086C427.636 378.879 427.795 378.808 427.989 378.93C428.185 379.05 428.698 378.9 429.133 378.596C429.567 378.291 430.259 378.043 430.671 378.043C431.083 378.043 431.525 377.937 431.655 377.807C432.064 377.398 435.525 376.28 435.819 376.462C435.973 376.557 436.202 376.47 436.327 376.269C436.451 376.067 436.684 375.984 436.843 376.082C437.003 376.181 437.329 376.025 437.568 375.737C437.807 375.448 438.145 375.3 438.317 375.407C438.491 375.514 438.632 375.432 438.632 375.225C438.632 375.019 438.932 374.85 439.297 374.85C439.662 374.85 440.709 374.518 441.625 374.114C442.54 373.709 443.638 373.34 444.065 373.294C444.492 373.248 445.248 372.943 445.747 372.616C446.244 372.289 447.123 371.96 447.697 371.885C448.271 371.81 449.62 371.353 450.693 370.869C452.734 369.949 454.568 369.366 455.065 369.48C455.226 369.517 455.257 369.383 455.133 369.183C455.01 368.984 455.068 368.82 455.262 368.82C455.458 368.82 456.993 368.182 458.675 367.4C460.356 366.62 461.893 365.982 462.091 365.982C462.288 365.982 462.691 365.741 462.986 365.446C463.28 365.152 463.668 365.001 463.847 365.112C464.027 365.223 464.173 365.149 464.173 364.947C464.173 364.488 466.133 363.449 466.434 363.75C466.556 363.872 466.656 363.79 466.656 363.567C466.656 363.12 468.781 361.895 468.79 362.337C468.793 362.488 468.947 362.372 469.131 362.079C469.317 361.787 469.597 361.547 469.756 361.547C469.914 361.547 470.517 361.108 471.096 360.572C471.673 360.035 472.268 359.597 472.417 359.597C473.078 359.597 473.236 359.516 473.503 359.04C473.658 358.761 473.944 358.532 474.136 358.532C474.33 358.532 475.16 357.881 475.982 357.085C476.803 356.288 477.929 355.398 478.484 355.108C479.039 354.816 479.405 354.49 479.298 354.384C479.191 354.276 479.695 353.578 480.418 352.831C482.266 350.924 482.309 350.858 483.79 347.847C485.469 344.432 485.944 341.194 485.187 338.323C484.902 337.244 484.637 336.202 484.599 336.007C484.43 335.161 482.576 331.928 482.259 331.928C482.067 331.928 481.91 331.719 481.91 331.464C481.91 330.836 477.633 326.515 475.682 325.173C474.815 324.577 474.106 323.968 474.106 323.82C474.106 323.671 473.459 323.265 472.67 322.916C471.879 322.568 470.899 321.939 470.489 321.518C470.08 321.097 469.876 320.984 470.037 321.267C470.207 321.562 469.867 321.448 469.238 321C468.635 320.572 467.991 320.221 467.804 320.221C467.617 320.221 466.883 319.826 466.174 319.345C465.464 318.863 464.883 318.548 464.883 318.645C464.883 318.742 464.363 318.544 463.729 318.206C463.096 317.869 462.437 317.632 462.266 317.68C462.096 317.728 461.696 317.535 461.38 317.251C460.765 316.701 456.758 315.255 455.848 315.255C455.55 315.255 455.305 315.016 455.305 314.723C455.305 314.43 455.135 314.191 454.928 314.191C454.723 314.191 454.665 314.37 454.801 314.591C454.957 314.844 454.867 314.909 454.555 314.769C454.284 314.646 453.783 314.447 453.442 314.327C453.101 314.207 452.821 313.957 452.821 313.773C452.821 313.59 452.669 313.533 452.483 313.649C452.296 313.764 451.538 313.586 450.797 313.253C450.057 312.92 449.212 312.614 448.919 312.573C447.916 312.435 447.323 312.239 447.131 311.983C447.024 311.841 446.625 311.666 446.243 311.593C445.862 311.521 445.13 311.288 444.619 311.078C443.706 310.703 441.045 309.903 440.112 309.723C439.853 309.674 439.374 309.518 439.048 309.375C438.721 309.233 438.296 309.087 438.1 309.052C436.752 308.811 435.398 308.38 435.255 308.148C435.161 307.996 434.765 307.956 434.375 308.058C433.985 308.16 433.666 308.08 433.666 307.88C433.666 307.68 433.347 307.6 432.956 307.703C432.566 307.805 432.247 307.725 432.247 307.525C432.247 307.326 431.928 307.246 431.538 307.347C431.148 307.45 430.829 307.37 430.829 307.17C430.829 306.971 430.508 306.891 430.118 306.993C429.722 307.097 429.409 307.004 429.409 306.782C429.409 306.565 429.29 306.417 429.143 306.456C428.748 306.559 424.003 305.667 423.59 305.412C423.394 305.289 422.793 305.143 422.255 305.083C421.716 305.025 419.155 304.586 416.563 304.107C413.97 303.629 409.376 302.898 406.351 302.484C403.328 302.07 400.454 301.663 399.966 301.579C399.478 301.496 397.723 301.342 396.064 301.238C394.405 301.135 392.216 300.964 391.198 300.856C387.181 300.435 383.429 300.301 373.953 300.242C368.522 300.206 364.052 300.204 364.02 300.235ZM455.799 399.032C455.71 399.178 455.402 399.206 455.116 399.096C454.83 398.987 454.596 399.083 454.596 399.31C454.596 399.537 454.461 399.64 454.296 399.538C454.131 399.436 453.373 399.537 452.611 399.761C451.849 399.984 451.114 400.179 450.979 400.191C450.844 400.204 450.399 400.573 449.99 401.011C449.581 401.451 449.014 401.81 448.728 401.81C448.443 401.81 448.21 401.969 448.21 402.165C448.21 402.36 448.071 402.519 447.902 402.519C447.439 402.519 444.185 405.815 444.087 406.386C444.039 406.659 443.868 406.979 443.706 407.095C443.245 407.428 441.871 410.387 441.629 411.565C441.509 412.151 441.323 412.869 441.214 413.161C439.207 418.586 443.899 427.561 450.733 431.373C451.634 431.875 452.75 432.356 453.216 432.442C453.683 432.529 454.702 432.721 455.482 432.87C459.448 433.627 466.458 431.886 468.007 429.761C468.262 429.411 468.621 429.125 468.805 429.125C469.289 429.125 471.978 426.196 471.978 425.667C471.978 425.422 472.113 425.222 472.277 425.222C472.443 425.222 472.867 424.584 473.219 423.804C473.57 423.023 473.989 422.384 474.148 422.384C474.308 422.384 474.346 422.145 474.234 421.852C474.122 421.559 474.166 421.32 474.333 421.32C475.025 421.32 475.227 413.568 474.584 411.7C474.314 410.917 474.201 410.087 474.333 409.857C474.466 409.626 474.451 409.547 474.301 409.682C474.151 409.817 473.561 408.992 472.99 407.849C471.52 404.909 467.071 400.746 465.397 400.746C465.162 400.746 464.788 400.526 464.564 400.258C464.341 399.99 463.485 399.648 462.659 399.499C461.834 399.349 460.918 399.166 460.626 399.091C459.57 398.818 455.958 398.775 455.799 399.032ZM462.215 401.963C462.796 402.098 463.369 402.366 463.488 402.559C463.608 402.754 463.851 402.864 464.028 402.805C464.526 402.639 467.01 404.215 467.01 404.695C467.01 404.929 467.117 405.015 467.245 404.886C468.048 404.083 471.599 409.561 472.265 412.629C472.943 415.754 472.261 422.029 471.243 422.029C471.061 422.029 470.913 422.27 470.913 422.561C470.913 422.854 470.758 423.094 470.569 423.094C470.381 423.094 470.311 423.315 470.415 423.586C470.658 424.219 467.507 427.384 465.417 428.61C460.824 431.302 452.837 430.891 449.721 427.803C449.371 427.457 448.649 426.89 448.116 426.545C447.583 426.198 447.146 425.697 447.146 425.429C447.146 425.162 446.926 424.858 446.657 424.756C443.904 423.7 442.835 414.427 444.94 409.864C446.117 407.312 449.413 403.748 450.959 403.354C451.398 403.243 451.757 403.029 451.757 402.88C451.757 402.644 452.31 402.463 454.539 401.969C454.8 401.911 455.116 401.762 455.24 401.638C455.507 401.371 460.703 401.613 462.215 401.963ZM450.693 415.647V425.05L452.289 424.923L453.886 424.797V420.889V416.981L457.788 417.133C462.183 417.305 462.734 417.612 462.752 419.901C462.758 420.584 462.829 421.861 462.911 422.739C462.994 423.617 463.072 424.495 463.084 424.69C463.113 425.106 466.656 424.939 466.656 424.522C466.656 424.37 466.435 424.061 466.164 423.837C465.822 423.553 465.676 422.624 465.688 420.794C465.697 419.304 465.528 417.945 465.297 417.667C465.072 417.397 464.993 417.07 465.122 416.942C465.251 416.814 465.209 416.706 465.03 416.703C463.821 416.683 463.714 416.026 464.707 414.722C465.268 413.988 465.778 412.82 465.843 412.122C465.91 411.425 466.038 410.647 466.128 410.394C466.229 410.113 466.132 410.032 465.882 410.186C465.614 410.352 465.545 410.248 465.684 409.886C465.909 409.3 464.229 407.131 463.55 407.131C463.34 407.131 463.109 406.955 463.037 406.74C462.95 406.479 460.89 406.332 456.8 406.297L450.693 406.244V415.647ZM461.777 409.076C462.116 409.217 462.307 409.476 462.199 409.651C462.091 409.826 462.188 409.969 462.416 409.969C462.644 409.969 462.739 410.208 462.625 410.501C462.513 410.794 462.576 411.033 462.765 411.033C463.46 411.033 463.082 412.867 462.204 413.743C461.543 414.404 461.071 414.591 460.452 414.435C459.986 414.319 459.506 414.383 459.384 414.579C459.038 415.14 454.982 415.018 454.393 414.428C454.041 414.077 453.886 413.084 453.886 411.189V408.457L457.522 408.636C459.522 408.736 461.437 408.933 461.777 409.076Z" fill="white"/>
<path fill-rule="evenodd" clip-rule="evenodd" d="M201.669 247.5C201.669 410.779 201.671 411.033 202.38 411.086C202.77 411.115 203.288 411.155 203.532 411.175C203.777 411.194 204.074 411.345 204.195 411.511C204.317 411.676 204.835 411.836 205.349 411.866C205.861 411.896 206.281 412.024 206.281 412.151C206.281 412.409 209.761 413.358 210.45 413.286C210.693 413.26 210.892 413.382 210.892 413.556C210.892 413.729 211.142 413.871 211.446 413.871C212.859 413.871 211.196 413.082 206.983 411.754L202.38 410.302V247.306V84.3098L203.177 84.4951C204.126 84.7148 208.921 85.7227 210.183 85.9675C210.735 86.0739 210.936 86.0155 210.715 85.813C210.394 85.5179 203.166 83.9677 202.113 83.9677C201.76 83.9677 201.669 116.911 201.669 247.5ZM213.21 86.3976C213.399 86.5704 214.107 86.8163 214.784 86.9433C215.506 87.0783 215.872 87.044 215.671 86.8598C215.482 86.6871 214.773 86.4411 214.097 86.3141C213.374 86.1791 213.008 86.2134 213.21 86.3976ZM216.392 87.084C216.928 87.6618 218.697 88.0221 218.697 87.5542C218.697 87.338 218.391 87.1607 218.016 87.1607C217.642 87.1607 217.044 87.0577 216.687 86.9307C216.233 86.7706 216.143 86.8163 216.392 87.084ZM219.232 87.8757C219.356 88.0748 219.593 88.1514 219.761 88.0473C219.929 87.9443 220.167 88.021 220.289 88.2189C220.591 88.7074 221.89 88.6788 221.89 88.1834C221.89 87.9626 221.576 87.8688 221.181 87.9729C220.79 88.0748 220.382 88.0141 220.273 87.8368C220.164 87.6606 219.835 87.5153 219.542 87.5153C219.249 87.5153 219.11 87.6778 219.232 87.8757ZM222.362 88.4832C222.643 88.9374 224.727 89.2806 224.727 88.8733C224.727 88.712 224.528 88.5781 224.284 88.5747C224.041 88.5724 223.457 88.4672 222.987 88.3413C222.437 88.1949 222.215 88.2441 222.362 88.4832ZM225.611 89.3652C226 89.5906 226.639 89.8125 227.03 89.8571C227.422 89.9029 227.743 89.9578 227.743 89.9807C227.743 90.1111 240.007 93.2617 240.968 93.3773C241.608 93.4551 242.287 93.6129 242.475 93.7308C242.664 93.8475 242.819 93.7994 242.819 93.6244C242.819 93.3567 226.082 88.9133 225.197 88.9454C225.037 88.9511 225.222 89.141 225.611 89.3652ZM244.593 94.2181C244.593 94.392 244.832 94.6265 245.125 94.7387C245.449 94.8634 245.657 94.7387 245.657 94.4218C245.657 94.1358 245.418 93.9012 245.125 93.9012C244.832 93.9012 244.593 94.0431 244.593 94.2181ZM246.011 94.5087C246.011 94.805 248.868 95.8152 249.914 95.8895C250.207 95.9101 250.685 96.0108 250.978 96.1138C252.814 96.7567 254.711 97.2303 255.28 97.188C255.645 97.1605 255.944 97.2875 255.944 97.4706C255.944 97.6536 256.184 97.8023 256.476 97.8023C258.105 97.8023 256.438 97.0725 252.131 95.8998C249.448 95.17 246.974 94.4904 246.633 94.3897C246.291 94.2902 246.011 94.3428 246.011 94.5087ZM257.477 97.9053C257.349 98.1124 257.429 98.1593 257.663 98.014C257.889 97.8744 258.073 97.9305 258.073 98.1364C258.073 98.3435 258.392 98.5128 258.782 98.5128C259.172 98.5128 259.491 98.3709 259.491 98.1993C259.491 97.7371 257.739 97.482 257.477 97.9053ZM260.027 98.5185C260.149 98.7164 260.399 98.7873 260.581 98.6741C260.761 98.562 260.91 98.6569 260.91 98.8846C260.91 99.1111 261.124 99.2163 261.385 99.1157C261.646 99.015 262.325 99.1431 262.893 99.4005C263.461 99.6568 264.405 99.9886 264.99 100.136C266.297 100.467 266.184 100.429 267.473 100.966C268.058 101.21 268.856 101.452 269.246 101.504C269.832 101.582 271.332 101.983 273.503 102.642C273.699 102.701 274.177 102.794 274.567 102.847C274.957 102.902 275.489 103.147 275.749 103.393C276.009 103.639 276.363 103.752 276.537 103.645C276.71 103.537 277.335 103.699 277.924 104.003C278.513 104.308 279.036 104.541 279.087 104.521C279.273 104.448 281.327 104.962 282.017 105.252C282.407 105.417 283.206 105.669 283.79 105.813C284.798 106.059 285.138 106.148 286.185 106.441C286.43 106.508 286.868 106.666 287.161 106.791C289.051 107.599 291.786 108.308 291.67 107.961C291.532 107.546 280.226 103.939 267.597 100.28C259.649 97.9774 259.701 97.9888 260.027 98.5185ZM292.127 108.102C292.127 108.53 292.55 108.739 293.892 108.976C294.537 109.089 295.72 109.48 296.522 109.845C297.324 110.21 299.017 110.777 300.286 111.105C301.555 111.433 302.751 111.825 302.947 111.976C303.141 112.125 303.78 112.378 304.365 112.535C305.941 112.958 305.948 112.961 306.139 113.057C306.237 113.105 306.436 113.17 306.583 113.201C306.933 113.275 310.199 114.467 311.105 114.852C311.495 115.016 312.494 115.345 313.322 115.579C314.151 115.815 314.83 116.116 314.83 116.25C314.83 116.382 315.498 116.691 316.314 116.936C317.129 117.18 318.809 117.844 320.047 118.411C321.284 118.978 322.423 119.441 322.576 119.441C322.73 119.441 323.484 119.742 324.253 120.11C325.021 120.477 326.746 121.287 328.086 121.909C331.589 123.537 336.43 125.945 337.977 126.828C338.708 127.247 339.307 127.447 339.307 127.276C339.307 127.104 337.83 126.204 336.025 125.276C334.221 124.348 332.664 123.49 332.567 123.37C331.012 121.457 292.127 106.777 292.127 108.102ZM339.662 127.512C339.662 127.667 340.26 128.102 340.991 128.478C341.723 128.854 342.625 129.409 342.994 129.711C343.451 130.084 343.621 130.115 343.523 129.808C343.358 129.286 339.662 127.089 339.662 127.512ZM343.919 129.995C343.919 130.315 345.802 131.51 346.279 131.491C346.444 131.486 346.259 131.234 345.869 130.933C344.766 130.083 343.919 129.676 343.919 129.995ZM346.764 131.764C346.774 132.162 349.594 134.092 349.594 133.702C349.594 133.52 348.956 132.948 348.174 132.432C347.394 131.915 346.759 131.615 346.764 131.764ZM349.949 133.949C349.949 134.137 350.427 134.633 351.013 135.05C351.599 135.467 352.077 135.682 352.077 135.527C352.077 135.373 352.326 135.603 352.63 136.038C352.935 136.472 353.675 137.082 354.275 137.392C354.876 137.702 355.744 138.363 356.205 138.861C356.667 139.358 357.043 139.68 357.043 139.576C357.043 139.472 358.058 140.407 359.298 141.653C360.538 142.898 361.735 143.919 361.958 143.919C362.182 143.919 362.365 144.167 362.365 144.471C362.365 144.776 362.495 144.944 362.654 144.845C362.814 144.746 363.174 144.998 363.453 145.403C363.929 146.092 365.273 147.693 367.331 150.02C368.862 151.751 372.306 156.614 373.552 158.804C373.755 159.159 374.1 159.667 374.32 159.933C374.539 160.197 374.731 160.573 374.745 160.768C374.759 160.964 375.171 161.736 375.662 162.485C376.153 163.234 376.554 164.052 376.554 164.304C376.554 164.556 376.791 164.958 377.081 165.199C377.372 165.44 377.537 165.756 377.448 165.9C377.358 166.044 377.515 166.465 377.795 166.835C378.076 167.205 378.31 167.788 378.316 168.128C378.323 168.471 378.487 168.75 378.682 168.75C378.878 168.75 379.011 168.87 378.979 169.016C378.949 169.162 379.121 169.761 379.364 170.346C379.606 170.931 380.2 172.687 380.683 174.248C381.166 175.809 381.658 177.325 381.775 177.618C381.894 177.911 382.018 178.23 382.052 178.327C382.085 178.425 382.211 178.744 382.333 179.037C382.453 179.33 382.63 180.048 382.727 180.634C382.93 181.858 383.268 183.234 383.555 184.003C383.665 184.296 383.784 184.855 383.821 185.245C383.858 185.635 384.101 186.832 384.363 187.905C384.624 188.978 384.82 190.136 384.798 190.477C384.775 190.819 384.907 191.098 385.09 191.098C385.273 191.098 385.423 190.946 385.423 190.761C385.423 190.232 384.689 186.723 384.456 186.132C384.34 185.839 384.272 185.475 384.305 185.323C384.514 184.355 380.414 170.963 379.289 168.943C379.068 168.544 378.913 168.117 378.947 167.996C379.386 166.39 368.338 148.795 367.294 149.439C367.124 149.544 367.066 149.419 367.165 149.16C367.419 148.496 359.424 140.643 354.968 137.181C350.958 134.064 349.949 133.414 349.949 133.949ZM283.929 141.569C283.494 141.789 283.066 142.182 282.979 142.445C282.849 142.84 282.968 142.845 283.661 142.472C289.588 139.284 300.939 146.258 302.965 154.333C303.094 154.849 303.34 155.27 303.512 155.27C303.827 155.27 302.766 152.283 301.874 150.658C301.606 150.171 301.227 149.425 301.034 149.003C300.571 147.994 297.444 144.793 296.65 144.514C296.308 144.394 296.029 144.16 296.029 143.994C296.029 143.669 292.749 142.127 290.668 141.473C289.083 140.974 284.996 141.032 283.929 141.569ZM281.485 143.159C279.745 144.301 276.615 149.474 277.022 150.535C277.118 150.785 277.041 151.087 276.848 151.206C276.656 151.324 276.536 151.609 276.581 151.838C276.627 152.066 276.485 152.814 276.268 153.497C275.719 155.222 275.421 158.463 275.81 158.463C275.987 158.463 276.218 157.863 276.322 157.132C276.893 153.144 277.612 150.251 278.5 148.353C279.048 147.182 279.483 146.026 279.467 145.785C279.45 145.542 279.553 145.416 279.694 145.503C279.983 145.683 282.766 142.949 282.526 142.722C282.442 142.642 281.973 142.839 281.485 143.159ZM303.695 156.688C303.815 157.371 304.058 158.17 304.234 158.463C304.611 159.092 304.249 157.253 303.779 156.156C303.574 155.678 303.546 155.851 303.695 156.688ZM275.722 296.099C275.798 413.058 275.739 433.381 275.319 433.381C274.747 433.381 271.864 432.527 269.069 431.529C267.996 431.146 266.878 430.775 266.587 430.707C266.294 430.638 265.535 430.425 264.901 430.233C264.267 430.041 263.751 429.992 263.753 430.124C263.756 430.319 272.652 433.254 275.464 433.99C276.16 434.172 276.164 433.345 276.164 296.495C276.164 220.773 276.044 158.817 275.898 158.817C275.751 158.817 275.672 220.594 275.722 296.099ZM304.336 159.881C304.444 160.369 304.535 161.367 304.538 162.098C304.541 162.831 304.672 163.429 304.831 163.429C305.226 163.429 304.959 160.261 304.505 159.56C304.217 159.114 304.18 159.181 304.336 159.881ZM304.986 222.702L304.897 279.313L305.784 279.717C306.401 279.997 306.671 280.005 306.671 279.741C306.671 279.532 306.353 279.277 305.963 279.175C305.259 278.991 305.253 278.625 305.164 222.539L305.072 166.089L304.986 222.702ZM385.254 192.871C385.398 193.75 385.575 194.987 385.646 195.62C385.718 196.255 385.855 197.372 385.951 198.104C386.232 200.263 386.485 203.193 386.578 205.375C386.625 206.497 386.784 207.415 386.929 207.415C387.28 207.416 387.237 205.411 386.811 201.917C386.621 200.357 386.457 198.84 386.446 198.548C386.377 196.555 385.642 191.922 385.349 191.63C385.112 191.393 385.08 191.805 385.254 192.871ZM386.918 211.672C386.96 212.648 387.12 213.446 387.272 213.446C387.426 213.446 387.55 212.648 387.55 211.672C387.55 210.697 387.391 209.899 387.196 209.899C386.997 209.899 386.874 210.674 386.918 211.672ZM387.115 216.085C386.972 217.438 386.931 218.622 387.025 218.715C387.439 219.13 387.578 218.326 387.479 216.059L387.373 213.624L387.115 216.085ZM387.278 220.54C387.278 221.223 387.351 221.503 387.441 221.162C387.53 220.82 387.53 220.261 387.441 219.92C387.351 219.578 387.278 219.857 387.278 220.54ZM387.042 223.644C387.374 225.936 387.55 225.987 387.55 223.793C387.55 222.737 387.391 221.96 387.174 221.96C386.927 221.96 386.881 222.539 387.042 223.644ZM386.963 226.482C386.931 227.132 386.548 232.169 386.354 234.477C386.291 235.216 386.355 235.891 386.496 235.978C386.636 236.064 386.854 234.821 386.98 233.215C387.106 231.61 387.304 229.298 387.421 228.078C387.539 226.841 387.492 225.861 387.314 225.861C387.137 225.861 386.98 226.142 386.963 226.482ZM386.096 236.592C385.889 237.115 385.956 238.632 386.187 238.632C386.351 238.632 386.486 238.154 386.486 237.568C386.486 236.708 386.268 236.161 386.096 236.592ZM385.789 239.164C385.737 239.36 385.666 239.679 385.631 239.874C385.595 240.069 385.421 241.026 385.245 242.002C384.878 244.036 384.896 243.959 384.621 244.663C384.338 245.387 383.533 248.991 383.531 249.54C383.53 249.784 383.37 249.984 383.176 249.984C382.98 249.984 382.91 250.073 383.019 250.182C383.128 250.291 382.915 251.207 382.546 252.217C381.822 254.197 381.694 255.104 382.18 254.803C382.417 254.656 383.175 252.491 383.493 251.048C383.514 250.951 383.633 250.632 383.758 250.339C383.882 250.046 384.067 249.407 384.171 248.92C384.274 248.432 384.76 246.356 385.249 244.309C385.738 242.26 386.081 240.184 386.011 239.696C385.941 239.209 385.841 238.969 385.789 239.164ZM380.58 257.699C380.446 258.236 380.051 259.142 379.705 259.714C379.358 260.286 379.154 260.884 379.254 261.044C379.352 261.205 379.281 261.335 379.096 261.335C378.911 261.335 378.468 262.013 378.112 262.843C377.756 263.672 377.406 264.471 377.334 264.616C377.262 264.762 377.35 264.883 377.53 264.883C377.92 264.883 381.52 257.64 381.52 256.857C381.52 256.261 380.772 256.93 380.58 257.699ZM376.512 265.681C376.489 265.925 376.489 266.244 376.512 266.39C376.535 266.537 376.394 266.656 376.199 266.656C376.004 266.656 375.845 266.905 375.845 267.209C375.845 267.514 375.685 267.664 375.489 267.544C375.295 267.422 375.134 267.533 375.133 267.788C375.132 268.043 374.654 268.763 374.069 269.387C373.485 270.01 373.007 270.68 373.007 270.876C373.007 271.072 372.806 271.36 372.563 271.517C372.319 271.672 371.042 272.942 369.725 274.338C368.409 275.732 367.331 276.823 367.331 276.76C367.331 276.696 366.724 277.231 365.983 277.947C365.242 278.663 364.484 279.277 364.298 279.311C364.113 279.345 362.851 280.104 361.494 280.996C360.137 281.888 358.905 282.619 358.755 282.619C358.606 282.619 357.64 282.995 356.61 283.455C354.608 284.347 353.534 284.791 352.964 284.96C350.583 285.667 348.486 286.212 347.51 286.376C346.851 286.488 345.972 286.657 345.558 286.753C345.144 286.848 343.799 286.976 342.568 287.039C341.338 287.102 340.234 287.249 340.115 287.369C339.538 287.945 347.161 287.292 348.885 286.617C349.177 286.502 349.532 286.432 349.673 286.462C351.104 286.758 359.267 283.296 363.238 280.708C368.943 276.989 379.477 265.237 377.106 265.237C376.802 265.237 376.535 265.436 376.512 265.681ZM307.025 280.087C307.025 280.938 318.88 285.073 325.031 286.368C329.071 287.22 336.527 287.939 336.062 287.435C335.935 287.297 334.968 287.12 333.912 287.041C330.443 286.78 328.684 286.574 328.394 286.396C328.238 286.3 327.396 286.132 326.525 286.024C325.653 285.916 323.504 285.422 321.748 284.926C319.992 284.429 318.316 283.959 318.023 283.881C317.73 283.802 317.411 283.707 317.313 283.67C317.215 283.632 316.856 283.631 316.515 283.665C316.174 283.699 315.894 283.561 315.894 283.356C315.894 283.151 315.173 282.802 314.292 282.581C313.41 282.359 312.604 282.037 312.497 281.867C312.392 281.695 311.826 281.555 311.241 281.555C310.605 281.555 310.267 281.409 310.401 281.192C310.525 280.991 310.494 280.862 310.334 280.902C310.173 280.943 309.423 280.708 308.667 280.379C307.08 279.688 307.025 279.679 307.025 280.087ZM184.502 282.059C183.063 282.616 182.559 282.959 182.885 283.162C183.172 283.338 183.414 283.288 183.499 283.035C183.576 282.804 183.775 282.698 183.941 282.801C184.108 282.904 185.051 282.681 186.039 282.306L187.835 281.623V302.827V324.031L186.23 324.48C185.347 324.727 184.539 325.068 184.435 325.236C184.331 325.404 183.936 325.542 183.557 325.542C183.179 325.542 182.869 325.711 182.869 325.918C182.869 326.124 182.728 326.206 182.555 326.099C182.125 325.833 180.031 326.594 180.031 327.016C180.031 327.204 179.869 327.258 179.672 327.135C179.474 327.013 178.811 327.164 178.199 327.469C177.586 327.775 176.869 328.025 176.606 328.025C176.344 328.025 176.129 328.15 176.129 328.302C176.129 328.456 175.699 328.616 175.174 328.659C174.648 328.703 174.097 328.933 173.951 329.169C173.805 329.406 173.581 329.498 173.456 329.372C173.329 329.246 172.522 329.444 171.662 329.812C170.803 330.182 170.099 330.404 170.099 330.305C170.099 330.208 169.74 330.328 169.301 330.572C168.861 330.816 168.383 331.041 168.237 331.072C168.09 331.104 167.89 331.169 167.793 331.217C167.696 331.266 167.463 331.326 167.278 331.351C166.916 331.398 165.931 332.282 166.239 332.282C166.863 332.282 169.743 331.097 169.743 330.841C169.743 330.67 169.944 330.603 170.187 330.691C170.431 330.779 174.541 329.446 179.322 327.73L188.012 324.611L188.104 302.905L188.195 281.201L187.394 281.225C186.954 281.239 185.652 281.614 184.502 282.059ZM171.872 286.523C166.507 288.445 159.163 291.052 155.554 292.316C141.162 297.357 132.667 300.423 132.325 300.698C132.127 300.858 130.049 301.662 127.708 302.484C125.367 303.308 123.384 304.043 123.303 304.119C122.944 304.456 123.658 304.676 124.063 304.353C124.312 304.154 126.511 303.31 128.95 302.477C131.388 301.643 133.653 300.729 133.982 300.447C134.311 300.163 134.739 300.03 134.933 300.149C135.127 300.269 135.393 300.195 135.523 299.983C135.654 299.772 135.985 299.684 136.258 299.789C136.53 299.893 136.753 299.824 136.753 299.636C136.753 299.447 136.873 299.328 137.02 299.371C137.569 299.536 140.656 298.475 140.656 298.122C140.656 297.921 140.744 297.843 140.851 297.95C140.959 298.058 142.116 297.757 143.423 297.281C144.731 296.805 146.358 296.254 147.041 296.057C148.826 295.542 153.141 293.985 153.864 293.594C154.203 293.411 154.632 293.261 154.817 293.261C155.003 293.261 155.603 293.077 156.152 292.851C156.702 292.627 157.315 292.406 157.515 292.363C157.715 292.32 158.951 291.854 160.261 291.33C161.569 290.806 163.077 290.299 163.61 290.202C164.142 290.106 164.743 289.906 164.944 289.757C165.146 289.608 166.028 289.27 166.906 289.004C167.784 288.739 168.668 288.399 168.872 288.249C169.074 288.099 169.772 287.883 170.421 287.769C171.069 287.654 172.101 287.295 172.712 286.969C173.323 286.644 174.023 286.416 174.267 286.464C174.51 286.513 174.711 286.386 174.711 286.182C174.711 285.978 174.83 285.85 174.976 285.898C175.406 286.037 179.677 284.659 179.677 284.382C179.677 284.243 180.322 284.025 181.113 283.9C181.913 283.771 182.452 283.516 182.333 283.322C182.038 282.846 182.72 282.637 171.872 286.523ZM337.272 287.84C337.811 287.922 338.609 287.92 339.045 287.835C339.482 287.751 339.041 287.684 338.065 287.687C337.09 287.69 336.732 287.758 337.272 287.84ZM356.334 300.053C353.895 300.221 351.623 300.518 351.284 300.712C350.945 300.907 350.4 301.066 350.071 301.066C349.744 301.066 349.56 301.149 349.662 301.252C349.765 301.355 351.268 301.279 353.002 301.085C360.294 300.266 378.648 299.94 386.309 300.492C394.871 301.11 395.875 301.143 395.532 300.798C394.56 299.821 367.272 299.301 356.334 300.053ZM343.135 301.749C342.216 301.877 341.352 302.095 341.212 302.235C340.928 302.518 343.968 302.159 345.337 301.747C346.452 301.412 345.536 301.412 343.135 301.749ZM400.498 301.58C400.693 301.667 403.328 302.076 406.351 302.489C410.93 303.112 418.562 304.385 422.315 305.151C422.945 305.28 423.047 305.239 422.669 305.012C422.072 304.653 413.798 303.132 408.126 302.339C403.774 301.73 399.992 301.355 400.498 301.58ZM338.154 302.388C337.422 302.465 336.824 302.653 336.824 302.808C336.824 303.1 340.317 302.656 340.653 302.322C340.846 302.128 340.571 302.135 338.154 302.388ZM328.576 304.013C327.454 304.21 326.537 304.502 326.537 304.659C326.537 304.817 326.736 304.88 326.979 304.801C327.224 304.721 328.062 304.57 328.842 304.466C329.622 304.36 330.74 304.125 331.325 303.942C332.805 303.479 331.381 303.516 328.576 304.013ZM121.766 304.502C121.425 304.591 121.145 304.818 121.145 305.006C121.145 305.219 121.393 305.215 121.808 304.993C122.173 304.797 122.572 304.739 122.694 304.861C122.818 304.985 122.919 304.899 122.919 304.671C122.919 304.244 122.815 304.229 121.766 304.502ZM322.634 305.173C316.546 306.463 309.295 308.271 308.977 308.578C308.557 308.982 309.438 308.809 313.943 307.605C315.699 307.135 319.12 306.349 321.544 305.856C323.968 305.364 326.03 304.882 326.126 304.787C326.407 304.506 325.103 304.65 322.634 305.173ZM423.556 305.245C423.95 305.64 429.094 306.738 428.872 306.378C428.794 306.254 427.807 305.954 426.676 305.711C425.545 305.47 424.301 305.185 423.911 305.08C423.436 304.952 423.318 305.006 423.556 305.245ZM115.647 306.691C103.415 310.958 87.953 316.493 87.8008 316.658C87.7024 316.765 87.3832 316.895 87.0904 316.949C85.7519 317.196 79.9963 319.345 79.9963 319.597C79.9963 319.927 81.6288 319.583 82.6562 319.036C83.3815 318.651 83.4616 318.625 84.9099 318.305C85.3686 318.203 85.9509 317.948 86.2038 317.738C86.4566 317.528 86.9588 317.281 87.3203 317.189C87.6818 317.098 88.7355 316.828 89.6621 316.59C90.5899 316.352 91.3473 316.034 91.3473 315.884C91.3473 315.733 91.7351 315.609 92.2087 315.609C92.6835 315.609 93.2852 315.41 93.5484 315.166C94.0185 314.729 94.2805 314.635 95.5824 314.436C95.9462 314.381 96.4599 314.157 96.723 313.938C96.9861 313.72 97.3602 313.52 97.5558 313.495C98.2983 313.4 99.6986 313.019 100.038 312.821C100.234 312.707 100.593 312.57 100.837 312.516C101.733 312.316 102.19 312.161 103.231 311.703C103.817 311.445 104.375 311.214 104.473 311.19C105.122 311.025 107.551 310.158 107.843 309.987C108.037 309.871 108.517 309.728 108.907 309.667C109.297 309.608 109.666 309.412 109.728 309.234C109.79 309.055 110.085 309.004 110.385 309.118C110.685 309.234 111.034 309.172 111.159 308.983C111.286 308.793 112.786 308.197 114.492 307.659C116.199 307.12 117.685 306.534 117.795 306.355C117.904 306.177 118.295 306.032 118.662 306.032C119.029 306.032 119.428 305.872 119.548 305.677C119.839 305.207 120.079 305.145 115.647 306.691ZM435.199 308.058C435.326 308.263 435.79 308.509 436.233 308.605C436.674 308.7 437.315 308.896 437.657 309.039C438.004 309.185 438.277 309.147 438.277 308.952C438.277 308.76 437.838 308.515 437.301 308.407C436.765 308.298 436.021 308.092 435.647 307.947C435.208 307.777 435.05 307.816 435.199 308.058ZM305.784 309.131C304.498 309.456 303.377 309.951 303.546 310.12C303.638 310.212 304.578 309.98 305.635 309.603C307.398 308.978 307.485 308.702 305.784 309.131ZM438.809 309.178C439.005 309.376 439.563 309.615 440.052 309.711C441.269 309.951 444.76 311.024 445.195 311.291C445.39 311.411 445.862 311.558 446.243 311.618C446.625 311.676 447.024 311.841 447.131 311.983C447.323 312.239 447.916 312.435 448.919 312.573C449.212 312.614 450.045 312.914 450.77 313.241C452.279 313.921 452.466 313.953 452.466 313.53C452.466 313.361 449.793 312.342 446.524 311.266C439.831 309.06 438.277 308.64 438.809 309.178ZM299.048 311.046C297.1 311.635 295.424 312.224 295.323 312.356C295.224 312.487 294.982 312.6 294.788 312.605C293.849 312.634 292.127 313.22 292.127 313.509C292.127 313.948 292.74 313.925 293.018 313.476C293.14 313.277 293.378 313.2 293.547 313.304C293.714 313.407 293.954 313.328 294.078 313.127C294.202 312.924 294.448 312.849 294.624 312.958C294.8 313.066 295.432 312.903 296.029 312.594C296.626 312.286 297.269 312.129 297.458 312.246C297.648 312.363 297.802 312.308 297.802 312.122C297.802 311.937 298.402 311.661 299.133 311.508C299.865 311.356 300.543 311.2 300.641 311.164C300.738 311.127 301.337 310.975 301.971 310.826C302.605 310.676 303.124 310.414 303.124 310.244C303.124 309.82 303.062 309.832 299.048 311.046ZM452.825 313.723C452.827 314.009 454.631 314.982 454.816 314.797C454.869 314.745 454.8 314.528 454.664 314.317C454.352 313.829 452.821 313.335 452.825 313.723ZM289.732 314.071C289.199 314.286 289.071 359.242 289.604 359.242C289.778 359.242 296.442 356.95 304.415 354.147C312.387 351.345 319.548 348.848 320.328 348.597C321.109 348.347 321.827 348.037 321.925 347.908C322.022 347.78 328.208 345.529 335.67 342.905C343.132 340.281 349.238 338.02 349.238 337.878C349.238 337.736 348.8 337.787 348.264 337.991C347.727 338.196 347.248 338.349 347.197 338.333C347.148 338.317 346.573 338.528 345.918 338.801C345.264 339.074 344.193 339.415 343.538 339.559C342.881 339.704 342.101 339.955 341.801 340.119C341.075 340.518 336.873 342.091 335.76 342.382C335.271 342.51 334.553 342.762 334.163 342.942C333.268 343.355 326.715 345.694 325.294 346.105C323.703 346.568 315.114 349.606 314.298 349.995C313.908 350.182 311.593 351.002 309.154 351.818C306.715 352.634 304.321 353.465 303.834 353.665C303.345 353.865 302.681 354.082 302.358 354.146C302.035 354.209 300.837 354.617 299.698 355.052C298.558 355.486 297.506 355.809 297.36 355.768C297.213 355.728 297.093 355.854 297.093 356.049C297.093 356.244 296.773 356.404 296.38 356.404C295.988 356.404 294.98 356.727 294.141 357.121C293.303 357.515 292.306 357.908 291.929 357.994C291.55 358.079 290.881 358.254 290.442 358.382L289.644 358.615V336.795C289.644 317.728 289.711 314.95 290.176 314.772C290.469 314.66 290.708 314.402 290.708 314.202C290.708 313.813 290.454 313.78 289.732 314.071ZM455.305 314.732C455.305 315.019 455.55 315.255 455.848 315.255C456.758 315.255 460.765 316.701 461.38 317.251C461.696 317.535 462.096 317.728 462.266 317.68C462.437 317.632 463.096 317.869 463.729 318.206C464.363 318.544 464.882 318.742 464.882 318.645C464.882 318.548 465.464 318.863 466.174 319.345C466.883 319.826 467.617 320.221 467.804 320.221C467.991 320.221 468.585 320.536 469.125 320.92C469.664 321.304 470.208 321.517 470.333 321.394C470.456 321.269 470.558 321.332 470.558 321.532C470.558 321.732 471.356 322.276 472.332 322.739C473.307 323.202 474.106 323.695 474.106 323.835C474.106 323.974 474.815 324.577 475.682 325.173C477.633 326.515 481.91 330.836 481.91 331.464C481.91 331.719 482.067 331.928 482.259 331.928C482.45 331.928 483.02 332.741 483.524 333.736C484.028 334.732 484.525 335.46 484.628 335.357C485.473 334.513 480.598 328.254 476.654 325.122C470.981 320.613 455.305 312.984 455.305 314.732ZM77.6019 320.101C75.537 320.832 75.688 321.374 77.7792 320.74C78.7059 320.459 79.5044 320.227 79.5525 320.224C79.6016 320.223 79.6417 320.062 79.6417 319.866C79.6417 319.422 79.4621 319.443 77.6019 320.101ZM74.5863 321.175C73.9468 321.342 73.7122 321.994 74.2911 321.994C74.9055 321.994 75.7394 321.564 75.7394 321.247C75.7394 320.917 75.6079 320.908 74.5863 321.175ZM71.7491 322.255C70.5216 322.758 69.9599 323.414 70.7561 323.414C71.3682 323.414 72.9011 322.597 72.9011 322.271C72.9011 322.096 73.0613 322.051 73.2558 322.173C73.4514 322.293 73.6104 322.222 73.6104 322.016C73.6104 321.548 73.4079 321.574 71.7491 322.255ZM69.0881 323.294C68.8445 323.392 68.6443 323.605 68.6443 323.766C68.6443 324.207 69.8272 323.947 69.985 323.471C70.128 323.043 69.8478 322.987 69.0881 323.294ZM66.871 324.214C51.0836 331.29 42.7471 336.098 38.1379 340.784C35.9414 343.015 33.8307 346.117 34.5079 346.117C34.6818 346.117 35.0513 345.682 35.3282 345.151C36.2526 343.382 39.6983 339.867 41.7496 338.603C42.484 338.151 43.0892 337.581 43.0938 337.337C43.0995 337.093 43.2345 336.934 43.3924 336.982C43.5514 337.031 44.5501 336.522 45.6095 335.853C46.67 335.182 48.1366 334.328 48.8688 333.953C49.5998 333.578 50.1981 333.12 50.1981 332.933C50.1981 332.747 50.3457 332.685 50.5242 332.796C50.7038 332.907 51.0676 332.797 51.333 332.551C51.7357 332.178 59.2198 328.302 59.7758 328.178C60.2975 328.062 62.8178 326.846 62.9688 326.638C63.066 326.504 63.8245 326.196 64.6539 325.954C65.4833 325.712 66.1617 325.351 66.1617 325.152C66.1617 324.954 66.3173 324.887 66.5084 325.005C66.9328 325.267 68.2896 324.585 68.2896 324.111C68.2896 323.686 68.0025 323.707 66.871 324.214ZM388.082 326.637C385.596 326.887 383.184 327.202 381.52 327.493C381.032 327.578 379.915 327.746 379.037 327.868C378.159 327.988 377.261 328.235 377.043 328.417C376.823 328.599 376.4 328.654 376.102 328.539C375.805 328.425 375.455 328.505 375.323 328.716C375.193 328.928 374.948 329.016 374.78 328.912C374.612 328.808 374.374 328.886 374.251 329.084C374.129 329.282 373.648 329.444 373.184 329.444C372.719 329.444 372.239 329.606 372.116 329.804C371.993 330.003 371.763 330.085 371.605 329.986C371.356 329.833 368.241 330.753 366.621 331.457C366.329 331.584 365.982 331.702 365.853 331.719C365.723 331.737 365.496 331.869 365.35 332.016C365.203 332.162 364.791 332.282 364.433 332.282C364.076 332.282 363.783 332.448 363.783 332.652C363.783 332.855 363.583 332.977 363.34 332.921C362.858 332.811 360.081 333.574 359.088 334.09C358.749 334.266 358.242 334.41 357.96 334.41C357.679 334.41 357.237 334.61 356.98 334.854C356.723 335.098 356.192 335.344 355.802 335.4C355.412 335.457 354.773 335.638 354.383 335.804C353.993 335.968 352.995 336.307 352.166 336.555C351.337 336.803 350.658 337.158 350.658 337.343C350.658 337.528 350.857 337.605 351.102 337.516C351.346 337.426 352.862 336.917 354.471 336.385C356.081 335.852 357.398 335.26 357.398 335.07C357.398 334.879 357.538 334.809 357.71 334.916C357.881 335.022 361.438 333.93 365.614 332.489C384.797 325.87 407.78 324.907 416.206 330.368C416.65 330.657 417.193 330.781 417.413 330.645C417.635 330.508 417.715 330.556 417.593 330.754C417.362 331.126 419.221 333.128 419.52 332.829C419.875 332.476 419.574 335.694 419.186 336.419C417.987 338.658 413.375 341.534 407.592 343.647C405.837 344.288 404.252 344.944 404.069 345.104C403.437 345.66 404.084 345.733 405.078 345.217C405.628 344.931 406.369 344.697 406.725 344.697C407.082 344.697 407.472 344.538 407.592 344.343C407.714 344.148 408.032 343.988 408.301 343.988C408.568 343.988 409.238 343.803 409.787 343.575C410.336 343.347 410.865 343.139 410.963 343.113C412.069 342.811 414.865 341.331 414.865 341.048C414.865 340.844 414.964 340.777 415.086 340.899C415.515 341.327 419.237 338.099 419.114 337.406C419.092 337.284 419.359 336.976 419.706 336.722C420.868 335.872 420.562 333.235 419.13 331.758C417.877 330.466 413.613 328.235 413.055 328.58C412.88 328.688 412.737 328.641 412.737 328.474C412.737 328.204 409.985 327.465 407.464 327.059C406.949 326.975 406.05 326.824 405.465 326.724C403.758 326.427 390.799 326.362 388.082 326.637ZM164.068 332.46C163.58 332.738 162.973 332.972 162.718 332.979C162.072 332.996 158.998 334.425 159.191 334.617C159.424 334.852 165.842 332.518 165.842 332.2C165.842 331.781 165.051 331.898 164.068 332.46ZM157.889 334.719C157.78 334.895 157.097 335.15 156.373 335.287C155.045 335.536 152.182 336.831 152.424 337.073C152.549 337.199 158.418 335.213 158.67 334.959C158.739 334.892 158.635 334.737 158.44 334.617C158.246 334.497 157.998 334.543 157.889 334.719ZM485.068 337.97C485.375 339.149 485.683 339.942 485.752 339.734C485.93 339.198 485.085 335.83 484.771 335.83C484.627 335.83 484.761 336.793 485.068 337.97ZM150.056 337.529C149.666 337.612 149.186 337.807 148.992 337.962C148.796 338.118 148.158 338.325 147.573 338.421C146.988 338.517 145.711 338.944 144.735 339.37C142.425 340.377 140.341 341.136 139.247 341.364C138.766 341.464 138.207 341.671 138.006 341.822C137.805 341.973 136.363 342.53 134.803 343.06C133.241 343.59 131.645 344.168 131.255 344.346C130.865 344.523 127.752 345.639 124.338 346.824C120.924 348.009 117.891 349.079 117.598 349.202C117.305 349.325 116.986 349.441 116.889 349.461C116.791 349.481 116.509 349.626 116.262 349.782C116.015 349.939 115.388 350.145 114.868 350.239C114.348 350.334 113.752 350.517 113.543 350.647C113.334 350.779 112.851 350.933 112.469 350.993C112.088 351.052 111.686 351.247 111.576 351.425C111.465 351.604 110.935 351.829 110.397 351.926C109.861 352.023 108.586 352.511 107.567 353.008C99.988 356.712 97.732 361.047 101.664 364.356C102.917 365.41 104.827 366.478 104.827 366.125C104.827 365.999 105.027 366.058 105.271 366.258C105.643 366.564 108.359 367.471 109.144 367.554C109.274 367.567 109.499 367.698 109.646 367.844C110.01 368.208 111.568 368.182 111.568 367.812C111.568 367.647 110.649 367.31 109.528 367.062C103.441 365.71 99.6357 362.606 100.577 359.756C101.577 356.725 105.729 354.215 115.783 350.566C119.356 349.269 122.543 348.057 122.865 347.874C123.188 347.691 129.596 345.364 137.108 342.702C144.62 340.041 150.832 337.804 150.914 337.734C151.197 337.484 150.761 337.38 150.056 337.529ZM485.554 342.215C485.554 343.092 485.622 343.451 485.707 343.013C485.792 342.574 485.792 341.855 485.707 341.416C485.622 340.978 485.554 341.336 485.554 342.215ZM485.13 344.494C485.103 345.171 482.797 350.124 482.097 351.012C481.896 351.266 481.141 352.085 480.418 352.831C479.695 353.578 479.191 354.276 479.298 354.384C479.405 354.49 479.039 354.816 478.484 355.108C477.929 355.398 476.803 356.288 475.982 357.085C475.16 357.881 474.33 358.532 474.136 358.532C473.944 358.532 473.63 358.812 473.439 359.153C473.248 359.495 473 359.734 472.889 359.685C472.425 359.482 472.094 359.646 471.096 360.572C470.517 361.108 469.914 361.547 469.756 361.547C469.597 361.547 469.317 361.787 469.131 362.079C468.947 362.372 468.793 362.488 468.79 362.337C468.781 361.895 466.656 363.12 466.656 363.567C466.656 363.79 466.556 363.872 466.434 363.75C466.133 363.449 464.173 364.488 464.173 364.947C464.173 365.149 464.027 365.223 463.847 365.112C463.668 365.001 463.28 365.152 462.986 365.446C462.691 365.741 462.288 365.982 462.091 365.982C461.703 365.982 456.08 368.495 454.541 369.356C454.022 369.647 453.429 369.884 453.22 369.884C453.012 369.884 451.92 370.304 450.792 370.816C449.665 371.329 448.293 371.808 447.744 371.88C447.196 371.952 446.397 372.203 445.971 372.438C445.544 372.673 445.03 372.893 444.83 372.928C444.63 372.962 443.421 373.409 442.143 373.92C440.864 374.431 439.552 374.85 439.226 374.85C438.898 374.85 438.632 375.019 438.632 375.225C438.632 375.432 438.491 375.514 438.317 375.407C438.145 375.3 437.785 375.476 437.52 375.798C437.106 376.3 437.113 376.354 437.568 376.178C437.861 376.066 439.577 375.468 441.381 374.85C443.186 374.232 444.663 373.571 444.663 373.381C444.663 373.19 444.818 373.131 445.006 373.247C446.119 373.935 461.098 367.414 468.659 362.949C478.195 357.319 486.744 347.736 485.336 344.252C485.239 344.01 485.145 344.118 485.13 344.494ZM400.232 346.554C398.525 347.16 397.128 347.767 397.128 347.902C397.128 348.16 402.991 346.048 403.396 345.643C403.722 345.317 403.713 345.32 400.232 346.554ZM33.5653 347.576C33.0493 349.056 33.2964 349.302 33.881 347.89C34.1281 347.293 34.2482 346.721 34.1464 346.619C34.0457 346.518 33.7838 346.949 33.5653 347.576ZM395.088 348.333C394.455 348.537 393.935 348.831 393.935 348.987C393.935 349.306 396.055 348.673 396.579 348.197C397.003 347.81 396.602 347.847 395.088 348.333ZM32.6523 350.938C32.5185 351.834 32.5002 352.658 32.6123 352.771C32.7244 352.883 32.8297 352.829 32.8457 352.649C32.9441 351.568 33.0836 350.811 33.3136 350.107C33.4612 349.655 33.4268 349.309 33.2358 349.309C33.0493 349.309 32.7873 350.042 32.6523 350.938ZM390.477 349.899C388.996 350.423 388.453 351.083 389.501 351.083C389.794 351.083 390.034 350.941 390.034 350.767C390.034 350.595 390.592 350.347 391.275 350.219C391.958 350.091 392.517 349.834 392.517 349.647C392.517 349.221 392.327 349.244 390.477 349.899ZM387.462 350.973C387.12 351.061 386.841 351.268 386.841 351.431C386.841 351.796 388.199 351.469 388.463 351.04C388.665 350.715 388.494 350.703 387.462 350.973ZM186.771 351.426C186.771 351.615 187.01 351.678 187.303 351.566C187.772 351.386 187.835 353.618 187.835 370.354C187.835 388.138 187.796 389.357 187.215 389.524C186.873 389.623 184.998 389.955 183.046 390.262C177.308 391.167 177.113 391.206 177.293 391.386C177.456 391.549 186.255 390.26 187.569 389.88C188.609 389.58 188.521 351.083 187.48 351.083C187.09 351.083 186.771 351.238 186.771 351.426ZM180.987 353.332C176.14 355.131 174.666 356.085 179.017 354.608C180.258 354.187 181.433 353.813 181.627 353.776C181.823 353.74 182.301 353.545 182.691 353.345C183.081 353.145 184.079 352.768 184.908 352.507C185.738 352.247 186.416 351.9 186.416 351.735C186.416 351.318 186.431 351.313 180.987 353.332ZM384.444 352.028C383.614 352.322 383.013 352.689 383.109 352.845C383.313 353.174 386.486 352.105 386.486 351.707C386.486 351.353 386.242 351.392 384.444 352.028ZM379.037 353.998C377.379 354.606 375.972 355.226 375.91 355.378C375.848 355.53 375.569 355.566 375.289 355.459C375.01 355.351 374.78 355.406 374.78 355.58C374.78 355.754 374.501 355.905 374.16 355.914C373.567 355.93 351.35 363.762 351.043 364.063C350.689 364.41 351.395 364.628 351.802 364.3C352.052 364.1 352.813 363.818 353.496 363.676C354.179 363.533 354.909 363.278 355.12 363.11C355.33 362.941 355.81 362.741 356.185 362.664C358.403 362.21 359.172 361.957 359.172 361.68C359.172 361.51 359.465 361.37 359.822 361.37C360.18 361.37 360.592 361.25 360.738 361.105C360.885 360.958 361.151 360.819 361.33 360.794C361.508 360.769 361.734 360.71 361.832 360.661C362.081 360.536 362.36 360.466 363.872 360.151C364.604 359.997 365.202 359.765 365.202 359.635C365.202 359.504 365.961 359.179 366.887 358.913C367.814 358.647 368.755 358.287 368.978 358.113C369.202 357.94 369.521 357.829 369.688 357.868C369.855 357.906 370.47 357.726 371.055 357.468C371.641 357.21 372.239 357.025 372.385 357.056C372.532 357.088 372.652 356.927 372.652 356.699C372.652 356.471 372.746 356.38 372.86 356.494C373.119 356.753 376.48 355.793 377.441 355.186C377.831 354.938 378.995 354.521 380.027 354.258C381.06 353.995 382.077 353.571 382.288 353.317C382.827 352.67 382.452 352.748 379.037 353.998ZM32.6043 356.087C34.3661 367.108 45.4539 375.531 66.871 382.117C75.156 384.665 74.6755 384.542 74.6755 384.097C74.6755 383.889 74.3907 383.718 74.0417 383.718C73.5006 383.718 70.3488 382.746 68.6443 382.053C68.3525 381.933 67.8331 381.87 67.4922 381.912C67.1502 381.954 66.871 381.847 66.871 381.672C66.871 381.497 66.672 381.333 66.4271 381.309C65.1779 381.182 63.6666 380.715 61.9609 379.928C60.9176 379.448 59.9726 379.147 59.8605 379.259C59.7472 379.372 59.3239 379.25 58.9178 378.988C58.5117 378.726 57.6514 378.408 57.0062 378.282C56.3609 378.155 55.5819 377.802 55.2753 377.495C54.9698 377.188 54.5134 377.017 54.2617 377.113C54.01 377.209 53.708 377.036 53.589 376.727C53.4712 376.42 53.279 376.263 53.1623 376.38C53.0456 376.496 52.3843 376.207 51.6922 375.737C51.0012 375.266 50.3022 374.963 50.1398 375.064C49.9762 375.165 49.8435 375.088 49.8435 374.894C49.8435 374.7 49.2852 374.339 48.6022 374.093C47.9192 373.846 47.361 373.506 47.361 373.339C47.361 373.172 47.218 373.123 47.0429 373.231C46.8679 373.339 46.6299 373.179 46.5132 372.874C46.3966 372.571 46.1392 372.422 45.9412 372.545C45.7433 372.666 45.4871 372.519 45.3704 372.214C45.2537 371.91 45.0317 371.739 44.8773 371.834C44.7229 371.931 44.5055 371.769 44.3934 371.479C44.2813 371.187 43.985 370.948 43.7333 370.948C43.4827 370.948 42.627 370.349 41.8308 369.617C41.0357 368.886 40.0782 368.111 39.7041 367.894C39.33 367.678 39.0451 367.359 39.0691 367.185C39.0943 367.011 38.7511 366.532 38.3072 366.121C37.8645 365.71 37.0831 364.713 36.5729 363.904C36.0627 363.095 35.4781 362.434 35.2744 362.434C35.0696 362.434 35.0021 362.275 35.1223 362.079C35.2424 361.885 35.1463 361.725 34.9072 361.725C34.6681 361.725 34.5789 361.618 34.7093 361.487C34.8408 361.356 34.7264 360.912 34.4565 360.5C34.1865 360.088 33.6854 358.598 33.3433 357.19C32.6661 354.403 32.2313 353.756 32.6043 356.087ZM173.203 356.165C172.081 356.587 171.163 357.07 171.163 357.238C171.163 357.406 171.442 357.422 171.783 357.273C172.125 357.123 173.163 356.755 174.089 356.453C175.016 356.151 175.775 355.777 175.775 355.623C175.775 355.236 175.546 355.284 173.203 356.165ZM167.083 358.376C165.327 359.02 163.74 359.609 163.553 359.685C163.349 359.767 163.36 359.91 163.579 360.045C163.778 360.169 164.329 360.068 164.803 359.822C165.277 359.577 165.744 359.357 165.842 359.334C165.939 359.311 166.498 359.103 167.083 358.873C167.669 358.642 168.387 358.412 168.679 358.361C169.803 358.169 170.808 357.728 170.808 357.427C170.808 357.013 170.779 357.021 167.083 358.376ZM156.656 362.092C153.457 363.254 149.985 364.474 148.941 364.803C147.896 365.133 147.041 365.551 147.041 365.733C147.041 365.915 147.4 365.958 147.839 365.828C148.278 365.698 148.876 365.532 149.169 365.459C149.462 365.386 149.741 365.294 149.791 365.255C149.839 365.216 150.039 365.144 150.233 365.095C150.429 365.046 150.708 364.967 150.854 364.92C151.001 364.872 151.24 364.852 151.386 364.875C151.533 364.898 151.653 364.748 151.653 364.541C151.653 364.335 151.779 364.244 151.933 364.34C152.087 364.435 152.686 364.31 153.263 364.063C154.314 363.612 155.099 363.324 158.747 362.044C159.82 361.668 160.976 361.202 161.314 361.01C161.653 360.818 162.261 360.661 162.665 360.661C163.069 360.661 163.301 360.501 163.181 360.306C162.877 359.813 163.11 359.749 156.656 362.092ZM340.548 367.621C335.28 369.483 330.917 371.154 330.852 371.334C330.785 371.514 330.607 371.584 330.454 371.489C330.299 371.394 322.371 374.09 312.836 377.481C303.299 380.871 294.14 384.121 292.481 384.702L289.467 385.761L289.375 407.443C289.309 423.075 289.393 429.125 289.675 429.125C290.053 429.125 303.148 424.514 303.449 424.275C304.015 423.825 302.982 423.859 302.092 424.318C301.489 424.631 300.995 424.782 300.995 424.656C300.995 424.529 300.731 424.645 300.408 424.913C300.086 425.181 299.769 425.364 299.702 425.321C299.541 425.213 298.469 425.557 297.719 425.958C297.38 426.139 296.925 426.286 296.709 426.286C296.491 426.286 295.811 426.499 295.196 426.758C293.657 427.407 290.521 428.415 290.04 428.415C289.753 428.415 289.644 422.625 289.644 407.393V386.369L292.748 385.333C294.455 384.763 296.166 384.087 296.552 383.831C296.936 383.573 297.541 383.364 297.897 383.364C298.555 383.364 304.924 381.135 306.046 380.513C306.385 380.325 306.903 380.171 307.198 380.171C307.493 380.171 307.736 380.027 307.736 379.849C307.736 379.673 308.037 379.607 308.405 379.703C308.773 379.799 309.182 379.704 309.312 379.492C309.444 379.281 309.821 379.106 310.151 379.105C310.48 379.104 311.208 378.864 311.766 378.573C312.326 378.281 312.914 378.043 313.074 378.043C313.234 378.043 313.814 377.859 314.363 377.633C314.912 377.408 315.575 377.182 315.833 377.129C316.093 377.076 316.571 376.915 316.897 376.771C317.223 376.626 317.571 376.493 317.668 376.476C318.691 376.292 320.86 375.375 320.86 375.127C320.86 374.952 321.013 374.903 321.2 375.018C321.386 375.133 322.145 374.971 322.885 374.658C323.625 374.344 326.466 373.318 329.196 372.377C335.985 370.038 336.557 369.834 337.262 369.481C337.601 369.313 338.12 369.175 338.415 369.175C338.71 369.175 338.951 368.988 338.951 368.76C338.951 368.533 339.053 368.447 339.176 368.571C339.299 368.694 339.738 368.611 340.151 368.385C340.564 368.161 341.142 367.954 341.435 367.928C342.472 367.831 344.628 366.986 344.628 366.675C344.628 366.501 344.835 366.438 345.09 366.536C345.344 366.634 346.182 366.44 346.953 366.107C347.723 365.775 348.533 365.467 348.752 365.424C349.842 365.215 350.658 364.836 350.658 364.539C350.658 364.041 350.806 363.996 340.548 367.621ZM144.026 366.18C137.395 368.01 122.352 368.938 114.317 368.011C113 367.86 111.922 367.873 111.922 368.041C111.922 368.209 112.121 368.362 112.365 368.382C112.61 368.401 113.767 368.527 114.937 368.662C117.737 368.985 130.091 369.169 130.534 368.894C130.724 368.776 131.444 368.702 132.131 368.728C132.82 368.755 133.623 368.692 133.916 368.59C134.208 368.487 135.167 368.35 136.044 368.285C138.397 368.109 140.808 367.703 141.01 367.447C141.107 367.325 141.587 367.197 142.074 367.165C143.625 367.062 146.331 366.292 146.331 365.953C146.331 365.557 146.254 365.565 144.026 366.18ZM433.581 376.946C432.657 377.285 431.792 377.67 431.66 377.802C431.528 377.934 431.083 378.043 430.671 378.043C430.259 378.043 429.567 378.291 429.133 378.596C428.698 378.9 428.185 379.05 427.989 378.93C427.795 378.808 427.636 378.879 427.636 379.086C427.636 379.292 427.256 379.462 426.792 379.462C426.328 379.462 425.73 379.73 425.462 380.06C425.044 380.574 425.05 380.633 425.507 380.475C430.949 378.599 435.794 376.743 435.795 376.535C435.795 376.179 435.552 376.224 433.581 376.946ZM423.966 380.572C423.606 380.782 423.127 380.987 422.902 381.028C421.497 381.283 416.284 383.211 416.284 383.475C416.284 383.651 416.484 383.72 416.727 383.629C416.971 383.538 418.887 382.86 420.984 382.124C423.081 381.387 424.797 380.646 424.797 380.477C424.797 380.1 424.774 380.103 423.966 380.572ZM415.123 383.578C414.932 383.77 412.951 384.493 404.401 387.495C402.345 388.217 399.909 389.568 401.74 388.971C406.484 387.424 415.929 383.891 415.929 383.665C415.929 383.317 415.438 383.264 415.123 383.578ZM75.3859 384.532C75.6971 384.871 83.9512 386.977 84.1571 386.77C84.3894 386.538 84.1136 386.441 81.0603 385.677C79.7927 385.36 78.4359 385.014 78.0446 384.906C76.7588 384.552 75.204 384.334 75.3859 384.532ZM84.6079 386.9C84.6079 387.18 86.7472 387.728 86.9703 387.505C87.0366 387.439 86.5321 387.213 85.8491 387.004C85.1661 386.794 84.6079 386.748 84.6079 386.9ZM87.445 387.616C87.445 387.915 94.8823 389.526 95.1282 389.28C95.2255 389.181 94.3755 388.917 93.2383 388.693C92.1012 388.467 90.3325 388.078 89.3075 387.829C88.2836 387.58 87.445 387.483 87.445 387.616ZM398.725 389.566C398.139 389.83 396.658 390.4 395.432 390.832C394.206 391.264 393.26 391.675 393.33 391.745C393.473 391.888 400.681 389.506 400.966 389.222C401.331 388.856 399.762 389.098 398.725 389.566ZM100.57 390.476C104.11 391.165 105.059 391.282 104.771 390.993C104.537 390.759 98.804 389.754 97.9105 389.791C97.5204 389.807 98.717 390.116 100.57 390.476ZM105.68 391.112C105.79 391.292 106.962 391.553 108.281 391.693C109.601 391.833 110.84 392.072 111.036 392.224C112.133 393.082 130.751 394.35 142.251 394.35C153.845 394.35 172.543 393.061 173.451 392.198C173.636 392.022 174.275 391.875 174.87 391.872C175.465 391.868 176.191 391.705 176.484 391.507C176.892 391.23 176.81 391.189 176.129 391.327C175.373 391.482 172.638 391.852 168.147 392.41C167.562 392.482 166.315 392.643 165.374 392.767C164.434 392.891 162.765 392.992 161.663 392.992C160.563 392.992 159.548 393.063 159.409 393.149C158.534 393.689 138.978 393.97 131.078 393.556C121.923 393.075 110.133 391.847 106.305 390.974C105.844 390.869 105.567 390.929 105.68 391.112ZM387.905 393.446C385.466 394.296 382.712 395.322 381.786 395.727C380.859 396.132 380.101 396.384 380.101 396.287C380.101 396.189 379.741 396.306 379.303 396.547C378.864 396.789 378.205 397.036 377.839 397.097C377.473 397.157 376.675 397.428 376.066 397.697C374.423 398.423 373.581 398.747 373.184 398.809C372.988 398.839 372.59 398.958 372.297 399.072C372.004 399.188 370.567 399.696 369.104 400.201C367.641 400.707 366.204 401.222 365.911 401.347C365.62 401.47 365.299 401.587 365.202 401.605C365.105 401.623 364.306 401.899 363.429 402.218C362.55 402.536 360.156 403.384 358.108 404.1C356.059 404.818 354.064 405.541 353.674 405.708C353.284 405.875 352.206 406.285 351.279 406.619C350.353 406.953 349.594 407.365 349.594 407.533C349.594 407.951 347.886 408.528 367.702 401.424C377.545 397.896 387.236 394.424 389.234 393.709C391.234 392.994 392.87 392.289 392.871 392.143C392.872 391.735 392.65 391.793 387.905 393.446ZM452.91 399.223C451.885 399.525 451.048 399.893 451.048 400.04C451.048 400.188 451.697 400.085 452.491 399.811C453.283 399.538 454.082 399.406 454.264 399.519C454.446 399.632 454.595 399.537 454.595 399.31C454.595 399.083 454.83 398.987 455.116 399.096C455.402 399.206 455.732 399.143 455.846 398.957C456.139 398.484 455.099 398.578 452.91 399.223ZM457.167 398.862C457.508 398.951 458.068 398.951 458.409 398.862C458.749 398.773 458.47 398.699 457.787 398.699C457.105 398.699 456.825 398.773 457.167 398.862ZM459.612 398.786C459.788 398.963 460.134 399.043 462.659 399.499C463.485 399.648 464.341 399.99 464.564 400.258C464.788 400.526 465.162 400.746 465.397 400.746C466.02 400.746 469.079 402.837 470.425 404.184C474.064 407.823 476.136 415.675 474.643 420.167C474.487 420.637 474.522 420.965 474.729 420.965C475.238 420.965 475.524 419.154 475.524 415.935C475.524 412.966 474.958 409.969 474.397 409.969C474.214 409.969 474.159 409.815 474.275 409.626C474.937 408.556 470.923 403.323 467.983 401.423C465.372 399.736 458.35 397.523 459.612 398.786ZM448.292 401.456C445.251 403.487 442.812 406.651 441.731 409.969C440.929 412.431 440.697 413.597 441.055 413.376C441.232 413.267 441.477 412.551 441.599 411.787C441.815 410.437 443.126 407.525 443.71 407.095C443.87 406.979 444.038 406.659 444.087 406.386C444.185 405.815 447.439 402.519 447.902 402.519C448.071 402.519 448.21 402.377 448.21 402.204C448.21 402.03 448.569 401.795 449.008 401.684C449.656 401.519 451.052 400.037 450.559 400.037C450.483 400.037 449.462 400.675 448.292 401.456ZM455.24 401.638C455.116 401.762 454.8 401.911 454.539 401.969C452.31 402.463 451.757 402.644 451.757 402.88C451.757 403.029 451.398 403.243 450.959 403.354C449.413 403.748 446.117 407.312 444.94 409.864C442.835 414.427 443.904 423.7 446.657 424.756C446.926 424.858 447.146 425.162 447.146 425.429C447.146 425.697 447.583 426.198 448.116 426.545C448.649 426.89 449.371 427.457 449.721 427.803C452.837 430.891 460.824 431.302 465.417 428.61C467.507 427.384 470.657 424.219 470.415 423.586C470.311 423.315 470.381 423.094 470.569 423.094C470.758 423.094 470.913 422.854 470.913 422.561C470.913 422.27 471.061 422.029 471.243 422.029C472.261 422.029 472.943 415.754 472.265 412.629C471.599 409.561 468.048 404.083 467.245 404.886C467.117 405.015 467.01 404.929 467.01 404.695C467.01 404.215 464.526 402.639 464.028 402.805C463.851 402.864 463.608 402.754 463.488 402.559C463.066 401.875 455.813 401.065 455.24 401.638ZM462.652 402.923C477.226 408.303 473.631 429.656 458.15 429.656C446.456 429.656 440.164 416.395 447.476 407.162C450.874 402.87 457.5 401.021 462.652 402.923ZM451.048 406.061C451.369 406.283 453.815 406.403 457.236 406.365C461.283 406.32 462.931 406.42 463.029 406.717C463.106 406.944 463.34 407.131 463.55 407.131C465.795 407.131 466.595 412.259 464.73 414.697C463.726 416.011 463.813 416.681 464.992 416.703C465.15 416.706 465.191 416.85 465.085 417.023C464.977 417.196 465.128 417.534 465.418 417.776C466.151 418.384 466.139 417.496 465.4 416.44C464.896 415.722 464.911 415.577 465.573 414.676C466.401 413.551 466.984 410.324 466.361 410.324C466.145 410.324 466.057 410.093 466.166 409.81C466.478 408.996 465.207 407.201 463.833 406.515C462.373 405.788 450.014 405.348 451.048 406.061ZM348.912 407.418C348.897 407.673 348.753 407.801 348.593 407.702C348.433 407.603 347.914 407.719 347.44 407.96C346.966 408.202 345.869 408.608 345.003 408.864C344.137 409.119 343.02 409.499 342.521 409.707C342.021 409.916 341.532 410.106 341.435 410.132C340.593 410.344 338.206 411.19 337.302 411.596C336.687 411.872 336.003 412.097 335.782 412.097C335.563 412.097 334.868 412.312 334.24 412.574C333.612 412.836 332.977 413.073 332.829 413.099C332.681 413.125 332.082 413.394 331.499 413.695C330.916 413.997 330.439 414.15 330.439 414.037C330.439 413.924 330.083 414.08 329.649 414.383C329.216 414.687 328.569 414.935 328.214 414.935C327.857 414.935 327.055 415.206 326.43 415.539C325.805 415.871 325.095 416.104 324.851 416.055C324.608 416.007 324.408 416.144 324.408 416.36C324.408 416.575 324.246 416.65 324.048 416.529C323.852 416.406 323.188 416.556 322.575 416.862C321.963 417.168 321.167 417.418 320.806 417.418C320.446 417.418 320.151 417.595 320.151 417.811C320.151 418.026 319.931 418.119 319.662 418.016C319.393 417.913 318.994 418.007 318.776 418.227C318.556 418.445 318.377 418.493 318.377 418.333C318.377 418.172 318.152 418.228 317.876 418.457C317.601 418.685 316.926 418.954 316.375 419.054C315.506 419.212 314.674 419.865 314.968 420.159C315.06 420.249 348.889 408.21 349.187 407.981C349.257 407.928 349.229 407.675 349.126 407.419C348.974 407.037 348.935 407.037 348.912 407.418ZM453.886 411.189C453.886 413.084 454.041 414.077 454.393 414.428C454.981 415.018 459.038 415.141 459.384 414.581C459.523 414.356 458.678 414.226 457.1 414.226H454.595V411.742V409.26H457.232C458.683 409.26 460.293 409.42 460.81 409.617C461.954 410.051 462.776 409.675 461.834 409.149C461.473 408.946 459.537 408.708 457.532 408.619L453.886 408.457V411.189ZM462.399 411.865C462.399 412.817 461.394 413.871 460.488 413.871C460.151 413.871 459.974 414.03 460.094 414.226C460.465 414.828 461.327 414.621 462.238 413.71C463.096 412.852 463.447 411.033 462.753 411.033C462.559 411.033 462.399 411.407 462.399 411.865ZM212.312 413.829C212.312 413.966 213.709 414.533 215.416 415.087C217.123 415.642 218.72 416.171 218.963 416.262C219.207 416.355 219.406 416.244 219.406 416.016C219.406 415.789 219.247 415.702 219.052 415.822C218.857 415.942 218.697 415.903 218.697 415.734C218.697 415.564 217.46 415.046 215.948 414.583C212.663 413.576 212.312 413.504 212.312 413.829ZM219.969 416.323C220.511 416.821 226.106 418.549 226.463 418.33C226.646 418.216 226.849 418.268 226.914 418.445C227.007 418.696 235.041 421.38 242.376 423.608C242.875 423.76 243.174 423.702 243.174 423.451C243.174 423.232 243.028 423.142 242.849 423.252C242.671 423.363 242.466 423.277 242.395 423.064C242.323 422.85 241.831 422.648 241.3 422.617C240.771 422.586 240.336 422.459 240.336 422.335C240.336 422.138 239.461 421.9 237.036 421.44C236.684 421.374 235.936 421.081 235.373 420.79C234.81 420.499 234.101 420.357 233.796 420.473C233.49 420.591 233.241 420.528 233.241 420.335C233.241 419.956 230.153 418.839 229.095 418.835C228.741 418.834 227.984 418.588 227.411 418.29C226.839 417.991 226.16 417.827 225.904 417.926C225.647 418.025 225.437 417.942 225.437 417.74C225.437 417.54 225.267 417.481 225.06 417.609C224.853 417.737 224.374 417.563 223.996 417.221C223.617 416.879 223.308 416.723 223.308 416.874C223.308 417.027 223.109 416.993 222.866 416.801C222.319 416.371 219.518 415.909 219.969 416.323ZM440.761 417.772C440.761 418.554 440.884 419.192 441.035 419.192C441.188 419.192 441.251 418.554 441.176 417.772C441.102 416.992 440.978 416.354 440.9 416.354C440.824 416.354 440.761 416.992 440.761 417.772ZM453.886 420.924V424.868H452.488C451.718 424.868 450.991 425.027 450.871 425.222C450.734 425.443 451.399 425.577 452.623 425.577H454.595V421.675V417.772L457.699 417.778C461.869 417.786 462.335 418.302 462.384 422.977C462.409 425.438 462.554 425.577 465.098 425.577C467.5 425.577 468.266 424.638 466.833 423.449C466.462 423.14 466.301 422.323 466.301 420.745C466.301 419.5 466.147 418.483 465.957 418.483C465.42 418.483 465.63 423.393 466.187 423.855C466.444 424.069 466.656 424.37 466.656 424.522C466.656 424.939 463.113 425.106 463.084 424.69C463.072 424.495 462.994 423.617 462.911 422.739C462.829 421.861 462.758 420.584 462.752 419.901C462.734 417.612 462.183 417.305 457.788 417.133L453.886 416.981V420.924ZM441.141 419.801C441.069 421.028 443.41 426.238 443.841 425.808C443.929 425.72 443.571 424.798 443.044 423.76C442.518 422.723 441.881 421.31 441.627 420.621C441.373 419.932 441.154 419.563 441.141 419.801ZM312.848 420.515C312.575 420.788 312.196 420.914 312.005 420.796C311.814 420.678 311.195 420.821 310.629 421.114C310.063 421.407 309.518 421.566 309.421 421.468C309.323 421.37 309.141 421.553 309.017 421.876C308.85 422.312 308.938 422.407 309.36 422.246C309.674 422.125 310.314 421.93 310.783 421.812C311.254 421.694 311.637 421.446 311.637 421.261C311.637 421.075 311.774 421.008 311.94 421.111C312.286 421.323 314.475 420.57 314.475 420.238C314.475 419.826 313.344 420.019 312.848 420.515ZM307.983 422.255C307.859 422.379 307.474 422.503 307.126 422.532C306.099 422.614 303.834 423.565 303.834 423.912C303.834 424.09 304.033 424.163 304.276 424.075C304.521 423.988 305.559 423.619 306.583 423.258C307.606 422.895 308.445 422.471 308.445 422.314C308.445 421.971 308.287 421.952 307.983 422.255ZM473.219 423.804C472.867 424.584 472.443 425.222 472.277 425.222C472.113 425.222 471.978 425.422 471.978 425.667C471.978 426.196 469.289 429.125 468.805 429.125C468.621 429.125 468.262 429.412 468.007 429.763C467.408 430.585 464.616 431.893 461.69 432.72C459.42 433.361 459.411 433.368 461.144 433.166C466.465 432.545 474.46 426.189 474.46 422.58C474.46 421.911 473.761 422.6 473.219 423.804ZM243.529 423.758C243.529 423.974 254.899 427.642 257.541 428.278L258.25 428.448L257.541 428.002C257.151 427.756 256.671 427.516 256.476 427.467C256.281 427.419 254.764 426.967 253.107 426.464C251.448 425.96 249.931 425.507 249.736 425.457C249.541 425.406 249.023 425.169 248.583 424.927C248.144 424.686 247.786 424.576 247.786 424.682C247.786 424.79 247.24 424.649 246.573 424.37C245.906 424.092 245.267 423.957 245.153 424.07C245.04 424.184 244.948 424.124 244.948 423.938C244.948 423.752 244.628 423.576 244.238 423.546C243.848 423.517 243.529 423.613 243.529 423.758ZM446.123 428.556C447.413 429.79 449.358 431.223 450.446 431.736C453.12 433.002 453.81 432.93 451.302 431.647C449.047 430.494 446.667 428.717 445.43 427.262C444.973 426.725 444.414 426.292 444.187 426.299C443.961 426.305 444.831 427.32 446.123 428.556ZM260.172 429.121C261.23 429.511 262.162 429.765 262.243 429.684C262.509 429.417 261.1 428.836 259.662 428.621C258.344 428.423 258.377 428.456 260.172 429.121ZM453.53 432.689C453.53 432.989 456.321 433.547 456.57 433.299C456.654 433.214 456.005 432.981 455.126 432.781C454.249 432.579 453.53 432.539 453.53 432.689ZM457.522 433.27C457.863 433.36 458.422 433.36 458.763 433.27C459.105 433.181 458.825 433.109 458.142 433.109C457.46 433.109 457.18 433.181 457.522 433.27Z" fill="white"/>
</svg>
