<svg width="794" height="824" viewBox="0 0 794 824" fill="none" xmlns="http://www.w3.org/2000/svg">
<rect width="7940" height="8240" transform="matrix(0.1 0 0 -0.1 0 824)" fill="#E60012"/>
<rect y="-1.52588e-05" width="794" height="824" fill="#E60012"/>
<path d="M266.5 30.6C218.4 39.2 179.7 74.8 167.5 121.6C163.1 138.5 162.8 148.4 163.3 279.5C163.6 399.9 163.7 402.7 165.7 412C176.8 462.1 212.4 497.8 263 509.6C269.6 511.1 278 511.4 332.1 511.7C388.1 512.1 393.9 512 395.4 510.5C396.9 509 397 489.7 397 270.9C397 108.7 396.7 32.3 396 30.9C395 29.1 393.3 29 334.7 29.1C287.1 29.2 272.8 29.5 266.5 30.6ZM357 270.6V473.2L316.3 472.7C278.8 472.3 274.8 472.1 267.3 470.2C235.1 461.9 211.2 437.1 204.5 404.8C202.3 394.7 202.3 145.9 204.4 136C210.4 107.9 229.9 84.6 256.2 74.1C269.4 68.8 275.5 68.2 318.3 68.1L357 68V270.6Z" fill="white"/>
<path d="M275.1 129.1C268.8 130.3 259.2 135.1 254.1 139.6C243.6 148.7 238.4 161.6 239.2 176.8C239.6 184.7 240.1 186.8 243.3 193.2C248 202.9 255.1 210 264.8 214.8C271.5 218.1 273.2 218.5 281.9 218.8C289.8 219.1 292.6 218.8 297.9 217C319.6 209.7 332.7 188.6 329 167C324.7 141.3 300.3 124.1 275.1 129.1Z" fill="white"/>
<path d="M445.7 29.7C445.3 30 445 138.4 445 270.6C445 488.7 445.1 510.8 446.6 511.4C449.3 512.4 526.9 512 536.5 511C577.1 506.4 612.9 481.7 632.4 445C634.9 440.3 638.2 432.4 639.9 427.5C646.2 408.7 646 413.7 646 270C646 155.3 645.8 138.2 644.4 130.9C634.5 78.8 594.8 39.5 542.6 30.5C535.6 29.3 524.8 29 490 29C466 29 446 29.3 445.7 29.7ZM552.5 247.5C568.1 251.6 580.9 263.5 586.1 278.7C589.4 288.1 589.3 301.9 586 310.5C579.9 326.3 567.9 337.4 552.5 341.5C527.5 348 500.9 332.9 493.6 308.1C491.4 300.5 491.5 287.7 494 279.9C501.5 255.4 527.5 241 552.5 247.5Z" fill="white"/>
<path d="M719.3 584.4C703.8 589.5 694.6 604.4 697.2 620.6C698.8 631 704.8 639.2 714 643.9C726.5 650.1 739.8 648.5 749.8 639.5C757.3 632.7 760.5 625.6 760.5 615.5C760.5 606 757.7 598.9 751.4 592.6C743.5 584.7 729.3 581.1 719.3 584.4ZM737 599C743 602.1 746.3 607.1 746.8 613.9C747.4 622.8 743.6 629.2 735.7 632.5C722.3 638.1 707.1 625.2 710.9 611.3C712.5 605.1 715.2 601.6 720.2 599.1C725.6 596.5 731.9 596.4 737 599Z" fill="white"/>
<path d="M49 615.5V646.1L55.3 645.8L61.5 645.5L62 626.2L62.5 606.9L77 626.4L91.5 646L97.5 645.8L103.5 645.5V615.5V585.5L97.3 585.2L91 584.9V604.6V624.4L76.3 604.7L61.5 585H55.3H49V615.5Z" fill="white"/>
<path d="M149 615.5V646H155.5H162V615.5V585H155.5H149V615.5Z" fill="white"/>
<path d="M207.5 586.3C207.2 587 207.1 600.6 207.2 616.5L207.5 645.5L213.8 645.8L220 646.1V625.9V605.6L235 625.8L250 646H256H262V615.5V585H255.5H249L248.8 604.2L248.5 623.4L234.1 604.2L219.8 585H213.9C210 585 207.8 585.4 207.5 586.3Z" fill="white"/>
<path d="M304.7 585.7C304.3 586 304 589 304 592.2V598H314H324V622V646H330.5H337V622V598H346.5H356V591.5V585H330.7C316.7 585 305 585.3 304.7 585.7Z" fill="white"/>
<path d="M400 615.5V646H423.5H447V640V634H429.5H412V627V620H428H444V614.5V609H428H412V603V597L429.3 596.8L446.5 596.5L446.8 590.7L447.1 585H423.5H400V615.5Z" fill="white"/>
<path d="M496.5 586.3C496.2 587 496.1 600.6 496.2 616.5L496.5 645.5L502.8 645.8L509 646.1V625.8V605.6L524 625.8L539 646H545H551V615.5V585H544.5H538L537.8 604.2L537.5 623.4L523.1 604.2L508.8 585H502.9C499 585 496.8 585.4 496.5 586.3Z" fill="white"/>
<path d="M602 615.4V646H615.3C630.7 646 638 644.5 644.6 639.9C664.1 626.5 661.1 597.8 639.2 587.7C635.1 585.8 632.3 585.5 618.3 585.2L602 584.8V615.4ZM634.7 599.9C643.1 603.8 646.7 614.5 642.5 623.4C639.3 630 632.8 633 621.4 633H614V615.5V598H622.3C628.2 598 631.7 598.6 634.7 599.9Z" fill="white"/>
<path d="M571.8 673.1C557.9 674.9 545.5 681.4 535.3 692.3C513 716.3 513.7 752.8 537 776C545.6 784.7 553.4 789.2 564.6 792C583 796.7 601.6 793 616.8 781.5C622.7 777.1 630.4 768.5 629.8 767C629.6 766.6 625.5 762.9 620.6 758.6L611.8 750.9L609.1 754.4C596.2 771.3 570.1 773.1 555 758C552.8 755.8 549.8 751.7 548.3 748.8C545.8 744 545.5 742.5 545.5 733.5C545.5 724.9 545.8 722.8 548 718.5C555.4 703.2 573.7 694.9 589.6 699.5C597 701.6 604 706 608.4 711.3L611.8 715.4L616.2 711.8C618.6 709.9 622.8 706.2 625.5 703.8L630.5 699.3L626.6 694.5C613.6 678.7 592.6 670.5 571.8 673.1Z" fill="white"/>
<path d="M77.2 677C53.4 683.3 41.1 699.2 46.4 717.2C50.2 730.5 62.8 737 96.3 743C118.8 747 125.4 750.3 125.4 757.4C125.4 762.3 122.5 765.9 116.2 768.8C110.8 771.3 109.6 771.5 96 771.5C79.9 771.5 73.6 770.2 61.7 764.8C58 763.1 54.8 761.9 54.6 762.1C53.4 763.6 43.9 781.3 44.2 781.5C45.2 782.6 61.2 788.4 67.8 790.2C78.8 793.1 102.3 793.8 114.3 791.6C136.7 787.4 147.8 777.1 148.8 759.8C149.6 745.5 145.6 738.1 133.3 731.7C124.5 727.1 116.9 724.9 97.5 721C80.6 717.7 75.8 716.1 72.3 712.8C69.2 709.9 69.2 704.7 72.4 701.5C79.6 694.3 105.4 694 125.4 701C128.7 702.1 131.7 702.7 132.1 702.3C132.8 701.5 140 684.6 140 683.6C140 682.7 124.7 678.2 116.1 676.6C104.5 674.4 86.5 674.6 77.2 677Z" fill="white"/>
<path d="M162.4 677.7C162.7 678.7 169.7 703.6 178 733C186.3 762.4 193.3 787.3 193.6 788.2C194.1 789.8 195.7 790 208 790H221.9L223 786.2C232.9 750.4 242.9 716.8 243.4 718C243.7 718.8 248.4 735.2 253.8 754.5L263.6 789.5L277.6 789.8L291.6 790.1L307.5 734.3C316.2 703.6 323.5 677.9 323.8 677.2C324.1 676.3 321.3 676 311.6 676H299.1L297.7 680.7C296.9 683.4 292.1 701.4 287 720.7C281.8 740.1 277.4 756 277 756C276.7 756 272 740.8 266.6 722.2C261.2 703.7 255.9 685.7 254.8 682.2L252.9 675.9L242.7 676.2L232.5 676.5L220.8 716.5C214.4 738.5 209.1 756.7 209 757C208.9 757.3 204.4 741.1 199.1 721C193.7 700.9 188.7 682.6 188.1 680.2L186.9 676H174.4C162.9 676 161.9 676.1 162.4 677.7Z" fill="white"/>
<path d="M352 733V790H365H378L377.8 733.2L377.5 676.5L364.8 676.2L352 675.9V733Z" fill="white"/>
<path d="M405 688.5V701H423H441V745.5V790H453.5H466V745.5V701L483.8 700.8L501.5 700.5V688.5V676.5L453.3 676.2L405 676V688.5Z" fill="white"/>
<path d="M656 733V790H668H680V767.5V745H706.5H733V767.5V790H745H757L756.8 733.2L756.5 676.5L744.8 676.2L733 675.9V698.5V721H706.5H680V698.5V676H668H656V733Z" fill="white"/>
</svg>
