<svg width="518" height="518" viewBox="0 0 518 518" fill="none" xmlns="http://www.w3.org/2000/svg">
<rect width="518" height="518" fill="#147C14"/>
<path fill-rule="evenodd" clip-rule="evenodd" d="M245.914 63.686C218.892 65.213 196.838 71.286 169.964 84.599C157.679 90.685 157.705 90.808 171.305 90.869C184.388 90.929 190.289 91.893 204.402 96.277C218.484 100.652 228.552 104.739 244.984 112.752C252.207 116.274 258.461 119.156 258.882 119.156C259.846 119.156 264.431 117.166 274.625 112.323C301.898 99.365 322.456 92.806 341.422 91.014C345.553 90.624 358.178 90.808 359.879 91.283C363.856 92.395 353.298 86.092 343.961 81.78C312.74 67.362 281.826 61.657 245.914 63.686ZM390.133 118.025C380.359 119.435 365.317 127.09 350.548 138.171C340.077 146.026 313.856 169.3 313.903 170.696C313.915 171.031 317.071 175.26 320.916 180.094C355.624 223.718 389.261 278.383 405.733 317.933C414.626 339.286 418.5 360.446 415.882 373.369C414.728 379.067 415.701 378.553 420.9 370.719C447.084 331.258 457.36 292.071 454.344 243.18C451.814 202.157 434.684 161.191 406.925 129.779C398.114 119.808 394.638 117.375 390.133 118.025ZM125.434 118.416C118.519 120.522 101.01 141.804 89.699 161.852C75.187 187.575 68.477 209.95 64.022 247.477C61.514 268.608 67.975 306.868 78.568 333.609C83.575 346.25 93.453 364.118 101.298 374.723C103.341 377.485 105.205 378.839 104.524 377.066C100.733 367.196 102.438 350.203 109.274 329.719C122.657 289.624 162.754 223.405 203.471 174.155L206.281 170.756L196.801 162.184C178.69 145.809 169.289 138.133 158.892 131.234C146.106 122.75 130.649 116.828 125.434 118.416ZM255.847 223.889C240.549 234.423 205.953 267.423 182.794 293.57C138.845 343.191 118.63 383.242 128.04 402.052C133.257 412.48 161.533 431.17 187.906 441.624C225.634 456.578 267.958 459.073 309.391 448.786C338.206 441.631 379.582 418.875 390.499 404.178C401.544 389.307 385.798 353.022 348.58 307.58C329.064 283.752 277.57 232.786 263.559 223.429C260.425 221.336 259.471 221.393 255.847 223.889Z" fill="white"/>
</svg>
